<svg width="181" height="143" viewBox="0 0 181 143" fill="none" xmlns="http://www.w3.org/2000/svg">
<path d="M128.8 25.9L128.2 26.7L128.4 26.9L129 26.1L128.8 25.9ZM3 136.7C2.46667 136.567 1.46667 136.033 0 135.1C0.4 134.433 0.8 133.567 1.2 132.5C1.46667 131.433 1.93333 130.633 2.6 130.1C2.6 129.967 2.6 129.767 2.6 129.5C2.46667 129.233 2.46667 129.033 2.6 128.9C2.86667 128.767 3.06667 128.5 3.2 128.1C3.2 127.7 3.2 127.433 3.2 127.3L4.4 123.7L6.8 117.1C7.06667 116.433 7.4 115.567 7.8 114.5C8.06667 113.433 8.4 112.567 8.8 111.9C8.66667 111.367 8.8 110.767 9.2 110.1C9.73333 109.433 10 108.9 10 108.5V108.3C9.86667 108.033 9.86667 107.7 10 107.3C10.1333 106.9 10.3333 106.567 10.6 106.3C11.1333 105.767 11.5333 104.9 11.8 103.7C12.2 102.5 12.6 101.633 13 101.1C13.2667 100.7 13.4667 100.1 13.6 99.3C13.8667 98.5 14.1333 97.8333 14.4 97.3C14.4 97.1667 14.4667 96.8333 14.6 96.3C14.7333 95.6333 15.2 95.2333 16 95.1C16 94.9667 15.9333 94.7 15.8 94.3C15.8 93.9 15.9333 93.5 16.2 93.1C16.6 92.8333 16.8667 92.3667 17 91.7C17.1333 91.0333 17.2667 90.5667 17.4 90.3C17.5333 90.0333 17.7333 89.7667 18 89.5C18.4 89.1 18.6 88.7667 18.6 88.5C18.6 87.9667 18.7333 87.3 19 86.5L20 83.3C20 83.1667 20.0667 82.9667 20.2 82.7C20.3333 82.3 20.6 82.2333 21 82.5C20.7333 81.7 20.8 80.9 21.2 80.1C21.7333 79.3 22.0667 78.8333 22.2 78.7C22.2 78.8333 22.2667 79.1 22.4 79.5C22.6667 79.9 23.0667 80.1 23.6 80.1H24L23.6 79.1C23.6 78.7 23.4667 78.5 23.2 78.5C22.9333 78.5 22.7333 78.5 22.6 78.5C22.6 78.1 22.6 77.8333 22.6 77.7C22.7333 77.4333 22.9333 77.3 23.2 77.3C23.3333 76.7667 23.5333 76.2333 23.8 75.7C24.0667 75.0333 24.2667 74.5 24.4 74.1C24.6667 74.1 24.8 74.2333 24.8 74.5C24.9333 74.6333 24.9333 74.8333 24.8 75.1L26.8 74.9C26.5333 74.6333 26.2667 74.3667 26 74.1C25.7333 73.7 25.4667 73.4333 25.2 73.3C24.6667 73.1667 24.6 72.7667 25 72.1C25.2667 71.9667 25.7333 71.9 26.4 71.9C26.2667 72.1667 26.2 72.5667 26.2 73.1C26.6 72.7 27 72.5667 27.4 72.7C27.8 72.8333 28.1333 72.9 28.4 72.9C28.6667 72.9 28.8667 72.7 29 72.3L27 71.1L26.4 71.7C26.1333 71.5667 25.9333 71.3667 25.8 71.1C25.8 70.8333 25.8667 70.5667 26 70.3C26.1333 69.9 26.3333 69.3 26.6 68.5C26.8667 67.7 27.2667 67.0333 27.8 66.5C27.9333 66.3667 28 66.1 28 65.7C28.1333 65.1667 28.2667 64.7667 28.4 64.5C28.5333 64.1 28.6667 63.7667 28.8 63.5C28.9333 63.1 29.0667 62.7667 29.2 62.5C29.4667 61.7 29.7333 61.1 30 60.7C30.5333 59.3667 31 58.3667 31.4 57.7L35.8 48.9C36.2 48.1 36.6 47.2333 37 46.3C37.5333 45.2333 38.0667 44.1667 38.6 43.1L44.4 32.3C44.4 32.1667 44.5333 31.9667 44.8 31.7L46.2 30.1C46.2 29.5667 46.3333 28.9667 46.6 28.3C47 27.6333 47.2667 27.0333 47.4 26.5C47.4 26.2333 47.5333 25.9667 47.8 25.7C48.0667 25.3 48.2667 25.0333 48.4 24.9L51.2 19.1C51.3333 18.8333 51.6667 18.4333 52.2 17.9L52.6 16.9L53.2 15.9C54 15.1 54.4 14.0333 54.4 12.7C54.4 11.9 54.2 11.4333 53.8 11.3C53.2667 10.9 52.9333 10.3 52.8 9.5C52.6667 8.7 52.6 8.23333 52.6 8.1H53.8L58.6 7.5C58.8667 7.5 59.2667 7.5 59.8 7.5C60.3333 7.5 60.8667 7.43333 61.4 7.3C62.0667 7.03334 62.4 6.83334 62.4 6.7L63.4 6.1L64 7.1H64.2L64.6 5.5C65 5.63333 65.3333 5.7 65.6 5.7C66 5.56667 66.2667 5.3 66.4 4.9C66.8 4.5 67.0667 4.43334 67.2 4.7C68.2667 4.7 68.8 4.16666 68.8 3.1C69.2 2.96666 69.9333 2.9 71 2.9C72.2 2.9 73.0667 2.5 73.6 1.7C74.1333 1.83333 74.4667 2.16667 74.6 2.7C74.7333 3.1 74.8667 3.36667 75 3.5C75.1333 3.23333 75.3333 2.96666 75.6 2.7C75.8667 2.43334 76.1333 2.03334 76.4 1.5L78.2 2.5C78.3333 2.5 78.8 2.36667 79.6 2.1H80.2C80.4667 2.5 81.0667 2.96667 82 3.5C82.9333 3.90001 83.6 4.36667 84 4.9C84.1333 5.16667 84.2 5.7 84.2 6.5C83.9333 7.56667 84.2 8.36667 85 8.90001C85.2667 9.03334 85.5333 9.63334 85.8 10.7C85.8 10.9667 85.6667 11.1667 85.4 11.3C85.2667 11.4333 85.2667 11.5667 85.4 11.7C85.4 12.9 85.6 13.5667 86 13.7C86.5333 13.9667 86.6667 14.3 86.4 14.7C86.1333 14.9667 86 15.1667 86 15.3L86.6 15.5C86.3333 16.4333 86.2667 17.1 86.4 17.5C86.6667 19.3667 86.9333 20.7667 87.2 21.7C87.6 23.7 87.8 24.7667 87.8 24.9C87.8 25.8333 87.8667 26.7 88 27.5C88.1333 28.1667 88.2 28.8333 88.2 29.5C88.2 30.3 88.3333 31.3667 88.6 32.7C88.6 33.1 88.8667 33.7 89.4 34.5C89.1333 35.0333 89.0667 35.5 89.2 35.9C89.2 35.9 89.5333 36.2333 90.2 36.9C90.0667 36.9 89.9333 36.9667 89.8 37.1C89.8 37.1 89.7333 37.1 89.6 37.1C89.6 37.1 89.5333 37.1667 89.4 37.3C89.6667 37.7 89.9333 38.3667 90.2 39.3C90.4667 40.1 90.6 40.8333 90.6 41.5V42.5C91 42.7667 91.0667 43.1 90.8 43.5C90.6667 43.9 90.6 44.1667 90.6 44.3C90.4667 44.4333 90.4 44.5667 90.4 44.7C90.5333 44.8333 90.6 44.9667 90.6 45.1C90.8667 44.5667 91.0667 44.2333 91.2 44.1L91.4 44.7C91.1333 45.9 91.1333 46.7667 91.4 47.3C91.4 47.5667 91.4 47.9 91.4 48.3C91.5333 48.7 91.7333 49.1667 92 49.7C92.1333 50.2333 92.2 51.0333 92.2 52.1C92.2 52.6333 92.3333 53.3 92.6 54.1C92.8667 54.9 93 55.5 93 55.9C93.1333 56.0333 93.2667 56.1667 93.4 56.3C93.5333 56.3 93.6667 56.3667 93.8 56.5C93.4 56.6333 93.3333 56.8333 93.6 57.1C93.7333 57.2333 93.7333 57.4333 93.6 57.7C93.6 57.8333 93.6667 57.9667 93.8 58.1C93.9333 58.3667 94 58.9 94 59.7C94.1333 60.3667 94.3333 60.8333 94.6 61.1L95 60.9L98.4 56.5L98.6 56.1C99.2667 55.4333 100.067 54.3667 101 52.9C102.067 51.3 102.867 50.1667 103.4 49.5C103.667 49.1 104.067 48.5 104.6 47.7C105.267 46.9 105.933 46.3 106.6 45.9L106.8 45.5C106.4 45.3667 106.267 45.1667 106.4 44.9C106.533 44.6333 106.733 44.5 107 44.5C107.667 44.2333 108.2 43.7667 108.6 43.1C109.133 42.3 109.6 41.7 110 41.3L111 40.5C111.667 40.1 112.133 39.6333 112.4 39.1C112.8 38.4333 113.067 38.0333 113.2 37.9C113.333 37.7667 113.467 37.5 113.6 37.1C113.733 36.7 114.133 36.5 114.8 36.5C115.067 36.2333 115.133 35.9667 115 35.7C114.867 35.0333 115 34.4333 115.4 33.9C115.933 33.3667 116.267 33.0333 116.4 32.9L119.4 30.1L120.2 28.9C120.2 28.7667 120.267 28.5 120.4 28.1C120.667 27.7 121.067 27.5 121.6 27.5H121.8C121.8 27.5 122 27.3 122.4 26.9L128.4 20.7L129.2 19.7C129.2 19.7 129.533 20.0333 130.2 20.7L130.4 18.5L131.6 20.3C131.867 19.7667 132.467 19.1 133.4 18.3C134.467 17.3667 135.133 16.4333 135.4 15.5C135.4 15.2333 135.6 15.1 136 15.1L136.6 14.9C136.6 14.1 136.933 13.5667 137.6 13.3C138.4 12.9 138.867 12.6333 139 12.5C139.133 12.3667 139.8 11.9 141 11.1L141.4 10.7C141.8 9.76667 142.467 8.9 143.4 8.1C144.333 7.16667 145 6.43333 145.4 5.9L146.4 5.10001L145.4 4.3C145.533 3.63334 145.867 2.96667 146.4 2.30001C147.067 1.5 147.533 0.833331 147.8 0.299996C147.933 0.166665 148.267 0.0999987 148.8 0.0999987C149.067 -0.0333329 149.267 -0.0333329 149.4 0.0999987C149.667 0.0999987 149.933 0.0999987 150.2 0.0999987C150.2 0.23333 150.133 0.366666 150 0.500005C150 0.633337 150.067 0.766669 150.2 0.9C150.2 1.16667 150.4 1.30001 150.8 1.30001C150.933 1.43334 151.133 1.5 151.4 1.5C151.8 1.5 152.067 1.63334 152.2 1.9C152.333 2.16667 152.533 2.36667 152.8 2.5C153.067 2.5 153.267 2.56667 153.4 2.7L154.8 1.7L154.6 2.9C154.867 3.16667 155.067 3.30001 155.2 3.30001C155.333 3.30001 155.6 3.23334 156 3.1C156.4 2.83333 156.667 3.03333 156.8 3.7H157C157.667 3.43334 158.2 3.63334 158.6 4.3C159.133 4.83334 159.467 5.16667 159.6 5.3L161.2 4.10001L161.4 5.3C161.533 5.3 162 5.3 162.8 5.3C163.6 5.3 164.267 5.63334 164.8 6.3L165.2 6.5C165.733 6.1 166.2 6.16666 166.6 6.7C167 7.23333 167.333 7.56666 167.6 7.7C167.867 7.3 168.133 6.7 168.4 5.9L168.8 6.3C169.6 7.23333 170.133 7.83333 170.4 8.1C170.667 8.1 171.2 7.96667 172 7.7L171.8 9.70001L172.8 9.5L173 11.3C173.267 11.1667 173.467 11.1 173.6 11.1C173.733 10.9667 173.867 10.8333 174 10.7C174.4 10.1667 174.667 9.96667 174.8 10.1C175.067 10.1 175.267 10.4333 175.4 11.1H176.8L177.4 9.9C178.2 10.0333 178.733 10.5 179 11.3C179.267 11.9667 179.4 12.3667 179.4 12.5C179.533 12.7667 179.733 13.1 180 13.5C180.267 13.9 180.4 14.2333 180.4 14.5L180 15.5C179.6 15.6333 179.267 16.0333 179 16.7C178.733 17.2333 178.533 17.6333 178.4 17.9C178.133 18.5667 177.867 18.9667 177.6 19.1C177.333 19.1 177.133 19.2333 177 19.5C177 19.7667 177 20.1 177 20.5C177 21.0333 176.6 21.5667 175.8 22.1C175.533 22.2333 175.4 22.3667 175.4 22.5C175.4 22.6333 175.467 22.8333 175.6 23.1C175.467 23.2333 175.133 23.5667 174.6 24.1C174.2 24.5 174 24.9 174 25.3V26.5H173.2L173.8 27.3C173.8 27.3 173.733 27.3667 173.6 27.5C173.333 27.3667 173.133 27.4333 173 27.7C172.867 27.9667 172.8 28.1667 172.8 28.3C172.8 28.7 172.667 29.0333 172.4 29.3C172.267 29.5667 172.133 29.7667 172 29.9L168.8 35.7L165.2 43.5L162.2 50.3L159.2 57.5C157.6 60.9667 156.667 63.1 156.4 63.9C156 64.7 155.333 66.5667 154.4 69.5C154.133 70.1667 153.867 70.9 153.6 71.7L148.8 83.3C147.733 85.7 147 87.5 146.6 88.7C146.333 89.3667 146.133 89.9667 146 90.5C146 91.0333 146 91.4333 146 91.7C145.333 93.3 145 94.1667 145 94.3C144.333 96.1667 143.933 97.3 143.8 97.7C143.667 98.3667 143.333 99.1 142.8 99.9C142.4 100.7 142.067 101.433 141.8 102.1C141.667 102.233 141.4 102.7 141 103.5C140.6 104.3 140.4 105.167 140.4 106.1C140.267 107.7 139.533 109.367 138.2 111.1C138.733 111.633 138.667 112.3 138 113.1C137.2 114.3 136.6 115.633 136.2 117.1L133 126.5C132.867 126.767 132.6 127.3 132.2 128.1C131.933 128.767 131.8 129.367 131.8 129.9V130.3C131.8 130.567 131.733 130.7 131.6 130.7C131.067 130.967 130.733 131.5 130.6 132.3C130.467 133.1 130.267 133.7 130 134.1L128.6 136.9C128.333 137.567 128 138.1 127.6 138.5C127.333 138.9 127.067 139.3 126.8 139.7C126.267 140.233 125.933 140.433 125.8 140.3C125.133 140.033 124.333 140.233 123.4 140.9L120.6 140.3C120.333 140.167 120 139.967 119.6 139.7C119.2 139.433 118.8 139.3 118.4 139.3C117.467 139.3 116.8 138.767 116.4 137.7C117.2 137.967 117.6 138.1 117.6 138.1V136.9C117.333 137.3 117.133 137.3 117 136.9L115.4 138.5C115.133 138.767 114.933 138.9 114.8 138.9C114 139.033 113.267 138.833 112.6 138.3C112.067 137.767 111.8 137.167 111.8 136.5L112 135.7C111.333 135.3 110.933 135.033 110.8 134.9C110.8 134.767 110.867 134.633 111 134.5C111.133 134.367 111.2 134.167 111.2 133.9L111.6 133.1C111.467 132.567 111.4 131.767 111.4 130.7C111.4 129.5 111.533 128.633 111.8 128.1V127.5C111.533 127.367 111.067 127.3 110.4 127.3C110.4 127.033 110.533 126.5 110.8 125.7L111.8 126.3L112.4 125.1C111.867 125.1 111.467 125.167 111.2 125.3C111.333 124.633 111.267 123.9 111 123.1C110.733 122.167 110.6 121.5 110.6 121.1V120.5C110.6 120.367 110.533 120.3 110.4 120.3C110.267 120.167 110.2 119.967 110.2 119.7C110.2 119.033 110.267 118.567 110.4 118.3L111 119.5C111.267 118.967 111.267 118.433 111 117.9C110.867 117.367 110.8 117.033 110.8 116.9L110.6 115.9C110.6 115.5 110.667 115.1 110.8 114.7C111.067 114.3 111.2 113.9 111.2 113.5V113.1C111.2 112.433 111.467 111.433 112 110.1L112.2 108.9L112.6 104.3L113.2 102.1C113.333 101.967 113.333 101.433 113.2 100.5C113.2 99.4333 113.4 98.6333 113.8 98.1C113.933 97.9667 114.133 97.9 114.4 97.9C114.667 97.9 114.867 97.8333 115 97.7C114.467 97.1667 114.2 96.8333 114.2 96.7C114.2 96.4333 114.333 95.9667 114.6 95.3L115 94.3L115.8 93.3C115.267 93.0333 115.133 92.5667 115.4 91.9L118.4 82.7L118.8 81.3V80.5C119.6 79.5667 120.133 78.3667 120.4 76.9C120.8 75.4333 121.133 74.3667 121.4 73.7C121.533 73.3 121.6 72.8333 121.6 72.3C121.733 71.7667 121.933 71.4333 122.2 71.3C122.6 71.0333 122.733 70.7 122.6 70.3C122.6 69.9 122.6 69.6333 122.6 69.5C122.6 69.2333 122.667 69.0333 122.8 68.9C123.067 68.6333 123.267 68.2333 123.4 67.7C123.533 67.0333 123.667 66.5 123.8 66.1L125 63.5C125.133 63.1 125.267 62.7 125.4 62.3C125.533 61.7667 125.733 61.2333 126 60.7C126.133 60.4333 126.267 60.1667 126.4 59.9C126.533 59.6333 126.6 59.3 126.6 58.9L125.8 59.5L122.2 63.9C122.067 64.0333 122 64.0333 122 63.9C122 63.6333 122.067 63.3667 122.2 63.1C120.867 63.1 120 64.1 119.6 66.1C120 65.8333 120.333 65.7667 120.6 65.9C120.867 65.9 120.867 66.0333 120.6 66.3L115.2 71.9C115.333 71.7667 115.867 71.0333 116.8 69.7C116.667 69.8333 117.4 68.9 119 66.9C117.8 67.8333 117.067 68.5 116.8 68.9C116.667 69.1667 116.333 69.5 115.8 69.9C115.4 70.1667 115.067 70.3667 114.8 70.5C114.667 70.6333 114.4 70.8333 114 71.1C113.6 71.2333 113.333 71.4333 113.2 71.7L109 77.5L105.4 81.1L102 84.7C101.867 84.7 101.8 84.8333 101.8 85.1C101.533 85.7667 101.267 87.0333 101 88.9C100.733 89.0333 100.333 89.1 99.8 89.1L99.4 90.9C99.1333 91.0333 98.7333 91.3 98.2 91.7C97.6667 92.1 97.2 92.3 96.8 92.3C96.4 92.3 96.0667 92.2333 95.8 92.1C95.1333 92.6333 94.0667 93.9 92.6 95.9C92.3333 96.4333 91.8667 97.0333 91.2 97.7C91.2 97.7 91.1333 97.7667 91 97.9C90.6 98.7 90 99.4333 89.2 100.1C88.5333 100.633 88 101.1 87.6 101.5C87.3333 101.767 86.8 102.233 86 102.9C85.3333 103.567 84.8667 104.233 84.6 104.9C84.2 105.3 83.6 105.5 82.8 105.5C82 105.767 81.5333 105.567 81.4 104.9C81.2667 104.633 80.8 104.233 80 103.7C79.3333 103.167 78.6667 102.833 78 102.7L78.4 100.9C78.1333 101.033 77.7333 101.367 77.2 101.9L76.8 99.9C76.5333 100.433 76.2667 100.767 76 100.9H75.8C75.8 100.233 75.4667 99.7667 74.8 99.5C74.2667 99.3667 74 98.9667 74 98.3C74.2667 95.9 74.8667 94.1667 75.8 93.1C76.0667 92.7 76.2667 92.2333 76.4 91.7C76.6667 91.0333 76.8667 90.5 77 90.1L76.8 89.7C76.4 89.4333 76.1333 89.0333 76 88.5C76 87.8333 76 87.3667 76 87.1C74.6667 86.9667 73.7333 86.1 73.2 84.5C72.8 83.0333 72.0667 80.8333 71 77.9L70.8 77.5V76.1C70.6667 76.2333 70.4667 76.3 70.2 76.3L70.8 77.5L72 83.3H71.8L70.6 80.5C69.9333 78.7667 69.4667 77.7 69.2 77.3C69.0667 77.0333 68.8667 76.8333 68.6 76.7C68.3333 76.4333 68.1333 76.1667 68 75.9L68.8 74.7L67.6 74.3C66.2667 71.2333 65.4667 68.6333 65.2 66.5L64 62.3C63.6 61.9 63.4 61.7 63.4 61.7C63 61.7 62.6667 61.8333 62.4 62.1L60.6 65.9L57.6 71.7C57.3333 72.3667 56.8667 73.3667 56.2 74.7C55.5333 76.0333 55 77.3 54.6 78.5C54.4667 79.0333 54.1333 79.7667 53.6 80.7C53.2 81.5 52.8667 82.1667 52.6 82.7C52.3333 83.2333 52 83.9667 51.6 84.9C51.2 85.8333 51 86.1667 51 85.9V86.5C50.6 87.0333 50.7333 87.3 51.4 87.3L50.6 88.9C50.3333 88.6333 50.0667 88.5 49.8 88.5L49.2 90.3L50 89.7C50 89.7 50 89.7667 50 89.9C50.1333 89.9 50.2 89.9 50.2 89.9C50.0667 90.0333 49.9333 90.2333 49.8 90.5C49.6667 90.7667 49.4667 90.9667 49.2 91.1C48.8 91.3667 48.5333 91.6333 48.4 91.9C48.4 92.0333 48.4667 92.3667 48.6 92.9C48.6 93.0333 48.4667 93.1667 48.2 93.3C48.0667 93.3 47.8667 93.3 47.6 93.3C47.4667 93.5667 47.2667 93.9667 47 94.5C46.7333 94.9 46.4667 95.3667 46.2 95.9C45.8 96.8333 45.4 97.9 45 99.1C44.6 100.167 44.1333 101.367 43.6 102.7C43.4667 102.7 43.2667 102.833 43 103.1C42.8667 103.233 42.8 103.367 42.8 103.5C42.6667 103.767 42.7333 104.233 43 104.9C42.4667 105.033 42.1333 105.233 42 105.5C42 105.767 42.0667 106.1 42.2 106.5C41.5333 106.633 41.0667 107.033 40.8 107.7C40.6667 108.367 40.5333 108.9 40.4 109.3C40.2667 109.433 40.0667 109.7 39.8 110.1C39.6667 110.367 39.6 110.633 39.6 110.9L40 111.7C40 111.7 39.9333 111.767 39.8 111.9C39.4 112.3 39.1333 112.833 39 113.5C39 114.167 38.9333 114.7 38.8 115.1C38.6667 115.633 38.4667 116.1 38.2 116.5C37.9333 116.9 37.7333 117.233 37.6 117.5C37.8667 117.633 38 117.9 38 118.3C38 118.567 37.8667 118.833 37.6 119.1C37.2 119.9 36.9333 120.633 36.8 121.3C36.6667 121.833 36.5333 122.3 36.4 122.7L35.8 124.1C35.8 124.367 35.8 124.7 35.8 125.1C35.8 125.367 35.6667 125.567 35.4 125.7L35.2 125.9C35.6 126.433 35.6 126.833 35.2 127.1C34.8 127.367 34.5333 127.567 34.4 127.7L34.8 128.3C34.2667 128.567 34 128.833 34 129.1C33.4667 129.767 33.1333 130.5 33 131.3L33.4 132.1C33 132.367 32.7333 132.633 32.6 132.9C32.4667 133.167 32.4667 133.433 32.6 133.7L31.6 134.5C31.0667 135.567 30.7333 136.367 30.6 136.9C30.4667 137.7 30.0667 138.433 29.4 139.1C28.3333 140.167 27.4667 140.9 26.8 141.3L26.4 140.5L22 142.9L21.8 142.7L22.4 141.5C22 141.5 21.6667 141.567 21.4 141.7L20.6 140.3L19.4 141.7L17.4 140.9C16.6 140.633 16 140.5 15.6 140.5C14.6667 140.367 14.2 139.833 14.2 138.9V138.3L13.4 138.1C12.8667 138.633 12.2 138.833 11.4 138.7C10.7333 138.433 10.3333 138.3 10.2 138.3C9.53333 138.3 9 138.367 8.6 138.5C8.6 138.1 8.26667 137.767 7.6 137.5C7.46667 137.367 7.2 137.3 6.8 137.3C5.46667 137.433 4.2 137.233 3 136.7ZM9.8 112.3V113.3L10.4 111.9L10.2 111.7C9.93333 111.967 9.8 112.167 9.8 112.3ZM10.4 115.3L10 117.5C10.6667 116.567 11 116.1 11 116.1C11 115.967 10.8 115.7 10.4 115.3ZM10.6 108.9V110.7L11.8 109.9L10.6 108.9ZM12.2 111.5C12.0667 111.767 11.7333 112.233 11.2 112.9C10.9333 113.433 11.0667 113.9 11.6 114.3C11.8667 113.367 12.2667 112.5 12.8 111.7C13.3333 110.767 13.8 109.767 14.2 108.7C13.6667 108.967 13.2 109.233 12.8 109.5C12.5333 109.633 12.2667 109.767 12 109.9C12.2667 110.567 12.3333 111.1 12.2 111.5ZM15 102.3L14 101.7C14 102.1 14.0667 102.367 14.2 102.5C14.4667 102.5 14.7333 102.433 15 102.3ZM14.6 105.5C14.2 105.9 14.2 106.633 14.6 107.7L16.2 103.9L16 103.5C15.4667 104.033 15.2 104.3 15.2 104.3C15.3333 104.833 15.1333 105.233 14.6 105.5ZM19.6 92.9L19.2 94.3C19.4667 94.3 19.6 94.1 19.6 93.7C19.8667 93.4333 20 93.2333 20 93.1L19.6 92.9ZM21 89.5L20 92.3L20.2 92.5L21.4 89.7L21 89.5ZM21.8 82.1C21.5333 82.1 21.2667 82.2333 21 82.5C21 82.7667 21.0667 82.9667 21.2 83.1C21.4667 83.1 21.8 83.0333 22.2 82.9C22.2 83.0333 22.2667 83.2333 22.4 83.5C22.6667 83.6333 22.6667 83.8333 22.4 84.1L23.6 83.7C23.6 83.3 23.4667 82.9667 23.2 82.7C22.9333 82.8333 22.5333 82.9 22 82.9C22.2667 82.6333 22.4667 82.5 22.6 82.5C22.3333 82.2333 22.0667 82.1 21.8 82.1ZM23.8 77.1C23.5333 77.2333 23.3333 77.3 23.2 77.3C23.6 77.4333 23.8667 77.5 24 77.5C24.2667 77.3667 24.4667 77.1667 24.6 76.9C24.3333 76.7667 24.0667 76.8333 23.8 77.1ZM24 80.1V80.9L24.4 81.1L25.2 79.1H25C24.3333 79.7667 24 80.1 24 80.1ZM24.8 75.5C24.1333 75.9 24.0667 76.3667 24.6 76.9C24.6 76.6333 24.6667 76.4333 24.8 76.3C25.0667 76.0333 25.0667 75.7667 24.8 75.5ZM25.6 77.7C25.6 77.9667 25.6667 78.1667 25.8 78.3L26.6 76.5L25.8 76.3C25.6667 76.9667 25.6 77.4333 25.6 77.7ZM27.8 74.9C27.6667 74.6333 27.4 74.4333 27 74.3C26.8667 74.5667 26.8667 74.8333 27 75.1C27.1333 75.2333 27.4 75.4333 27.8 75.7C27.9333 75.3 27.9333 75.0333 27.8 74.9ZM38 73.7C37.8667 74.1 37.6667 74.5 37.4 74.9L37.6 75.1L38.8 73.1L38.4 72.7C38.2667 72.9667 38.1333 73.3 38 73.7ZM48 94.9L47.6 94.7C47.6 94.4333 47.6667 94.3667 47.8 94.5C47.9333 94.6333 48 94.7667 48 94.9ZM52.4 85.1C52.4 85.5 52.2 85.7667 51.8 85.9C51.8 85.1 52 84.5 52.4 84.1C52.4 84.2333 52.4 84.5667 52.4 85.1ZM69.8 73.9V74.5L70.6 73.5L70.4 73.3L69.8 73.9ZM95.8 98.3H95.6C95.6 98.1667 95.7333 97.9667 96 97.7H96.2C95.9333 97.9667 95.8 98.1667 95.8 98.3ZM100.6 91.3C100.6 91.1667 100.6 91.1 100.6 91.1L101.2 90.1C101.333 90.1 101.4 90.1667 101.4 90.3L100.8 91.3C100.8 91.3 100.733 91.3 100.6 91.3ZM110.4 124.9C110.267 124.633 109.867 124.167 109.2 123.5L110.6 123.3C110.867 123.567 110.867 123.9 110.6 124.3C110.467 124.567 110.4 124.767 110.4 124.9ZM114.8 72.9L113.2 74.9C113.333 74.3667 113.533 73.9 113.8 73.5C114.2 73.1 114.467 72.7667 114.6 72.5L114.8 72.9ZM122 37.1C120.933 36.8333 120.2 37.0333 119.8 37.7C120.2 38.1 120.6 38.1667 121 37.9C121.4 37.5 121.733 37.2333 122 37.1ZM121.6 35.9C121.333 35.9 121.133 36.1 121 36.5L122 37.1L122.4 36.1C122.133 35.9667 121.867 35.9 121.6 35.9ZM123.6 34.5C123.467 34.6333 123.4 34.8333 123.4 35.1L124.2 34.3C123.933 34.3 123.733 34.3667 123.6 34.5ZM128.6 22.5C128.6 22.6333 128.733 23.0333 129 23.7C129.133 23.4333 129.267 23.1667 129.4 22.9C129.533 22.6333 129.733 22.3667 130 22.1C129.2 22.2333 128.733 22.3667 128.6 22.5ZM132.4 17.1C132.267 17.1 131.933 17.1 131.4 17.1L132.2 16.1C132.467 16.6333 132.533 16.9667 132.4 17.1Z" fill="white"/>
</svg>
