<svg width="1027" height="792" viewBox="0 0 1027 792" fill="none" xmlns="http://www.w3.org/2000/svg">
<path d="M194.901 1.45519C189.844 2.9221 175.325 11.3976 163.254 19.873C156.402 24.5997 154.118 24.9257 133.401 24.2738C127.528 23.9478 122.471 24.7627 119.045 26.5556C116.272 28.0225 112.357 29.0005 110.399 28.6745C107.137 28.1855 107.789 27.2076 115.619 19.873C121.818 14.0054 124.102 10.7456 123.45 8.78973C122.797 7.32283 121.655 6.1819 120.513 6.1819C116.761 6.1819 101.59 23.9478 97.6751 32.7492C95.065 38.9428 92.7812 42.0396 90.8236 42.0396C89.1923 42.0396 81.0358 45.2994 72.553 49.3742C58.6869 56.0568 55.0981 58.8276 35.5224 78.0604C14.968 98.1081 13.9892 99.412 16.9255 101.531C18.72 102.835 20.6775 103.976 21.4932 103.976C24.2664 103.976 22.472 107.562 16.4361 114.244C13.0104 117.993 9.09528 123.209 7.79024 125.979C1.42815 138.367 3.05945 149.287 10.7266 147.331C16.1099 145.864 15.7836 147.494 7.79024 163.956C2.2438 175.202 0.775628 180.418 0.286237 188.73C-0.366285 198.999 -0.203155 199.488 4.03824 201.444C7.79024 203.237 8.27963 204.214 7.30084 207.963C5.18015 216.276 4.52763 230.782 6.32206 234.042C7.30084 235.834 11.216 238.442 14.968 239.746L21.9826 242.028L21.4932 249.526C20.8407 258.327 24.4295 265.336 33.728 273.485C38.9481 278.212 40.4163 278.701 49.5516 278.375C54.9349 278.212 59.992 278.049 60.6445 278.212C61.297 278.212 60.3182 281.635 58.5238 285.546C53.3036 297.445 59.5026 306.409 75.1631 309.343C84.7878 311.299 120.024 308.528 123.123 305.757C124.102 304.616 120.84 304.616 114.151 305.431C108.279 306.246 95.5544 306.898 85.9297 306.898C68.3116 306.898 68.1485 306.735 64.0702 302.171C60.8076 298.26 60.1551 296.304 61.1339 291.577C61.6233 288.317 62.2758 283.428 62.4389 280.82L62.7652 275.93L53.4668 276.419C43.5158 277.071 37.48 274.789 31.4441 268.269C26.7134 263.38 22.6351 253.111 23.777 250.015C25.7346 244.799 22.9614 239.583 17.0887 237.627C6.81145 234.205 3.71198 224.588 8.93215 212.038C12.3579 204.051 12.0316 202.259 6.97458 199.814C-1.67133 195.739 0.775628 180.907 13.3367 158.088C18.8831 148.146 18.3937 144.723 11.3791 144.723C6.97458 144.723 6.48519 144.234 6.48519 139.834C6.48519 132.825 10.0741 125.001 16.7624 117.667C24.4295 108.865 26.3871 104.954 24.1033 102.672C22.9614 101.531 21.1669 100.716 20.025 100.716C18.8831 100.716 17.9043 100.227 17.9043 99.575C17.9043 98.9231 26.8765 89.6327 37.9694 79.0383C55.7506 61.7614 59.6657 58.8276 74.5106 51.4931C93.1074 42.3656 94.7387 42.3656 97.6751 52.96C99.6327 59.8055 99.1433 61.2724 90.4974 74.6376C86.5822 80.5052 78.5888 94.8483 72.553 106.747C61.9495 127.446 61.4601 128.913 60.1551 144.234C59.3394 153.036 58.3607 162.815 57.7081 165.912C56.8925 171.454 57.3819 172.268 75.3262 190.523C85.4403 200.955 98.4907 213.016 104.363 217.417C110.236 221.654 119.535 229.152 125.244 233.879C134.053 241.213 140.252 244.473 140.252 241.865C140.252 241.05 116.598 221.98 100.775 210.082C86.9085 199.651 59.8288 169.661 61.1339 166.238C61.7864 164.608 62.9283 155.807 63.5808 146.679C64.8859 130.054 65.049 129.402 75.8156 108.376C81.8514 96.4782 90.1711 81.8092 94.0862 75.7785C101.264 65.0212 101.59 64.8582 104.527 67.4661C107.463 70.2369 107.789 70.0739 110.073 67.1401C112.846 63.3913 113.009 64.3692 110.726 71.2148C109.747 73.9856 108.115 76.2675 106.974 76.2675C105.505 76.2675 105.016 79.5273 105.179 86.8618C105.342 96.4782 105.832 97.9451 110.236 102.346C112.846 105.117 119.535 109.028 124.755 111.31C133.238 114.733 135.032 114.896 137.805 113.103C146.94 107.073 148.898 94.1964 145.309 64.8582C143.678 52.634 144.33 49.3742 149.224 45.2994C151.345 43.5066 152.487 43.6695 156.565 46.6034C159.175 48.5592 162.927 50.1891 164.885 50.1891C167.984 50.1891 167.821 50.8411 162.275 56.8717L156.076 63.7173L157.055 76.1045C158.523 95.9893 167.006 114.896 176.141 118.645C188.376 123.698 195.39 116.852 201.426 94.1964C201.589 93.7074 202.242 87.3508 202.894 80.0163C204.036 67.792 203.873 65.9991 200.284 58.9906C198.327 54.7528 194.575 50.0261 191.964 48.5592C187.723 45.9514 187.723 45.7884 190.659 43.0176C193.27 40.5727 193.759 40.5727 195.716 42.8546C198.163 45.7884 202.731 46.1144 201.915 43.1806C201.426 42.2026 199.632 41.0617 197.674 40.7357C195.39 40.4097 194.085 38.9428 194.085 36.987C194.085 32.9122 191.312 32.9122 190.007 36.987C189.518 38.7799 187.886 41.0617 186.418 42.3656C184.134 44.1585 183.808 44.1585 185.113 42.2026C185.766 41.0617 184.134 41.7137 181.361 43.6695C178.588 45.6254 175.325 46.9293 173.857 46.4404C172.063 45.7884 171.736 46.2774 172.389 48.0703C173.204 50.1891 172.878 50.3521 169.942 48.7222C167.984 47.5813 166.353 47.4183 166.353 48.0703C166.353 48.7222 165.374 48.2333 164.395 47.2553C162.764 45.6254 162.764 44.8105 164.722 43.6695C166.516 42.5286 166.516 42.0396 165.048 42.0396C163.906 42.0396 163.417 41.2247 163.906 40.4097C164.722 39.1058 165.7 39.1058 167.169 40.4097C168.8 41.7137 169.289 41.5507 168.963 39.7578C168.8 38.2909 168.147 36.824 167.658 36.172C167.006 35.683 166.842 34.3791 167.006 33.4012C167.332 32.2603 167.169 31.9343 166.842 32.5862C165.7 34.7051 161.133 34.0531 161.785 31.9343C162.927 28.8375 167.984 29.0005 171.41 32.4232C174.02 35.0311 174.346 36.172 172.715 38.1279C171.084 40.0838 171.247 40.2468 173.694 39.4318C175.815 38.6169 176.304 38.7799 175.488 40.0838C173.857 42.8546 176.141 42.3656 182.666 38.6169C185.766 36.824 186.907 35.846 185.113 36.498C177.609 38.9428 176.63 38.9428 175.488 36.172C174.999 34.7051 174.836 33.0752 175.325 32.5862C175.815 32.0973 176.141 32.5862 176.141 33.5642C176.141 34.7051 177.283 35.5201 178.751 35.5201C181.035 35.5201 181.035 35.0311 179.403 33.0752C178.262 31.6083 176.304 30.7934 174.999 31.2823C173.857 31.7713 172.878 31.4453 172.878 30.4674C172.878 28.8375 181.035 29.3264 184.134 31.2823C184.95 31.7713 185.929 31.6083 186.255 30.6304C186.744 29.0005 196.695 33.2382 201.263 36.987C202.405 37.9649 204.689 43.3436 206.32 48.8852C208.114 54.5899 209.909 59.4796 210.398 59.9685C210.888 60.4575 213.661 65.5102 216.434 71.3778C222.307 83.439 228.995 92.2405 230.463 89.7956C230.953 88.9807 229.648 84.906 227.364 80.9942C220.839 69.2589 212.519 51.4931 210.398 44.4845C209.256 40.8987 206.646 36.009 204.526 33.7272C200.447 29.4894 200.61 26.8816 204.852 28.5115C206.157 29.0005 207.788 27.6965 208.93 25.0887C211.051 20.362 213.498 19.71 216.76 22.8069C218.065 23.9478 218.555 24.1108 218.065 23.2958C217.576 22.3179 217.739 20.525 218.718 19.2211C219.86 17.1022 220.186 17.1022 220.186 19.2211C220.186 21.3399 220.349 21.3399 221.98 19.2211C223.286 17.4282 223.938 17.2652 224.591 18.7321C225.406 21.177 229.974 21.6659 229.974 19.3841C229.974 18.5691 228.995 17.1022 227.69 16.1243C224.591 13.5164 211.214 18.2431 204.199 24.2738C201.263 26.8816 197.674 29.0005 196.043 29.0005C188.702 28.8375 215.292 12.7015 222.959 12.7015C228.343 12.7015 231.605 14.3314 231.605 17.1022C231.605 20.851 225.08 30.6304 222.633 30.6304C221.491 30.6304 219.697 31.7713 218.555 33.0752C215.782 36.498 218.065 36.009 227.527 31.4453C236.499 27.0446 249.55 25.9037 252.486 29.4894C253.791 30.9563 253.628 32.7492 252.16 35.846C250.855 38.2909 250.365 40.7357 250.855 41.2247C251.507 41.8767 250.855 42.2026 249.55 42.0396C248.244 41.8767 245.961 41.7137 244.656 41.8767C242.535 42.0396 242.535 42.2026 244.656 43.6695C246.613 44.8105 246.45 45.7884 243.024 49.5372L238.946 53.9379L244.329 51.1671C250.855 47.9073 256.401 39.2688 255.096 34.7051C254.117 31.6083 254.28 31.6083 256.89 34.0531C259.174 36.335 259.337 37.4759 257.706 40.5727C254.933 45.9514 247.755 53.4489 245.471 53.4489C244.329 53.4489 242.209 54.9158 240.577 56.7087C237.315 60.2945 233.4 61.2724 236.336 57.6867C237.641 56.2198 237.641 54.2639 236.662 51.656C235.52 49.0482 235.031 48.5592 235.031 50.5151C234.868 51.982 234.378 53.4489 233.726 53.9379C232.91 54.2639 233.4 54.2639 234.542 54.1009C235.52 53.7749 236.499 54.2639 236.499 55.0788C236.499 57.5237 230.953 57.8497 228.016 55.5678C226.059 53.7749 225.08 53.6119 224.101 55.2418C223.449 56.3827 223.612 56.8717 224.591 56.2198C225.569 55.5678 227.201 56.2198 228.179 57.3607C229.484 58.9906 229.648 59.9685 228.343 60.7835C227.527 61.2724 226.711 60.9465 226.711 60.1315C226.711 59.1536 225.732 58.3386 224.427 58.3386C223.122 58.3386 221.654 57.3607 221.328 56.2198C220.675 54.7528 220.349 54.7528 220.349 56.3827C220.186 57.5237 219.37 58.0126 218.392 57.5237C217.413 56.8717 217.576 57.8497 218.718 59.6425C220.349 62.2504 221.328 62.5764 222.959 61.2724C224.591 59.9685 225.08 60.4575 225.08 63.8803C225.08 68.933 228.343 69.5849 229.484 64.8582C229.974 63.0653 231.116 61.5984 231.931 61.5984C232.747 61.5984 232.91 60.6205 232.258 59.4795C231.442 58.0126 231.605 58.0126 233.236 59.4795C235.031 61.2724 234.868 62.2504 231.931 65.3472C225.08 72.5187 229.158 84.58 241.882 95.9893C252.486 105.28 253.954 110.821 256.075 147.983C258.359 191.338 258.359 190.686 257.054 209.919C255.748 227.522 259.5 283.102 262.763 294.837C263.579 298.097 266.026 302.008 268.31 303.475C274.835 307.713 276.792 306.409 270.92 301.519C264.721 296.467 262.926 289.132 261.784 265.173L261.132 251.319H266.352C269.288 251.319 277.608 250.83 285.112 250.015C294.737 249.037 298.489 249.2 298.489 250.504C298.489 251.482 295.879 257.512 292.779 263.869L286.906 275.278L290.495 281.146C292.453 284.242 296.205 288.154 298.815 289.621L303.383 292.555L297.347 295.326C293.921 296.793 287.885 299.075 283.807 300.215C277.282 302.334 276.955 302.497 281.36 302.66C284.133 302.66 292.127 300.052 299.304 296.793C312.192 290.925 312.681 290.925 340.087 289.947C369.94 288.806 369.45 288.969 387.232 277.56C401.587 268.269 403.382 264.684 401.261 248.548C400.445 243.006 398.977 230.456 397.998 220.676C397.019 210.897 395.388 201.444 394.572 199.814C391.473 194.109 382.175 191.501 365.372 191.664C337.477 191.827 305.014 197.858 287.722 206.007C279.076 210.082 275.65 210.571 265.373 208.778C259.174 207.8 259.011 207.637 260.153 202.096C261.458 194.924 258.032 125.653 255.748 113.918C254.28 106.258 252.649 103.487 242.861 93.2184C236.825 86.8618 231.279 79.5273 230.626 77.2454C229.158 71.3778 235.031 62.5764 244.003 57.3607C257.543 49.3742 263.416 39.1058 258.522 31.7713C255.096 26.3926 247.755 23.9478 238.783 25.2517L231.442 26.2296L233.236 21.8289C235.357 16.1243 232.91 11.0716 227.853 10.9086C221.328 10.5826 216.108 11.3976 214.64 12.8645C213.661 13.6794 211.703 14.3314 210.072 14.3314C207.625 14.3314 207.462 13.8424 209.093 10.0937C210.888 6.34489 210.724 5.36695 207.299 2.75911C203.22 -0.663673 202.079 -0.663673 194.901 1.45519ZM204.362 3.57406C208.767 6.99685 207.788 10.0937 199.468 19.2211L191.801 27.6965L180.545 26.8816C174.346 26.3926 168.963 25.5777 168.474 25.2517C167.658 24.4368 172.389 21.3399 174.999 21.014C176.63 20.851 176.63 18.5691 174.836 17.9172C174.183 17.7542 171.41 19.3841 168.963 21.6659C166.516 23.9478 163.743 25.7407 162.601 25.7407C159.991 25.5777 171.41 15.9613 174.02 15.9613C175.162 15.9613 176.141 15.3093 176.141 14.4944C176.141 13.6794 180.382 11.0716 185.602 8.62674C190.659 6.01891 196.043 3.41107 197.348 2.75911C200.61 0.966225 200.937 1.12922 204.362 3.57406ZM110.236 32.2603C111.541 32.2603 112.357 32.9122 111.867 33.5642C111.541 34.2161 112.52 34.8681 114.151 35.0311C115.946 35.1941 117.74 34.7051 118.23 33.7272C118.882 32.9122 117.903 32.7492 116.272 33.4012C113.172 34.5421 113.336 34.2161 118.066 30.6304C120.187 29.0005 120.84 29.0005 120.024 30.1414C119.371 31.2823 119.535 32.2603 120.513 32.2603C121.329 32.2603 122.308 31.4453 122.634 30.6304C123.287 28.3485 133.727 27.0446 133.727 29.0005C133.727 29.9784 132.911 30.6304 131.769 30.6304C130.791 30.6304 130.464 31.1193 130.954 31.7713C131.606 32.2603 130.791 33.7272 129.159 35.0311C127.691 36.335 127.365 36.987 128.507 36.335C130.627 35.3571 131.28 37.4759 129.322 39.2688C128.833 39.9208 127.365 38.9428 126.06 37.15C124.755 35.3571 122.797 33.8902 121.818 34.0531C120.35 34.0531 120.35 34.3791 121.982 35.0311C124.265 35.846 124.755 38.9428 122.471 38.2909C121.655 38.1279 119.861 39.4318 118.556 41.2247C116.109 44.4845 116.109 44.4845 112.357 41.2247C110.236 39.4318 109.42 39.1058 110.399 40.4097C112.031 42.5286 111.378 42.8546 106.647 42.6916C103.548 42.5286 100.611 43.1806 99.9589 44.1585C99.3064 45.1365 99.7958 45.2994 101.264 44.4845C102.569 43.6695 103.058 43.6695 102.406 44.4845C101.753 45.1365 101.916 46.7663 102.895 47.9073C103.874 49.2112 104.2 51.4931 103.711 52.96C102.895 55.4048 103.058 55.4048 105.179 52.797C107.626 49.7002 107.626 49.7002 107.626 53.123C107.626 55.0788 106.81 56.7087 105.832 56.7087C104.853 56.7087 105.342 57.8497 106.647 59.3166C109.91 62.5764 109.91 63.5543 106.484 62.9023C105.016 62.5764 103.711 61.2724 103.385 59.9685C101.427 49.8632 100.611 47.4183 98.3276 44.9735C96.37 42.6916 96.2069 42.0396 97.8382 42.0396C98.9801 42.0396 99.4695 41.5507 98.9801 41.0617C98.4907 40.4097 98.817 38.4539 99.7958 36.498C101.753 33.0752 102.08 32.0973 102.569 28.8375C102.569 27.8595 103.874 28.3485 105.342 29.6524C106.647 31.1193 108.931 32.2603 110.236 32.2603ZM160.807 28.5115C160.154 29.3264 159.338 29.4894 159.175 29.0005C159.012 28.5115 157.707 29.3264 156.239 30.6304C154.771 31.9343 153.955 33.5642 154.281 34.2161C154.608 34.8681 154.281 35.683 153.629 36.172C152.813 36.661 152.324 35.0311 152.65 32.5862C152.813 30.1414 152.976 28.1855 153.139 28.1855C155.586 27.3706 161.622 27.6965 160.807 28.5115ZM148.409 31.4453C150.692 34.2161 148.898 40.2468 143.678 46.4404C141.068 49.7002 140.089 49.8632 134.869 48.2333L128.996 46.4404L132.096 42.3656C133.89 40.0838 135.358 37.15 135.358 35.683C135.358 29.4894 144.33 26.5556 148.409 31.4453ZM164.232 36.172C168.637 36.987 167.658 38.2909 162.927 38.1279C159.991 37.9649 157.381 36.987 156.891 35.683C156.402 34.0531 156.891 33.7272 159.175 34.5421C160.97 35.3571 163.09 36.009 164.232 36.172ZM157.218 41.3877C158.196 43.8325 157.87 43.8325 155.423 41.8767C153.792 40.7357 152.161 39.4318 151.834 39.2688C151.508 38.9428 152.324 38.7799 153.629 38.7799C155.097 38.7799 156.728 39.9208 157.218 41.3877ZM123.287 44.6475C121.492 45.7884 119.698 46.4404 119.208 45.9514C118.719 45.4624 119.698 43.9955 121.329 42.6916C123.123 41.5507 124.918 40.8987 125.407 41.3877C125.897 41.8767 124.918 43.3436 123.287 44.6475ZM163.09 42.6916C163.09 43.1806 162.438 43.9955 161.459 44.4845C160.643 44.9735 159.828 44.6475 159.828 43.8325C159.828 42.8546 160.643 42.0396 161.459 42.0396C162.438 42.0396 163.09 42.3656 163.09 42.6916ZM111.704 46.9293C112.194 47.7443 111.215 48.5592 109.42 48.5592C107.463 48.5592 105.995 47.7443 105.995 46.9293C105.995 45.9514 106.974 45.2994 108.279 45.2994C109.584 45.2994 111.215 45.9514 111.704 46.9293ZM198.49 61.1095C200.774 65.8362 202.242 70.7258 201.752 72.0298C200.284 75.9415 188.539 78.3864 181.361 76.2675C178.098 75.4526 171.899 74.6376 167.658 74.6376C160.154 74.6376 159.828 74.4746 159.828 69.9109C159.828 63.3913 166.842 55.4048 176.793 50.8411C184.624 47.2553 185.113 47.2553 189.518 49.8632C192.128 51.3301 196.043 56.3827 198.49 61.1095ZM120.513 50.0261C122.145 51.1671 121.655 51.4931 118.556 51.3301C116.272 51.1671 114.804 50.5151 115.293 49.7002C116.272 48.2333 117.74 48.2333 120.513 50.0261ZM139.763 55.2418C140.905 57.3607 141.883 61.1095 141.883 63.5543C141.883 67.3031 140.742 68.281 132.911 71.2148C128.017 73.1707 121.003 75.1266 117.414 75.6155L110.726 76.7565L112.52 72.0298C120.35 51.656 133.727 43.3436 139.763 55.2418ZM115.456 58.9906C113.336 63.0653 113.172 63.0653 111.215 59.9685C109.42 57.0347 109.584 56.3827 112.846 55.2418C117.74 53.4489 118.066 53.9379 115.456 58.9906ZM144.33 80.3422C145.799 94.1964 142.047 108.213 136.174 110.821C132.748 112.288 130.627 111.962 122.96 108.05C113.009 102.998 107.626 96.3152 107.626 88.8177C107.626 80.9942 110.236 77.8974 117.088 77.8974C120.35 77.7344 127.202 75.9415 132.096 73.8227C136.99 71.7038 141.557 69.9109 142.047 69.9109C142.699 69.7479 143.678 74.4746 144.33 80.3422ZM193.433 78.8753C199.958 78.0604 200.121 78.0604 200.284 82.9501C200.447 90.2846 194.411 109.028 190.333 113.266C188.539 115.385 185.602 117.015 183.971 117.015C177.446 117.015 164.232 107.073 167.658 104.954C168.474 104.465 167.495 100.716 165.374 96.3152C163.254 92.2405 161.459 86.0469 161.459 82.7871V76.9195L174.183 78.3864C181.035 79.0383 189.681 79.3643 193.433 78.8753ZM383.48 195.25C386.742 196.228 390.331 198.021 391.473 199.162C393.594 201.933 398.324 238.116 398.651 254.578L398.814 265.988L390.657 272.344C375.16 284.405 367.003 287.176 345.47 287.828C329.483 288.317 326.221 288.154 326.221 286.198C326.221 284.079 324.916 284.242 317.738 286.687C313.007 288.317 307.461 289.621 305.503 289.784C301.914 289.784 290.332 279.842 290.332 276.582C290.332 275.604 293.268 268.921 296.857 261.587C303.872 246.918 305.503 245.451 338.456 226.055C346.612 221.328 356.4 214.972 360.315 212.038C365.046 208.452 369.287 206.659 372.876 206.659C375.812 206.659 378.749 205.844 379.401 204.703C380.217 203.4 378.423 203.237 372.876 203.888C367.493 204.703 362.925 206.659 358.358 210.571C354.606 213.505 347.265 218.395 342.208 221.328L332.746 226.544V221.002C332.746 218.069 333.399 213.342 334.214 210.408C336.009 204.214 335.193 203.074 329.973 205.192C323.937 207.474 289.19 209.104 291.148 206.985C294.247 203.725 322.632 197.532 346.612 194.598C357.542 193.457 377.933 193.783 383.48 195.25ZM330.136 219.047L328.994 228.663L315.128 237.464C304.688 244.31 299.631 246.429 294.574 246.592C290.822 246.755 282.502 247.407 276.14 248.222C259.827 250.015 259.337 249.363 259.337 229.152V213.016L262.926 215.461C267.82 219.047 273.367 218.721 279.729 214.809C283.97 212.201 285.928 211.875 289.516 213.179C292.29 214.32 294.737 214.32 296.857 213.179C298.489 212.364 305.666 211.549 312.681 211.549C319.696 211.549 326.547 210.897 327.852 209.919C331.278 207.8 331.441 208.452 330.136 219.047ZM272.877 211.712L279.729 211.875L274.998 213.831C269.615 216.276 265.21 215.624 262.274 211.875C260.479 209.756 260.642 209.43 263.089 210.408C264.721 211.06 269.125 211.549 272.877 211.712ZM295.715 211.06C294.574 211.386 292.616 211.386 291.637 211.06C290.495 210.571 291.311 210.245 293.595 210.245C295.879 210.245 296.694 210.571 295.715 211.06Z" fill="white"/>
<path d="M185.602 10.4197C177.935 14.3314 176.304 16.4503 179.403 18.4062C180.382 19.0581 180.545 18.2432 179.893 16.6133C179.24 14.8204 179.567 14.1684 180.545 14.8204C182.829 16.2873 191.149 12.0496 189.518 10.2567C188.865 9.44172 189.681 9.44172 191.312 9.93069C193.106 10.5826 194.085 10.0937 194.085 8.62677C194.085 5.69296 194.901 5.52997 185.602 10.4197Z" fill="white"/>
<path d="M199.958 8.78974C199.468 9.93067 200.284 10.4196 202.405 9.93067C205.994 8.95273 206.646 6.67087 203.057 6.67087C201.752 6.67087 200.447 7.64881 199.958 8.78974Z" fill="white"/>
<path d="M105.016 34.0532C104.527 35.0311 104.853 36.661 105.832 37.6389C107.3 39.1058 107.463 38.7799 106.647 36.498C105.668 34.0532 105.995 33.7272 107.626 34.7051C109.094 35.5201 109.42 35.3571 108.605 34.2161C107.137 31.7713 106.484 31.7713 105.016 34.0532Z" fill="white"/>
<path d="M132.911 87.6768C132.422 88.4917 130.627 89.3067 128.996 89.3067C127.365 89.3067 125.57 90.7736 125.081 92.5665C123.939 96.8042 126.386 107.399 128.996 109.028C134.216 112.125 140.252 103.487 140.252 92.5665C140.252 87.1878 139.763 86.0469 137.153 86.0469C135.358 86.0469 133.401 86.6989 132.911 87.6768ZM132.422 92.8925C129.975 95.3373 129.812 98.1081 132.096 96.6412C133.074 95.9893 133.564 96.4782 133.401 97.7822C133.074 98.9231 133.89 99.738 135.032 99.4121C137.805 98.9231 137.479 99.738 133.89 102.998C130.791 105.769 130.791 105.769 131.606 102.183C132.259 100.064 131.932 98.9231 130.954 99.575C130.138 100.064 129.322 99.2491 129.322 97.7822C129.322 95.0113 131.769 90.9366 133.401 90.9366C133.89 90.9366 133.564 91.7515 132.422 92.8925ZM137.805 94.0334C138.295 94.8483 137.968 95.9893 136.99 96.6412C136.174 97.1302 135.358 96.4782 135.358 95.1743C135.358 92.2405 136.337 91.7515 137.805 94.0334Z" fill="white"/>
<path d="M174.346 88.9807C174.346 92.2405 174.02 96.3153 173.694 97.9452C173.041 101.368 182.014 110.332 186.092 110.495C189.191 110.495 190.823 105.932 190.823 96.4782C190.823 87.8398 187.886 84.091 180.545 83.4391C174.673 82.9501 174.51 83.1131 174.346 88.9807ZM186.744 91.0996C186.418 92.7295 186.907 94.1964 187.886 94.1964C188.865 94.1964 189.191 94.6854 188.539 95.3373C187.886 96.1523 186.255 95.1743 184.95 93.5444C183.155 91.0996 182.34 90.7736 180.382 92.4035C178.588 93.8704 177.772 93.8704 176.793 92.4035C175.162 89.7957 180.382 86.2099 184.297 87.1878C186.255 87.6768 187.071 89.1437 186.744 91.0996ZM183.808 100.064C182.992 104.628 183.971 104.954 187.071 101.042C189.191 98.5971 189.191 98.5971 187.56 101.857C185.602 105.932 184.134 106.421 181.524 103.813C179.567 101.857 180.708 93.8704 182.992 95.1743C183.808 95.8263 184.297 97.9452 183.808 100.064Z" fill="white"/>
<path d="M179.403 89.3067C177.935 90.2846 177.772 90.9366 178.914 90.9366C179.893 90.9366 181.361 90.1216 181.85 89.3067C183.155 87.3508 182.503 87.3508 179.403 89.3067Z" fill="white"/>
<path d="M211.214 25.7407C210.724 26.7186 211.377 27.8595 212.682 28.3485C214.15 28.8375 215.292 29.9784 215.292 30.7934C215.292 33.0752 210.724 32.5862 209.909 30.1414C209.256 28.6745 208.93 28.6745 208.93 30.1414C208.767 31.1193 209.419 32.4233 210.398 33.0752C211.214 33.5642 211.54 35.0311 210.888 36.335C210.398 37.6389 210.724 38.9429 211.377 38.9429C217.739 39.9208 220.186 39.7578 220.186 38.2909C220.186 37.4759 218.718 37.15 216.923 37.6389C213.008 38.6169 212.682 36.009 216.271 32.0973C218.555 29.4894 218.555 29.1635 215.455 28.1855C213.498 27.6966 212.356 26.3926 212.845 25.5777C213.498 24.7627 213.498 24.1108 213.008 24.1108C212.519 24.1108 211.703 24.9257 211.214 25.7407Z" fill="white"/>
<path d="M233.726 30.6304C231.605 31.4453 229.974 32.9122 229.974 33.7272C229.974 35.8461 234.868 34.8681 236.499 32.4233C237.152 31.1193 238.62 30.7934 239.762 31.4453C241.23 32.2603 241.556 32.0973 240.74 30.9564C239.435 28.6745 238.62 28.6745 233.726 30.6304Z" fill="white"/>
<path d="M243.514 31.7713C243.514 33.2382 244.166 33.4012 245.634 32.0973C248.081 30.1414 250.365 32.9122 248.571 35.846C247.755 37.4759 247.918 37.4759 249.386 36.172C250.365 35.1941 250.855 33.2382 250.365 31.7713C249.06 28.8375 243.514 28.6745 243.514 31.7713Z" fill="white"/>
<path d="M224.427 35.3571C223.938 36.172 224.427 37.15 225.569 37.6389C226.874 38.1279 227.853 37.476 227.853 36.172C227.853 33.5642 225.732 33.0752 224.427 35.3571Z" fill="white"/>
<path d="M237.478 43.1806C236.499 45.4624 236.662 45.6254 238.294 44.1585C239.435 43.0176 239.925 41.7137 239.435 41.2247C238.946 40.7357 237.967 41.5507 237.478 43.1806Z" fill="white"/>
<path d="M239.109 47.9073C238.294 50.1891 238.457 50.3521 240.577 48.5592C243.351 46.2774 243.677 45.2995 241.556 45.2995C240.74 45.2995 239.599 46.4404 239.109 47.9073Z" fill="white"/>
<path d="M152.65 117.178C144.494 117.993 138.784 119.46 136.826 121.253C135.032 122.883 134.053 124.349 134.543 124.838C135.032 125.327 134.543 126.631 133.727 127.609C132.585 129.076 133.074 129.565 135.848 129.402C139.273 129.239 142.047 125.979 138.784 125.979C137.968 125.979 136.663 125.327 135.848 124.675C135.195 123.861 135.358 123.372 136.174 123.535C139.273 124.186 142.047 123.535 141.394 122.231C140.905 121.579 142.21 120.927 144.004 120.927C145.962 120.764 150.856 120.112 154.771 119.623C160.807 118.645 161.785 118.808 160.97 120.927C160.317 122.394 160.643 123.535 161.296 123.535C162.112 123.535 163.09 122.72 163.417 121.742C163.906 120.438 165.048 120.764 166.842 122.557C168.311 124.186 169.616 124.675 169.616 123.698C169.616 122.883 168.474 121.09 167.169 119.786C165.864 118.482 165.374 117.015 165.864 116.363C166.516 115.874 166.516 115.548 166.19 115.548C165.864 115.711 159.828 116.363 152.65 117.178Z" fill="white"/>
<path d="M205.504 119.297C205.504 120.601 203.547 123.046 201.1 124.838C196.858 127.935 196.695 128.261 198.979 134.781C200.447 139.345 201.589 140.811 202.405 139.508C203.22 138.367 202.731 135.922 201.426 133.966C199.468 130.869 199.632 130.217 204.036 126.305C208.604 122.231 210.398 117.015 207.136 117.015C206.32 117.015 205.504 117.993 205.504 119.297Z" fill="white"/>
<path d="M124.592 124.838C121.003 128.098 111.867 136.248 104.69 142.767C96.6963 149.939 91.313 155.97 91.313 157.925C91.313 162 91.4761 161.837 107.463 156.133C126.06 149.287 127.039 150.428 118.882 168.846C115.456 176.669 112.52 184.004 112.52 184.982C112.52 189.219 121.818 186.449 127.691 180.418C129.322 178.625 132.096 177.321 133.89 177.321C135.684 177.321 139.763 176.18 143.188 174.876C148.735 172.431 149.387 172.431 151.182 175.039C154.281 179.277 153.792 196.065 150.366 210.082C148.572 216.765 146.125 227.196 144.657 233.553C141.72 246.755 139.6 278.375 141.72 278.375C143.841 278.375 145.146 269.247 144.983 253.926C144.983 244.31 145.962 237.301 148.082 231.108C149.877 226.218 152.813 214.483 154.934 205.192C158.033 190.686 158.36 186.938 156.728 180.092C154.281 169.661 154.281 169.987 159.012 166.89C162.764 164.445 163.417 164.445 169.452 167.705C174.836 170.476 176.467 170.639 179.73 169.009C186.581 165.423 187.723 161.837 182.34 160.533C180.382 159.881 179.24 159.066 179.893 158.414C181.198 157.11 174.836 149.613 172.552 149.613C171.41 149.613 161.785 143.908 156.728 140.323C156.239 139.997 158.36 137.389 161.296 134.292C165.7 129.728 166.19 128.587 164.069 126.957C162.112 125.327 161.785 125.49 162.601 128.261C163.254 130.869 162.764 131.684 159.991 131.684C158.196 131.684 155.586 133.477 154.118 135.433C151.345 139.671 145.146 143.093 140.415 143.093C138.784 143.093 136.5 144.071 135.521 145.375C134.543 146.516 129.322 147.983 124.102 148.472C118.882 148.798 111.215 150.754 107.137 152.547C103.058 154.34 99.4695 155.481 98.9801 155.155C98.0014 154.177 109.747 142.278 120.187 133.966C129.975 126.142 133.727 122.231 133.727 119.949C133.727 117.504 131.28 118.808 124.592 124.838ZM163.58 147.331C168.474 150.591 169.452 151.895 167.984 153.688C166.353 155.644 165.374 155.481 161.133 152.873C157.218 150.591 155.26 150.265 151.671 151.569C148.409 152.547 145.962 152.547 143.678 151.243C139.11 148.798 139.436 147.005 144.82 145.049C152.161 142.278 157.055 142.93 163.58 147.331ZM148.898 155.97C154.934 158.903 159.828 161.837 159.828 162.489C159.828 164.119 154.934 166.564 143.515 170.802C138.621 172.757 130.954 176.017 126.549 178.299C122.308 180.581 118.393 182.048 117.903 181.722C117.577 181.233 119.371 176.017 122.145 170.15C124.918 164.282 127.202 159.229 127.202 158.74C127.202 158.251 127.854 156.133 128.833 153.851C130.791 148.635 134.543 148.961 148.898 155.97ZM160.643 154.992C162.764 156.784 163.09 157.599 161.622 158.577C160.317 159.229 158.196 158.414 156.076 156.295C153.303 153.688 153.139 152.873 155.097 152.873C156.402 152.873 158.849 153.851 160.643 154.992ZM177.772 159.229L181.198 164.119L177.772 165.912C174.999 167.379 173.368 167.216 170.268 165.097C165.7 162.163 165.211 158.577 169.289 156.295C173.368 153.851 174.02 154.014 177.772 159.229Z" fill="white"/>
<path d="M130.464 157.762C130.464 158.577 131.28 159.392 132.096 159.392C133.074 159.392 133.727 158.577 133.727 157.762C133.727 156.784 133.074 156.132 132.096 156.132C131.28 156.132 130.464 156.784 130.464 157.762Z" fill="white"/>
<path d="M137.968 168.683C137.316 170.476 137.805 170.476 140.252 169.172C144.167 167.053 144.33 166.401 141.068 166.401C139.763 166.401 138.458 167.379 137.968 168.683Z" fill="white"/>
<path d="M126.06 170.313C126.712 170.802 126.223 172.431 125.081 173.898C123.287 176.18 123.45 176.18 125.897 174.224C128.507 172.268 128.507 169.172 126.06 169.172C125.407 169.172 125.57 169.661 126.06 170.313Z" fill="white"/>
<path d="M171.899 125.816C171.899 127.935 172.552 129.402 173.368 128.913C175.488 127.609 178.098 137.226 177.283 143.419C176.304 150.591 178.751 151.732 180.382 145.212C181.198 142.278 180.382 137.552 178.425 131.847C174.999 122.394 171.41 119.134 171.899 125.816Z" fill="white"/>
<path d="M154.608 128.913C151.508 132.01 149.877 132.499 147.756 131.358C146.125 130.543 144.494 130.217 144.004 130.706C143.352 131.195 143.841 131.684 144.983 131.684C146.125 131.684 146.451 132.336 145.962 133.314C145.309 134.292 146.125 134.455 147.919 133.966C150.04 133.314 149.714 133.966 146.777 136.574C144.494 138.53 143.841 139.508 145.309 138.693C149.551 136.574 160.317 126.631 159.338 125.816C158.849 125.327 156.728 126.794 154.608 128.913Z" fill="white"/>
<path d="M188.702 130.38C185.766 136.085 185.113 151.895 187.886 150.265C188.865 149.613 189.191 146.353 188.702 143.093C188.212 138.693 188.865 135.596 190.986 132.336C194.248 127.283 194.901 125.164 192.78 125.164C192.128 125.164 190.333 127.609 188.702 130.38Z" fill="white"/>
<path d="M172.226 133.803C172.715 135.433 173.694 136.248 174.183 135.759C174.673 135.27 174.183 133.966 173.041 132.825C171.41 131.358 171.247 131.521 172.226 133.803Z" fill="white"/>
<path d="M118.719 137.552C116.924 140.322 121.492 144.234 126.875 144.397C129.812 144.397 131.769 143.908 131.28 143.093C130.791 142.441 128.507 141.952 126.223 142.278C123.287 142.604 121.655 141.789 120.84 139.345C120.187 137.552 119.208 136.737 118.719 137.552Z" fill="white"/>
<path d="M122.308 137.226C122.308 137.552 123.45 138.204 124.755 138.856C126.06 139.345 127.202 139.019 127.202 138.204C127.202 137.226 126.06 136.574 124.755 136.574C123.45 136.574 122.308 136.9 122.308 137.226Z" fill="white"/>
<path d="M164.069 139.671C163.417 140.485 163.743 141.626 164.559 142.115C165.374 142.767 166.516 142.441 167.006 141.626C167.658 140.811 167.332 139.671 166.516 139.182C165.7 138.53 164.559 138.856 164.069 139.671Z" fill="white"/>
<path d="M169.452 142.604C167.332 145.212 167.495 145.375 170.105 143.256C171.573 141.952 173.531 141.463 174.02 142.115C174.673 142.767 174.183 144.071 172.878 144.886C170.758 146.353 170.758 146.516 172.878 145.864C176.141 145.049 177.12 139.834 174.02 139.834C172.715 139.834 170.594 141.137 169.452 142.604Z" fill="white"/>
<path d="M110.073 144.886C109.42 145.864 109.257 146.842 109.747 147.331C110.073 147.82 110.889 147.005 111.378 145.538C112.52 142.767 111.541 142.278 110.073 144.886Z" fill="white"/>
<path d="M113.499 146.19C112.846 147.005 113.988 147.331 115.783 146.842C119.535 145.864 120.024 144.723 116.761 144.723C115.456 144.723 113.988 145.375 113.499 146.19Z" fill="white"/>
<path d="M252.323 195.087C251.833 197.532 251.67 201.118 252.16 202.911C252.812 205.355 252.16 206.496 249.55 207.148C247.592 207.637 245.634 209.593 245.145 211.386C244.492 214.157 243.024 214.809 237.804 214.809C232.747 214.809 231.116 215.461 230.463 217.906C229.811 220.187 227.527 221.165 220.186 221.98C214.476 222.632 208.93 224.425 206.483 226.381C203.22 228.989 201.589 229.315 199.142 228.011C194.575 225.566 188.212 225.892 182.503 228.826C178.751 230.619 176.304 230.945 173.041 229.804C169.942 228.663 167.495 228.826 164.722 230.293C161.296 232.086 160.154 231.923 156.239 229.152C151.671 225.892 149.714 227.522 153.955 230.945C155.26 231.923 156.565 235.02 156.891 237.627C157.707 242.517 155.913 244.147 149.877 244.147C148.246 244.147 146.777 244.799 146.777 245.777C146.777 247.733 154.281 247.896 157.87 245.94C159.665 244.962 163.743 245.125 168.8 246.266L176.956 248.222L176.63 256.371C176.467 260.772 176.304 265.825 176.304 267.292C176.141 268.921 175.488 270.225 174.51 270.225C173.694 270.225 173.368 269.084 173.857 267.78C174.673 265.988 174.183 265.662 172.226 266.314C169.126 267.455 168.963 269.084 171.247 276.582C172.715 281.961 172.715 281.961 169.616 279.19C167.821 277.56 166.353 275.278 166.353 274.3C166.353 273.159 165.211 271.366 163.906 270.225C161.785 268.432 161.459 268.921 161.459 273.648C161.459 282.45 159.175 284.242 155.26 278.864C151.345 273.485 149.061 274.463 151.998 280.168C158.36 292.229 163.09 294.185 163.09 284.731C163.09 282.124 163.906 280.005 164.722 280.005C165.7 280.005 166.353 280.82 166.353 281.798C166.353 282.613 167.006 283.102 167.658 282.613C168.474 282.124 168.963 283.428 168.963 285.383C168.8 290.925 173.531 289.784 174.51 284.079L175.325 279.353L178.751 283.59C183.482 289.621 198.979 293.044 198.979 287.991C198.979 287.176 197.185 286.524 195.064 286.524C185.929 286.524 174.999 279.353 183.155 278.864C187.071 278.538 192.291 272.507 192.454 268.106C192.454 266.477 190.659 264.521 188.539 263.706C186.418 262.891 184.134 261.424 183.482 260.446C182.992 259.631 181.85 259.142 181.361 259.468C180.708 259.794 180.382 257.349 180.708 253.926C181.361 247.244 182.503 246.429 191.475 245.94C194.085 245.94 198 244.636 200.284 243.169C203.384 241.213 205.178 241.05 209.093 242.354C216.434 244.962 221.328 244.636 228.179 241.05C231.442 239.42 236.499 236.975 239.435 235.834C242.535 234.857 246.124 231.923 247.592 229.641C249.06 227.359 251.507 224.588 252.812 223.447C254.933 221.654 254.77 221.491 251.507 221.328C246.45 221.328 245.145 216.928 249.06 212.69C254.117 207.311 256.075 202.748 254.443 200.14C253.628 198.836 253.628 196.717 254.607 195.087C256.401 191.501 256.401 190.36 254.607 190.36C253.791 190.36 252.812 192.479 252.323 195.087ZM243.677 223.447C245.634 228.826 243.187 231.76 235.683 233.227C233.073 233.879 231.605 233.879 232.747 233.39C234.052 232.901 234.378 230.782 233.726 227.848C232.421 221.165 234.215 217.743 238.457 218.395C240.74 218.721 242.698 220.676 243.677 223.447ZM227.364 227.196C231.442 231.271 230.463 235.183 224.754 237.79C219.207 240.398 210.888 240.398 208.604 238.116C207.951 237.464 207.136 235.346 206.809 233.716C206.483 231.108 207.951 229.804 213.661 227.685C222.959 224.099 224.264 223.936 227.364 227.196ZM200.447 234.205C203.057 238.768 198.49 241.539 188.376 241.865C180.545 242.028 179.893 241.865 180.545 238.605C182.177 231.434 182.503 231.108 190.659 231.108C197.022 231.108 199.305 231.76 200.447 234.205ZM174.183 235.346C180.872 239.909 178.751 242.68 168.963 242.354C161.296 242.028 160.317 241.539 161.133 238.931C161.622 237.138 163.417 235.02 165.374 234.368C170.105 232.412 170.105 232.412 174.183 235.346ZM187.56 268.595C187.56 272.833 179.73 278.212 177.935 275.278C177.12 274.137 177.446 271.366 178.425 269.247C180.708 264.358 187.56 263.706 187.56 268.595ZM176.141 275.767C176.141 276.256 175.488 277.071 174.51 277.56C173.694 278.049 172.878 277.723 172.878 276.908C172.878 275.93 173.694 275.115 174.51 275.115C175.488 275.115 176.141 275.441 176.141 275.767Z" fill="white"/>
<path d="M265.536 193.62C270.267 198.021 269.778 201.933 264.394 203.726C262.274 204.377 262.274 204.54 264.394 205.355C267.983 206.822 271.083 204.377 271.409 199.977C271.735 195.413 268.146 190.36 264.558 190.36C262.6 190.36 262.926 191.175 265.536 193.62Z" fill="white"/>
<path d="M138.784 228.989C136.337 231.108 135.848 232.575 136.99 234.368C138.295 236.486 138.621 236.323 138.621 233.879C138.621 232.412 139.273 231.108 140.089 231.108C140.905 231.108 141.883 229.967 142.536 228.663C143.678 225.566 143.025 225.566 138.784 228.989Z" fill="white"/>
<path d="M274.019 257.186C274.019 258.001 274.835 258.816 275.814 258.816C276.629 258.816 276.955 259.631 276.466 260.446C275.814 261.424 276.14 261.913 277.119 261.75C277.934 261.424 279.892 262.728 281.197 264.521C283.807 267.617 283.807 267.617 282.828 263.217C282.176 260.446 282.502 258.816 283.644 258.816C284.623 258.816 285.601 259.468 285.601 260.446C285.764 261.261 286.091 262.728 286.254 263.706C286.417 264.521 286.743 265.825 286.906 266.477C287.07 267.292 288.048 266.314 289.027 264.684C290.495 262.239 290.169 261.098 287.722 259.305C286.091 258.164 283.807 257.512 282.665 257.838C281.523 258.327 280.218 258.001 279.729 257.186C278.424 255.067 274.019 255.067 274.019 257.186Z" fill="white"/>
<path d="M267.82 259.957C264.558 260.609 264.068 261.587 264.394 267.943C264.721 271.855 265.21 275.115 265.699 275.115C266.189 275.115 266.841 276.745 266.841 278.701C267.168 282.776 270.104 294.674 271.083 295.326C271.246 295.652 273.53 296.304 276.14 296.956C279.565 297.771 280.544 297.445 280.544 295.489C280.544 293.696 281.523 293.044 283.481 293.696C285.601 294.511 287.069 293.533 288.375 290.599C290.821 285.22 290.821 284.405 288.375 285.383C287.233 285.709 286.254 287.013 286.254 288.317C286.254 289.621 284.623 290.599 282.665 290.436C280.707 290.436 279.239 291.088 279.402 291.903C279.892 294.022 274.182 294.674 272.877 292.718C272.388 291.74 272.714 291.414 273.693 292.066C274.672 292.555 275.813 292.392 276.466 291.577C276.955 290.599 275.977 290.273 274.182 290.599C271.735 291.088 270.92 289.947 270.104 286.035C269.615 283.101 268.799 279.353 268.309 277.56C267.983 275.767 267.168 272.181 266.515 269.573C265.699 266.314 265.863 265.173 267.168 265.988C268.473 266.803 268.799 266.314 268.146 264.684C267.494 262.891 268.146 262.076 270.593 262.076C272.551 262.076 274.019 261.261 274.019 260.446C274.019 259.468 273.53 258.979 272.877 258.979C272.061 259.142 269.941 259.631 267.82 259.957Z" fill="white"/>
<path d="M274.019 272.018C274.019 272.833 274.835 273.159 275.65 272.67C276.629 272.181 277.282 271.366 277.282 270.877C277.282 270.551 276.629 270.225 275.65 270.225C274.835 270.225 274.019 271.04 274.019 272.018Z" fill="white"/>
<path d="M279.892 272.996C278.913 275.278 279.076 275.441 280.707 273.974C281.849 272.833 282.339 271.529 281.849 271.04C281.36 270.551 280.381 271.366 279.892 272.996Z" fill="white"/>
<path d="M271.572 281.635C272.061 282.45 272.877 283.265 273.367 283.265C273.693 283.265 274.019 282.45 274.019 281.635C274.019 280.657 273.203 280.005 272.225 280.005C271.409 280.005 271.083 280.657 271.572 281.635Z" fill="white"/>
<path d="M276.466 286.524C276.955 287.339 277.771 288.154 278.26 288.154C278.587 288.154 278.913 287.339 278.913 286.524C278.913 285.546 278.097 284.894 277.119 284.894C276.303 284.894 275.977 285.546 276.466 286.524Z" fill="white"/>
<path d="M707.901 397.455C702.844 398.922 688.325 407.398 676.254 415.873C669.402 420.6 667.118 420.926 646.401 420.274C640.528 419.948 635.471 420.763 632.045 422.556C629.272 424.023 625.357 425 623.399 424.674C620.137 424.186 620.789 423.208 628.619 415.873C634.818 410.005 637.102 406.746 636.45 404.79C635.797 403.323 634.655 402.182 633.513 402.182C629.761 402.182 614.59 419.948 610.675 428.749C608.065 434.943 605.781 438.04 603.824 438.04C602.192 438.04 594.036 441.299 585.553 445.374C571.687 452.057 568.098 454.828 548.522 474.06C527.968 494.108 526.989 495.412 529.926 497.531C531.72 498.835 533.678 499.976 534.493 499.976C537.266 499.976 535.472 503.562 529.436 510.244C526.01 513.993 522.095 519.209 520.79 521.979C514.428 534.367 516.059 545.287 523.727 543.331C529.11 541.864 528.784 543.494 520.79 559.956C515.244 571.202 513.776 576.418 513.286 584.73C512.634 594.999 512.797 595.488 517.038 597.444C520.79 599.237 521.28 600.214 520.301 603.963C518.18 612.276 517.528 626.782 519.322 630.042C520.301 631.834 524.216 634.442 527.968 635.746L534.983 638.028L534.493 645.526C533.841 654.327 537.43 661.336 546.728 669.485C551.948 674.212 553.416 674.701 562.552 674.375C567.935 674.212 572.992 674.049 573.644 674.212C574.297 674.212 573.318 677.635 571.524 681.546C566.304 693.445 572.503 702.409 588.163 705.343C597.788 707.299 633.024 704.528 636.123 701.757C637.102 700.616 633.84 700.616 627.151 701.431C621.279 702.246 608.554 702.898 598.93 702.898C581.312 702.898 581.148 702.735 577.07 698.171C573.808 694.26 573.155 692.304 574.134 687.577C574.623 684.317 575.276 679.428 575.439 676.82L575.765 671.93L566.467 672.419C556.516 673.071 550.48 670.789 544.444 664.269C539.713 659.38 535.635 649.111 536.777 646.015C538.735 640.799 535.961 635.583 530.089 633.627C519.811 630.205 516.712 620.588 521.932 608.038C525.358 600.051 525.032 598.259 519.975 595.814C511.329 591.739 513.776 576.907 526.337 554.088C531.883 544.146 531.394 540.723 524.379 540.723C519.975 540.723 519.485 540.234 519.485 535.834C519.485 528.825 523.074 521.001 529.762 513.667C537.43 504.865 539.387 500.954 537.103 498.672C535.961 497.531 534.167 496.716 533.025 496.716C531.883 496.716 530.904 496.227 530.904 495.575C530.904 494.923 539.876 485.633 550.969 475.038C568.751 457.761 572.666 454.828 587.511 447.493C606.107 438.366 607.739 438.366 610.675 448.96C612.633 455.806 612.143 457.272 603.497 470.638C599.582 476.505 591.589 490.848 585.553 502.747C574.95 523.446 574.46 524.913 573.155 540.234C572.339 549.036 571.361 558.815 570.708 561.912C569.892 567.454 570.382 568.268 588.326 586.523C598.44 596.955 611.491 609.016 617.363 613.417C623.236 617.654 632.535 625.152 638.244 629.879C647.053 637.213 653.252 640.473 653.252 637.865C653.252 637.05 629.598 617.98 613.775 606.082C599.908 595.651 572.829 565.661 574.134 562.238C574.786 560.608 575.928 551.807 576.581 542.679C577.886 526.054 578.049 525.402 588.816 504.376C594.851 492.478 603.171 477.809 607.086 471.779C614.264 461.021 614.59 460.858 617.527 463.466C620.463 466.237 620.789 466.074 623.073 463.14C625.846 459.391 626.009 460.369 623.726 467.215C622.747 469.986 621.115 472.268 619.974 472.268C618.505 472.268 618.016 475.527 618.179 482.862C618.342 492.478 618.832 493.945 623.236 498.346C625.846 501.117 632.535 505.028 637.755 507.31C646.238 510.733 648.032 510.896 650.805 509.103C659.94 503.073 661.898 490.196 658.309 460.858C656.678 448.634 657.33 445.374 662.224 441.299C664.345 439.507 665.487 439.67 669.565 442.603C672.175 444.559 675.927 446.189 677.885 446.189C680.984 446.189 680.821 446.841 675.275 452.872L669.076 459.717L670.055 472.105C671.523 491.989 680.006 510.896 689.141 514.645C701.376 519.698 708.39 512.852 714.426 490.196C714.589 489.707 715.242 483.351 715.894 476.016C717.036 463.792 716.873 461.999 713.284 454.991C711.327 450.753 707.575 446.026 704.964 444.559C700.723 441.951 700.723 441.788 703.659 439.018C706.27 436.573 706.759 436.573 708.716 438.855C711.163 441.788 715.731 442.114 714.915 439.181C714.426 438.203 712.632 437.062 710.674 436.736C708.39 436.41 707.085 434.943 707.085 432.987C707.085 428.912 704.312 428.912 703.007 432.987C702.518 434.78 700.886 437.062 699.418 438.366C697.134 440.159 696.808 440.159 698.113 438.203C698.766 437.062 697.134 437.714 694.361 439.67C691.588 441.625 688.325 442.929 686.857 442.44C685.063 441.788 684.736 442.277 685.389 444.07C686.204 446.189 685.878 446.352 682.942 444.722C680.984 443.581 679.353 443.418 679.353 444.07C679.353 444.722 678.374 444.233 677.395 443.255C675.764 441.625 675.764 440.81 677.722 439.67C679.516 438.529 679.516 438.04 678.048 438.04C676.906 438.04 676.417 437.225 676.906 436.41C677.722 435.106 678.7 435.106 680.169 436.41C681.8 437.714 682.289 437.551 681.963 435.758C681.8 434.291 681.147 432.824 680.658 432.172C680.006 431.683 679.842 430.379 680.006 429.401C680.332 428.26 680.169 427.934 679.842 428.586C678.7 430.705 674.133 430.053 674.785 427.934C675.927 424.837 680.984 425 684.41 428.423C687.02 431.031 687.346 432.172 685.715 434.128C684.084 436.084 684.247 436.247 686.694 435.432C688.815 434.617 689.304 434.78 688.488 436.084C686.857 438.855 689.141 438.366 695.666 434.617C698.766 432.824 699.907 431.846 698.113 432.498C690.609 434.943 689.63 434.943 688.488 432.172C687.999 430.705 687.836 429.075 688.325 428.586C688.815 428.097 689.141 428.586 689.141 429.564C689.141 430.705 690.283 431.52 691.751 431.52C694.035 431.52 694.035 431.031 692.403 429.075C691.262 427.608 689.304 426.793 687.999 427.282C686.857 427.771 685.878 427.445 685.878 426.467C685.878 424.837 694.035 425.326 697.134 427.282C697.95 427.771 698.929 427.608 699.255 426.63C699.744 425 709.695 429.238 714.263 432.987C715.405 433.965 717.689 439.344 719.32 444.885C721.114 450.59 722.909 455.48 723.398 455.969C723.888 456.457 726.661 461.51 729.434 467.378C735.307 479.439 741.995 488.24 743.463 485.796C743.953 484.981 742.648 480.906 740.364 476.994C733.839 465.259 725.519 447.493 723.398 440.484C722.256 436.899 719.646 432.009 717.526 429.727C713.447 425.489 713.61 422.882 717.852 424.511C719.157 425 720.788 423.697 721.93 421.089C724.051 416.362 726.498 415.71 729.76 418.807C731.065 419.948 731.555 420.111 731.065 419.296C730.576 418.318 730.739 416.525 731.718 415.221C732.86 413.102 733.186 413.102 733.186 415.221C733.186 417.34 733.349 417.34 734.98 415.221C736.286 413.428 736.938 413.265 737.591 414.732C738.406 417.177 742.974 417.666 742.974 415.384C742.974 414.569 741.995 413.102 740.69 412.124C737.591 409.516 724.214 414.243 717.199 420.274C714.263 422.882 710.674 425 709.043 425C701.702 424.837 728.292 408.701 735.959 408.701C741.343 408.701 744.605 410.331 744.605 413.102C744.605 416.851 738.08 426.63 735.633 426.63C734.491 426.63 732.697 427.771 731.555 429.075C728.782 432.498 731.065 432.009 740.527 427.445C749.499 423.045 762.55 421.904 765.486 425.489C766.791 426.956 766.628 428.749 765.16 431.846C763.855 434.291 763.365 436.736 763.855 437.225C764.507 437.877 763.855 438.203 762.55 438.04C761.244 437.877 758.961 437.714 757.656 437.877C755.535 438.04 755.535 438.203 757.656 439.67C759.613 440.81 759.45 441.788 756.024 445.537L751.946 449.938L757.329 447.167C763.855 443.907 769.401 435.269 768.096 430.705C767.117 427.608 767.28 427.608 769.89 430.053C772.174 432.335 772.337 433.476 770.706 436.573C767.933 441.951 760.755 449.449 758.471 449.449C757.329 449.449 755.209 450.916 753.577 452.709C750.315 456.294 746.4 457.272 749.336 453.687C750.641 452.22 750.641 450.264 749.662 447.656C748.52 445.048 748.031 444.559 748.031 446.515C747.868 447.982 747.378 449.449 746.726 449.938C745.91 450.264 746.4 450.264 747.542 450.101C748.52 449.775 749.499 450.264 749.499 451.079C749.499 453.524 743.953 453.85 741.016 451.568C739.059 449.775 738.08 449.612 737.101 451.242C736.449 452.383 736.612 452.872 737.591 452.22C738.569 451.568 740.201 452.22 741.179 453.361C742.484 454.991 742.648 455.969 741.343 456.783C740.527 457.272 739.711 456.946 739.711 456.132C739.711 455.154 738.732 454.339 737.427 454.339C736.122 454.339 734.654 453.361 734.328 452.22C733.675 450.753 733.349 450.753 733.349 452.383C733.186 453.524 732.37 454.013 731.392 453.524C730.413 452.872 730.576 453.85 731.718 455.643C733.349 458.25 734.328 458.576 735.959 457.272C737.591 455.969 738.08 456.457 738.08 459.88C738.08 464.933 741.343 465.585 742.484 460.858C742.974 459.065 744.116 457.598 744.931 457.598C745.747 457.598 745.91 456.62 745.258 455.48C744.442 454.013 744.605 454.013 746.236 455.48C748.031 457.272 747.868 458.25 744.931 461.347C738.08 468.519 742.158 480.58 754.882 491.989C765.486 501.28 766.954 506.821 769.075 543.983C771.359 587.338 771.359 586.686 770.054 605.919C768.748 623.522 772.5 679.102 775.763 690.837C776.579 694.097 779.026 698.008 781.31 699.475C787.835 703.713 789.792 702.409 783.92 697.519C777.721 692.467 775.926 685.132 774.784 661.173L774.132 647.319H779.352C782.288 647.319 790.608 646.83 798.112 646.015C807.737 645.037 811.489 645.2 811.489 646.504C811.489 647.482 808.879 653.512 805.779 659.869L799.906 671.278L803.495 677.146C805.453 680.242 809.205 684.154 811.815 685.621L816.383 688.555L810.347 691.326C806.921 692.793 800.885 695.075 796.807 696.215C790.282 698.334 789.955 698.497 794.36 698.66C797.133 698.66 805.127 696.052 812.304 692.793C825.192 686.925 825.681 686.925 853.087 685.947C882.94 684.806 882.45 684.969 900.232 673.56C914.587 664.269 916.382 660.684 914.261 644.548C913.445 639.006 911.977 626.456 910.998 616.676C910.019 606.897 908.388 597.444 907.572 595.814C904.473 590.109 895.175 587.501 878.372 587.664C850.477 587.827 818.014 593.858 800.722 602.007C792.076 606.082 788.65 606.571 778.373 604.778C772.174 603.8 772.011 603.637 773.153 598.096C774.458 590.924 771.032 521.653 768.748 509.918C767.28 502.258 765.649 499.487 755.861 489.218C749.825 482.862 744.279 475.527 743.626 473.245C742.158 467.378 748.031 458.576 757.003 453.361C770.543 445.374 776.416 435.106 771.522 427.771C768.096 422.393 760.755 419.948 751.783 421.252L744.442 422.23L746.236 417.829C748.357 412.124 745.91 407.072 740.853 406.909C734.328 406.583 729.108 407.398 727.64 408.864C726.661 409.679 724.703 410.331 723.072 410.331C720.625 410.331 720.462 409.842 722.093 406.094C723.888 402.345 723.724 401.367 720.299 398.759C716.22 395.336 715.079 395.336 707.901 397.455ZM717.362 399.574C721.767 402.997 720.788 406.094 712.468 415.221L704.801 423.697L693.545 422.882C687.346 422.393 681.963 421.578 681.474 421.252C680.658 420.437 685.389 417.34 687.999 417.014C689.63 416.851 689.63 414.569 687.836 413.917C687.183 413.754 684.41 415.384 681.963 417.666C679.516 419.948 676.743 421.741 675.601 421.741C672.991 421.578 684.41 411.961 687.02 411.961C688.162 411.961 689.141 411.309 689.141 410.494C689.141 409.679 693.382 407.072 698.602 404.627C703.659 402.019 709.043 399.411 710.348 398.759C713.61 396.966 713.937 397.129 717.362 399.574ZM623.236 428.26C624.541 428.26 625.357 428.912 624.867 429.564C624.541 430.216 625.52 430.868 627.151 431.031C628.946 431.194 630.74 430.705 631.23 429.727C631.882 428.912 630.903 428.749 629.272 429.401C626.172 430.542 626.336 430.216 631.066 426.63C633.187 425 633.84 425 633.024 426.141C632.371 427.282 632.535 428.26 633.513 428.26C634.329 428.26 635.308 427.445 635.634 426.63C636.287 424.349 646.727 423.045 646.727 425C646.727 425.978 645.911 426.63 644.769 426.63C643.791 426.63 643.464 427.119 643.954 427.771C644.606 428.26 643.791 429.727 642.159 431.031C640.691 432.335 640.365 432.987 641.507 432.335C643.627 431.357 644.28 433.476 642.322 435.269C641.833 435.921 640.365 434.943 639.06 433.15C637.755 431.357 635.797 429.89 634.818 430.053C633.35 430.053 633.35 430.379 634.982 431.031C637.265 431.846 637.755 434.943 635.471 434.291C634.655 434.128 632.861 435.432 631.556 437.225C629.109 440.484 629.109 440.484 625.357 437.225C623.236 435.432 622.42 435.106 623.399 436.41C625.031 438.529 624.378 438.855 619.647 438.692C616.548 438.529 613.611 439.181 612.959 440.159C612.306 441.136 612.796 441.299 614.264 440.484C615.569 439.67 616.058 439.67 615.406 440.484C614.753 441.136 614.916 442.766 615.895 443.907C616.874 445.211 617.2 447.493 616.711 448.96C615.895 451.405 616.058 451.405 618.179 448.797C620.626 445.7 620.626 445.7 620.626 449.123C620.626 451.079 619.81 452.709 618.832 452.709C617.853 452.709 618.342 453.85 619.647 455.317C622.91 458.576 622.91 459.554 619.484 458.902C618.016 458.576 616.711 457.272 616.385 455.969C614.427 445.863 613.611 443.418 611.328 440.973C609.37 438.692 609.207 438.04 610.838 438.04C611.98 438.04 612.47 437.551 611.98 437.062C611.491 436.41 611.817 434.454 612.796 432.498C614.753 429.075 615.08 428.097 615.569 424.837C615.569 423.86 616.874 424.349 618.342 425.652C619.647 427.119 621.931 428.26 623.236 428.26ZM673.807 424.511C673.154 425.326 672.338 425.489 672.175 425C672.012 424.511 670.707 425.326 669.239 426.63C667.771 427.934 666.955 429.564 667.281 430.216C667.608 430.868 667.281 431.683 666.629 432.172C665.813 432.661 665.324 431.031 665.65 428.586C665.813 426.141 665.976 424.186 666.139 424.186C668.586 423.371 674.622 423.697 673.807 424.511ZM661.409 427.445C663.692 430.216 661.898 436.247 656.678 442.44C654.068 445.7 653.089 445.863 647.869 444.233L641.996 442.44L645.096 438.366C646.89 436.084 648.358 433.15 648.358 431.683C648.358 425.489 657.33 422.556 661.409 427.445ZM677.232 432.172C681.637 432.987 680.658 434.291 675.927 434.128C672.991 433.965 670.381 432.987 669.891 431.683C669.402 430.053 669.891 429.727 672.175 430.542C673.97 431.357 676.09 432.009 677.232 432.172ZM670.218 437.388C671.196 439.833 670.87 439.833 668.423 437.877C666.792 436.736 665.161 435.432 664.834 435.269C664.508 434.943 665.324 434.78 666.629 434.78C668.097 434.78 669.728 435.921 670.218 437.388ZM636.287 440.647C634.492 441.788 632.698 442.44 632.208 441.951C631.719 441.462 632.698 439.996 634.329 438.692C636.123 437.551 637.918 436.899 638.407 437.388C638.897 437.877 637.918 439.344 636.287 440.647ZM676.09 438.692C676.09 439.181 675.438 439.996 674.459 440.484C673.643 440.973 672.828 440.647 672.828 439.833C672.828 438.855 673.643 438.04 674.459 438.04C675.438 438.04 676.09 438.366 676.09 438.692ZM624.704 442.929C625.194 443.744 624.215 444.559 622.42 444.559C620.463 444.559 618.995 443.744 618.995 442.929C618.995 441.951 619.974 441.299 621.279 441.299C622.584 441.299 624.215 441.951 624.704 442.929ZM711.49 457.109C713.774 461.836 715.242 466.726 714.752 468.03C713.284 471.942 701.539 474.386 694.361 472.268C691.098 471.453 684.899 470.638 680.658 470.638C673.154 470.638 672.828 470.475 672.828 465.911C672.828 459.391 679.842 451.405 689.793 446.841C697.624 443.255 698.113 443.255 702.518 445.863C705.128 447.33 709.043 452.383 711.49 457.109ZM633.513 446.026C635.145 447.167 634.655 447.493 631.556 447.33C629.272 447.167 627.804 446.515 628.293 445.7C629.272 444.233 630.74 444.233 633.513 446.026ZM652.763 451.242C653.905 453.361 654.883 457.109 654.883 459.554C654.883 463.303 653.742 464.281 645.911 467.215C641.017 469.171 634.003 471.127 630.414 471.616L623.726 472.756L625.52 468.03C633.35 447.656 646.727 439.344 652.763 451.242ZM628.456 454.991C626.336 459.065 626.172 459.065 624.215 455.969C622.42 453.035 622.584 452.383 625.846 451.242C630.74 449.449 631.066 449.938 628.456 454.991ZM657.33 476.342C658.799 490.196 655.047 504.213 649.174 506.821C645.748 508.288 643.627 507.962 635.96 504.05C626.009 498.998 620.626 492.315 620.626 484.818C620.626 476.994 623.236 473.897 630.088 473.897C633.35 473.734 640.202 471.942 645.096 469.823C649.99 467.704 654.557 465.911 655.047 465.911C655.699 465.748 656.678 470.475 657.33 476.342ZM706.433 474.875C712.958 474.06 713.121 474.06 713.284 478.95C713.447 486.285 707.411 505.028 703.333 509.266C701.539 511.385 698.602 513.015 696.971 513.015C690.446 513.015 677.232 503.073 680.658 500.954C681.474 500.465 680.495 496.716 678.374 492.315C676.254 488.24 674.459 482.047 674.459 478.787V472.919L687.183 474.386C694.035 475.038 702.681 475.364 706.433 474.875ZM896.48 591.25C899.742 592.228 903.331 594.021 904.473 595.162C906.594 597.933 911.324 634.116 911.651 650.578L911.814 661.988L903.657 668.344C888.16 680.405 880.003 683.176 858.47 683.828C842.483 684.317 839.221 684.154 839.221 682.198C839.221 680.079 837.916 680.242 830.738 682.687C826.007 684.317 820.461 685.621 818.503 685.784C814.914 685.784 803.332 675.842 803.332 672.582C803.332 671.604 806.268 664.921 809.857 657.587C816.872 642.918 818.503 641.451 851.456 622.055C859.612 617.328 869.4 610.972 873.315 608.038C878.046 604.452 882.287 602.659 885.876 602.659C888.812 602.659 891.749 601.844 892.401 600.703C893.217 599.4 891.423 599.237 885.876 599.888C880.493 600.703 875.925 602.659 871.358 606.571C867.606 609.505 860.265 614.395 855.208 617.328L845.746 622.544V617.002C845.746 614.069 846.399 609.342 847.214 606.408C849.009 600.214 848.193 599.074 842.973 601.192C836.937 603.474 802.19 605.104 804.148 602.985C807.247 599.725 835.632 593.532 859.612 590.598C870.542 589.457 890.933 589.783 896.48 591.25ZM843.136 615.047L841.994 624.663L828.128 633.464C817.688 640.31 812.631 642.429 807.574 642.592C803.822 642.755 795.502 643.407 789.14 644.222C772.827 646.015 772.337 645.363 772.337 625.152V609.016L775.926 611.461C780.82 615.047 786.367 614.721 792.729 610.809C796.97 608.201 798.928 607.875 802.516 609.179C805.29 610.32 807.737 610.32 809.857 609.179C811.489 608.364 818.666 607.549 825.681 607.549C832.696 607.549 839.547 606.897 840.852 605.919C844.278 603.8 844.441 604.452 843.136 615.047ZM785.877 607.712L792.729 607.875L787.998 609.831C782.615 612.276 778.21 611.624 775.274 607.875C773.479 605.756 773.642 605.43 776.089 606.408C777.721 607.06 782.125 607.549 785.877 607.712ZM808.715 607.06C807.574 607.386 805.616 607.386 804.637 607.06C803.495 606.571 804.311 606.245 806.595 606.245C808.879 606.245 809.694 606.571 808.715 607.06Z" fill="white"/>
<path d="M698.602 406.42C690.935 410.331 689.304 412.45 692.403 414.406C693.382 415.058 693.545 414.243 692.893 412.613C692.24 410.82 692.567 410.168 693.545 410.82C695.829 412.287 704.149 408.05 702.518 406.257C701.865 405.442 702.681 405.442 704.312 405.931C706.106 406.583 707.085 406.094 707.085 404.627C707.085 401.693 707.901 401.53 698.602 406.42Z" fill="white"/>
<path d="M712.958 404.79C712.468 405.931 713.284 406.42 715.405 405.931C718.994 404.953 719.646 402.671 716.057 402.671C714.752 402.671 713.447 403.649 712.958 404.79Z" fill="white"/>
<path d="M618.016 430.053C617.527 431.031 617.853 432.661 618.832 433.639C620.3 435.106 620.463 434.78 619.647 432.498C618.668 430.053 618.995 429.727 620.626 430.705C622.094 431.52 622.42 431.357 621.605 430.216C620.137 427.771 619.484 427.771 618.016 430.053Z" fill="white"/>
<path d="M645.911 483.677C645.422 484.492 643.627 485.307 641.996 485.307C640.365 485.307 638.57 486.774 638.081 488.566C636.939 492.804 639.386 503.399 641.996 505.028C647.216 508.125 653.252 499.487 653.252 488.566C653.252 483.188 652.763 482.047 650.153 482.047C648.358 482.047 646.401 482.699 645.911 483.677ZM645.422 488.892C642.975 491.337 642.812 494.108 645.096 492.641C646.074 491.989 646.564 492.478 646.401 493.782C646.074 494.923 646.89 495.738 648.032 495.412C650.805 494.923 650.479 495.738 646.89 498.998C643.791 501.769 643.791 501.769 644.606 498.183C645.259 496.064 644.932 494.923 643.954 495.575C643.138 496.064 642.322 495.249 642.322 493.782C642.322 491.011 644.769 486.937 646.401 486.937C646.89 486.937 646.564 487.752 645.422 488.892ZM650.805 490.033C651.295 490.848 650.968 491.989 649.99 492.641C649.174 493.13 648.358 492.478 648.358 491.174C648.358 488.241 649.337 487.752 650.805 490.033Z" fill="white"/>
<path d="M687.346 484.981C687.346 488.241 687.02 492.315 686.694 493.945C686.041 497.368 695.014 506.332 699.092 506.495C702.191 506.495 703.823 501.932 703.823 492.478C703.823 483.84 700.886 480.091 693.545 479.439C687.673 478.95 687.51 479.113 687.346 484.981ZM699.744 487.1C699.418 488.729 699.907 490.196 700.886 490.196C701.865 490.196 702.191 490.685 701.539 491.337C700.886 492.152 699.255 491.174 697.95 489.544C696.155 487.1 695.34 486.774 693.382 488.404C691.588 489.87 690.772 489.87 689.793 488.404C688.162 485.796 693.382 482.21 697.297 483.188C699.255 483.677 700.071 485.144 699.744 487.1ZM696.808 496.064C695.992 500.628 696.971 500.954 700.071 497.042C702.191 494.597 702.191 494.597 700.56 497.857C698.602 501.932 697.134 502.421 694.524 499.813C692.567 497.857 693.708 489.87 695.992 491.174C696.808 491.826 697.297 493.945 696.808 496.064Z" fill="white"/>
<path d="M692.403 485.307C690.935 486.285 690.772 486.937 691.914 486.937C692.893 486.937 694.361 486.122 694.85 485.307C696.155 483.351 695.503 483.351 692.403 485.307Z" fill="white"/>
<path d="M724.214 421.741C723.724 422.719 724.377 423.86 725.682 424.349C727.15 424.837 728.292 425.978 728.292 426.793C728.292 429.075 723.724 428.586 722.909 426.141C722.256 424.674 721.93 424.674 721.93 426.141C721.767 427.119 722.419 428.423 723.398 429.075C724.214 429.564 724.54 431.031 723.888 432.335C723.398 433.639 723.724 434.943 724.377 434.943C730.739 435.921 733.186 435.758 733.186 434.291C733.186 433.476 731.718 433.15 729.923 433.639C726.008 434.617 725.682 432.009 729.271 428.097C731.555 425.489 731.555 425.163 728.455 424.186C726.498 423.697 725.356 422.393 725.845 421.578C726.498 420.763 726.498 420.111 726.008 420.111C725.519 420.111 724.703 420.926 724.214 421.741Z" fill="white"/>
<path d="M746.726 426.63C744.605 427.445 742.974 428.912 742.974 429.727C742.974 431.846 747.868 430.868 749.499 428.423C750.152 427.119 751.62 426.793 752.762 427.445C754.23 428.26 754.556 428.097 753.74 426.956C752.435 424.675 751.62 424.675 746.726 426.63Z" fill="white"/>
<path d="M756.514 427.771C756.514 429.238 757.166 429.401 758.634 428.097C761.081 426.141 763.365 428.912 761.571 431.846C760.755 433.476 760.918 433.476 762.386 432.172C763.365 431.194 763.855 429.238 763.365 427.771C762.06 424.837 756.514 424.674 756.514 427.771Z" fill="white"/>
<path d="M737.427 431.357C736.938 432.172 737.427 433.15 738.569 433.639C739.874 434.128 740.853 433.476 740.853 432.172C740.853 429.564 738.732 429.075 737.427 431.357Z" fill="white"/>
<path d="M750.478 439.181C749.499 441.462 749.662 441.625 751.294 440.159C752.435 439.018 752.925 437.714 752.435 437.225C751.946 436.736 750.967 437.551 750.478 439.181Z" fill="white"/>
<path d="M752.109 443.907C751.294 446.189 751.457 446.352 753.577 444.559C756.351 442.277 756.677 441.299 754.556 441.299C753.74 441.299 752.599 442.44 752.109 443.907Z" fill="white"/>
<path d="M665.65 513.178C657.494 513.993 651.784 515.46 649.826 517.253C648.032 518.883 647.053 520.349 647.543 520.838C648.032 521.327 647.543 522.631 646.727 523.609C645.585 525.076 646.074 525.565 648.848 525.402C652.273 525.239 655.047 521.979 651.784 521.979C650.968 521.979 649.663 521.327 648.848 520.675C648.195 519.861 648.358 519.372 649.174 519.535C652.273 520.186 655.047 519.535 654.394 518.231C653.905 517.579 655.21 516.927 657.004 516.927C658.962 516.764 663.856 516.112 667.771 515.623C673.807 514.645 674.785 514.808 673.97 516.927C673.317 518.394 673.643 519.535 674.296 519.535C675.112 519.535 676.09 518.72 676.417 517.742C676.906 516.438 678.048 516.764 679.842 518.557C681.311 520.186 682.616 520.675 682.616 519.698C682.616 518.883 681.474 517.09 680.169 515.786C678.864 514.482 678.374 513.015 678.864 512.363C679.516 511.874 679.516 511.548 679.19 511.548C678.864 511.711 672.828 512.363 665.65 513.178Z" fill="white"/>
<path d="M718.504 515.297C718.504 516.601 716.547 519.046 714.1 520.838C709.858 523.935 709.695 524.261 711.979 530.781C713.447 535.345 714.589 536.811 715.405 535.508C716.22 534.367 715.731 531.922 714.426 529.966C712.468 526.869 712.632 526.217 717.036 522.305C721.604 518.231 723.398 513.015 720.136 513.015C719.32 513.015 718.504 513.993 718.504 515.297Z" fill="white"/>
<path d="M637.592 520.838C634.003 524.098 624.867 532.248 617.69 538.767C609.696 545.939 604.313 551.97 604.313 553.925C604.313 558 604.476 557.837 620.463 552.133C639.06 545.287 640.039 546.428 631.882 564.846C628.456 572.669 625.52 580.004 625.52 580.982C625.52 585.219 634.818 582.449 640.691 576.418C642.322 574.625 645.096 573.321 646.89 573.321C648.684 573.321 652.763 572.18 656.188 570.876C661.735 568.431 662.387 568.431 664.182 571.039C667.281 575.277 666.792 592.065 663.366 606.082C661.572 612.765 659.125 623.196 657.657 629.553C654.72 642.755 652.6 674.375 654.72 674.375C656.841 674.375 658.146 665.247 657.983 649.926C657.983 640.31 658.962 633.301 661.082 627.108C662.877 622.218 665.813 610.483 667.934 601.192C671.033 586.686 671.36 582.938 669.728 576.092C667.281 565.661 667.281 565.987 672.012 562.89C675.764 560.445 676.417 560.445 682.452 563.705C687.836 566.476 689.467 566.639 692.73 565.009C699.581 561.423 700.723 557.837 695.34 556.533C693.382 555.881 692.24 555.066 692.893 554.414C694.198 553.11 687.836 545.613 685.552 545.613C684.41 545.613 674.785 539.908 669.728 536.323C669.239 535.997 671.36 533.389 674.296 530.292C678.7 525.728 679.19 524.587 677.069 522.957C675.112 521.327 674.785 521.49 675.601 524.261C676.254 526.869 675.764 527.684 672.991 527.684C671.196 527.684 668.586 529.477 667.118 531.433C664.345 535.671 658.146 539.093 653.415 539.093C651.784 539.093 649.5 540.071 648.521 541.375C647.543 542.516 642.322 543.983 637.102 544.472C631.882 544.798 624.215 546.754 620.137 548.547C616.058 550.34 612.47 551.481 611.98 551.155C611.001 550.177 622.747 538.278 633.187 529.966C642.975 522.142 646.727 518.231 646.727 515.949C646.727 513.504 644.28 514.808 637.592 520.838ZM676.58 543.331C681.474 546.591 682.452 547.895 680.984 549.688C679.353 551.644 678.374 551.481 674.133 548.873C670.218 546.591 668.26 546.265 664.671 547.569C661.409 548.547 658.962 548.547 656.678 547.243C652.11 544.798 652.436 543.005 657.82 541.049C665.161 538.278 670.055 538.93 676.58 543.331ZM661.898 551.97C667.934 554.903 672.828 557.837 672.828 558.489C672.828 560.119 667.934 562.564 656.515 566.802C651.621 568.757 643.954 572.017 639.549 574.299C635.308 576.581 631.393 578.048 630.903 577.722C630.577 577.233 632.371 572.017 635.145 566.15C637.918 560.282 640.202 555.229 640.202 554.74C640.202 554.251 640.854 552.133 641.833 549.851C643.791 544.635 647.543 544.961 661.898 551.97ZM673.643 550.992C675.764 552.784 676.09 553.599 674.622 554.577C673.317 555.229 671.196 554.414 669.076 552.295C666.303 549.688 666.139 548.873 668.097 548.873C669.402 548.873 671.849 549.851 673.643 550.992ZM690.772 555.229L694.198 560.119L690.772 561.912C687.999 563.379 686.368 563.216 683.268 561.097C678.7 558.163 678.211 554.577 682.289 552.295C686.368 549.851 687.02 550.014 690.772 555.229Z" fill="white"/>
<path d="M643.464 553.762C643.464 554.577 644.28 555.392 645.096 555.392C646.074 555.392 646.727 554.577 646.727 553.762C646.727 552.784 646.074 552.132 645.096 552.132C644.28 552.132 643.464 552.784 643.464 553.762Z" fill="white"/>
<path d="M650.968 564.683C650.316 566.476 650.805 566.476 653.252 565.172C657.167 563.053 657.33 562.401 654.068 562.401C652.763 562.401 651.458 563.379 650.968 564.683Z" fill="white"/>
<path d="M639.06 566.313C639.712 566.802 639.223 568.431 638.081 569.898C636.287 572.18 636.45 572.18 638.897 570.224C641.507 568.268 641.507 565.172 639.06 565.172C638.407 565.172 638.57 565.661 639.06 566.313Z" fill="white"/>
<path d="M684.899 521.816C684.899 523.935 685.552 525.402 686.368 524.913C688.488 523.609 691.098 533.226 690.283 539.419C689.304 546.591 691.751 547.732 693.382 541.212C694.198 538.278 693.382 533.552 691.425 527.847C687.999 518.394 684.41 515.134 684.899 521.816Z" fill="white"/>
<path d="M667.608 524.913C664.508 528.01 662.877 528.499 660.756 527.358C659.125 526.543 657.494 526.217 657.004 526.706C656.352 527.195 656.841 527.684 657.983 527.684C659.125 527.684 659.451 528.336 658.962 529.314C658.309 530.292 659.125 530.455 660.919 529.966C663.04 529.314 662.714 529.966 659.777 532.574C657.494 534.53 656.841 535.508 658.309 534.693C662.551 532.574 673.317 522.631 672.338 521.816C671.849 521.327 669.728 522.794 667.608 524.913Z" fill="white"/>
<path d="M701.702 526.38C698.766 532.085 698.113 547.895 700.886 546.265C701.865 545.613 702.191 542.353 701.702 539.093C701.212 534.693 701.865 531.596 703.986 528.336C707.248 523.283 707.901 521.164 705.78 521.164C705.128 521.164 703.333 523.609 701.702 526.38Z" fill="white"/>
<path d="M685.226 529.803C685.715 531.433 686.694 532.248 687.183 531.759C687.673 531.27 687.183 529.966 686.041 528.825C684.41 527.358 684.247 527.521 685.226 529.803Z" fill="white"/>
<path d="M631.719 533.552C629.924 536.322 634.492 540.234 639.875 540.397C642.812 540.397 644.769 539.908 644.28 539.093C643.791 538.441 641.507 537.952 639.223 538.278C636.287 538.604 634.655 537.789 633.84 535.345C633.187 533.552 632.208 532.737 631.719 533.552Z" fill="white"/>
<path d="M635.308 533.226C635.308 533.552 636.45 534.204 637.755 534.856C639.06 535.345 640.202 535.019 640.202 534.204C640.202 533.226 639.06 532.574 637.755 532.574C636.45 532.574 635.308 532.9 635.308 533.226Z" fill="white"/>
<path d="M677.069 535.671C676.417 536.485 676.743 537.626 677.559 538.115C678.374 538.767 679.516 538.441 680.006 537.626C680.658 536.811 680.332 535.671 679.516 535.182C678.7 534.53 677.559 534.856 677.069 535.671Z" fill="white"/>
<path d="M682.452 538.604C680.332 541.212 680.495 541.375 683.105 539.256C684.573 537.952 686.531 537.463 687.02 538.115C687.673 538.767 687.183 540.071 685.878 540.886C683.758 542.353 683.758 542.516 685.878 541.864C689.141 541.049 690.12 535.834 687.02 535.834C685.715 535.834 683.594 537.137 682.452 538.604Z" fill="white"/>
<path d="M623.073 540.886C622.42 541.864 622.257 542.842 622.747 543.331C623.073 543.82 623.889 543.005 624.378 541.538C625.52 538.767 624.541 538.278 623.073 540.886Z" fill="white"/>
<path d="M626.499 542.19C625.846 543.005 626.988 543.331 628.783 542.842C632.535 541.864 633.024 540.723 629.761 540.723C628.456 540.723 626.988 541.375 626.499 542.19Z" fill="white"/>
<path d="M765.323 591.087C764.833 593.532 764.67 597.118 765.16 598.911C765.812 601.355 765.16 602.496 762.55 603.148C760.592 603.637 758.634 605.593 758.145 607.386C757.492 610.157 756.024 610.809 750.804 610.809C745.747 610.809 744.116 611.461 743.463 613.906C742.811 616.187 740.527 617.165 733.186 617.98C727.476 618.632 721.93 620.425 719.483 622.381C716.22 624.989 714.589 625.315 712.142 624.011C707.575 621.566 701.212 621.892 695.503 624.826C691.751 626.619 689.304 626.945 686.041 625.804C682.942 624.663 680.495 624.826 677.722 626.293C674.296 628.086 673.154 627.923 669.239 625.152C664.671 621.892 662.714 623.522 666.955 626.945C668.26 627.923 669.565 631.02 669.891 633.627C670.707 638.517 668.913 640.147 662.877 640.147C661.246 640.147 659.777 640.799 659.777 641.777C659.777 643.733 667.281 643.896 670.87 641.94C672.665 640.962 676.743 641.125 681.8 642.266L689.956 644.222L689.63 652.371C689.467 656.772 689.304 661.825 689.304 663.292C689.141 664.921 688.488 666.225 687.51 666.225C686.694 666.225 686.368 665.084 686.857 663.78C687.673 661.988 687.183 661.662 685.226 662.314C682.126 663.455 681.963 665.084 684.247 672.582C685.715 677.961 685.715 677.961 682.616 675.19C680.821 673.56 679.353 671.278 679.353 670.3C679.353 669.159 678.211 667.366 676.906 666.225C674.785 664.432 674.459 664.921 674.459 669.648C674.459 678.45 672.175 680.242 668.26 674.864C664.345 669.485 662.061 670.463 664.998 676.168C671.36 688.229 676.09 690.185 676.09 680.731C676.09 678.124 676.906 676.005 677.722 676.005C678.7 676.005 679.353 676.82 679.353 677.798C679.353 678.613 680.006 679.102 680.658 678.613C681.474 678.124 681.963 679.428 681.963 681.383C681.8 686.925 686.531 685.784 687.51 680.079L688.325 675.353L691.751 679.59C696.482 685.621 711.979 689.044 711.979 683.991C711.979 683.176 710.185 682.524 708.064 682.524C698.929 682.524 687.999 675.353 696.155 674.864C700.071 674.538 705.291 668.507 705.454 664.106C705.454 662.477 703.659 660.521 701.539 659.706C699.418 658.891 697.134 657.424 696.482 656.446C695.992 655.631 694.85 655.142 694.361 655.468C693.708 655.794 693.382 653.349 693.708 649.926C694.361 643.244 695.503 642.429 704.475 641.94C707.085 641.94 711 640.636 713.284 639.169C716.384 637.213 718.178 637.05 722.093 638.354C729.434 640.962 734.328 640.636 741.179 637.05C744.442 635.42 749.499 632.975 752.435 631.834C755.535 630.857 759.124 627.923 760.592 625.641C762.06 623.359 764.507 620.588 765.812 619.447C767.933 617.654 767.77 617.491 764.507 617.328C759.45 617.328 758.145 612.928 762.06 608.69C767.117 603.311 769.075 598.748 767.443 596.14C766.628 594.836 766.628 592.717 767.607 591.087C769.401 587.501 769.401 586.36 767.607 586.36C766.791 586.36 765.812 588.479 765.323 591.087ZM756.677 619.447C758.634 624.826 756.187 627.76 748.683 629.227C746.073 629.879 744.605 629.879 745.747 629.39C747.052 628.901 747.378 626.782 746.726 623.848C745.421 617.165 747.215 613.743 751.457 614.395C753.74 614.721 755.698 616.676 756.677 619.447ZM740.364 623.196C744.442 627.271 743.463 631.183 737.754 633.79C732.207 636.398 723.888 636.398 721.604 634.116C720.951 633.464 720.136 631.346 719.809 629.716C719.483 627.108 720.951 625.804 726.661 623.685C735.959 620.099 737.264 619.936 740.364 623.196ZM713.447 630.205C716.057 634.768 711.49 637.539 701.376 637.865C693.545 638.028 692.893 637.865 693.545 634.605C695.177 627.434 695.503 627.108 703.659 627.108C710.022 627.108 712.305 627.76 713.447 630.205ZM687.183 631.346C693.872 635.909 691.751 638.68 681.963 638.354C674.296 638.028 673.317 637.539 674.133 634.931C674.622 633.138 676.417 631.02 678.374 630.368C683.105 628.412 683.105 628.412 687.183 631.346ZM700.56 664.595C700.56 668.833 692.73 674.212 690.935 671.278C690.12 670.137 690.446 667.366 691.425 665.247C693.708 660.358 700.56 659.706 700.56 664.595ZM689.141 671.767C689.141 672.256 688.488 673.071 687.51 673.56C686.694 674.049 685.878 673.723 685.878 672.908C685.878 671.93 686.694 671.115 687.51 671.115C688.488 671.115 689.141 671.441 689.141 671.767Z" fill="white"/>
<path d="M778.536 589.62C783.267 594.021 782.778 597.933 777.394 599.726C775.274 600.377 775.274 600.54 777.394 601.355C780.983 602.822 784.083 600.377 784.409 595.977C784.735 591.413 781.146 586.36 777.558 586.36C775.6 586.36 775.926 587.175 778.536 589.62Z" fill="white"/>
<path d="M651.784 624.989C649.337 627.108 648.848 628.575 649.99 630.368C651.295 632.486 651.621 632.323 651.621 629.879C651.621 628.412 652.273 627.108 653.089 627.108C653.905 627.108 654.883 625.967 655.536 624.663C656.678 621.566 656.025 621.566 651.784 624.989Z" fill="white"/>
<path d="M787.019 653.186C787.019 654.001 787.835 654.816 788.814 654.816C789.629 654.816 789.955 655.631 789.466 656.446C788.814 657.424 789.14 657.913 790.119 657.75C790.934 657.424 792.892 658.728 794.197 660.521C796.807 663.617 796.807 663.617 795.828 659.217C795.176 656.446 795.502 654.816 796.644 654.816C797.623 654.816 798.601 655.468 798.601 656.446C798.764 657.261 799.091 658.728 799.254 659.706C799.417 660.521 799.743 661.825 799.906 662.477C800.07 663.292 801.048 662.314 802.027 660.684C803.495 658.239 803.169 657.098 800.722 655.305C799.091 654.164 796.807 653.512 795.665 653.838C794.523 654.327 793.218 654.001 792.729 653.186C791.424 651.067 787.019 651.067 787.019 653.186Z" fill="white"/>
<path d="M780.82 655.957C777.558 656.609 777.068 657.587 777.394 663.943C777.721 667.855 778.21 671.115 778.699 671.115C779.189 671.115 779.841 672.745 779.841 674.701C780.168 678.776 783.104 690.674 784.083 691.326C784.246 691.652 786.53 692.304 789.14 692.956C792.565 693.771 793.544 693.445 793.544 691.489C793.544 689.696 794.523 689.044 796.481 689.696C798.601 690.511 800.069 689.533 801.375 686.599C803.821 681.22 803.821 680.405 801.375 681.383C800.233 681.709 799.254 683.013 799.254 684.317C799.254 685.621 797.623 686.599 795.665 686.436C793.707 686.436 792.239 687.088 792.402 687.903C792.892 690.022 787.182 690.674 785.877 688.718C785.388 687.74 785.714 687.414 786.693 688.066C787.672 688.555 788.813 688.392 789.466 687.577C789.955 686.599 788.977 686.273 787.182 686.599C784.735 687.088 783.92 685.947 783.104 682.035C782.615 679.101 781.799 675.353 781.309 673.56C780.983 671.767 780.168 668.181 779.515 665.573C778.699 662.314 778.863 661.173 780.168 661.988C781.473 662.803 781.799 662.314 781.146 660.684C780.494 658.891 781.146 658.076 783.593 658.076C785.551 658.076 787.019 657.261 787.019 656.446C787.019 655.468 786.53 654.979 785.877 654.979C785.061 655.142 782.941 655.631 780.82 655.957Z" fill="white"/>
<path d="M787.019 668.018C787.019 668.833 787.835 669.159 788.65 668.67C789.629 668.181 790.282 667.366 790.282 666.877C790.282 666.551 789.629 666.225 788.65 666.225C787.835 666.225 787.019 667.04 787.019 668.018Z" fill="white"/>
<path d="M792.892 668.996C791.913 671.278 792.076 671.441 793.707 669.974C794.849 668.833 795.339 667.529 794.849 667.04C794.36 666.551 793.381 667.366 792.892 668.996Z" fill="white"/>
<path d="M784.572 677.635C785.061 678.45 785.877 679.265 786.367 679.265C786.693 679.265 787.019 678.45 787.019 677.635C787.019 676.657 786.203 676.005 785.225 676.005C784.409 676.005 784.083 676.657 784.572 677.635Z" fill="white"/>
<path d="M789.466 682.524C789.955 683.339 790.771 684.154 791.26 684.154C791.587 684.154 791.913 683.339 791.913 682.524C791.913 681.546 791.097 680.894 790.119 680.894C789.303 680.894 788.977 681.546 789.466 682.524Z" fill="white"/>
</svg>
