<svg width="1000" height="1000" viewBox="0 0 1000 1000" fill="none" xmlns="http://www.w3.org/2000/svg">
<path d="M189.777 109.303C184.853 110.733 170.716 118.996 158.962 127.259C152.29 131.868 150.066 132.185 129.894 131.55C124.175 131.232 119.251 132.026 115.915 133.774C113.215 135.205 109.403 136.158 107.497 135.84C104.32 135.363 104.955 134.41 112.58 127.259C118.616 121.539 120.84 118.361 120.204 116.454C119.569 115.024 118.457 113.911 117.345 113.911C113.692 113.911 98.9194 131.232 95.1072 139.813C92.5657 145.851 90.3419 148.87 88.4358 148.87C86.8474 148.87 78.9053 152.048 70.6456 156.021C57.144 162.536 53.6495 165.238 34.5885 183.988C14.5745 203.534 13.6214 204.805 16.4806 206.871C18.2278 208.142 20.1339 209.254 20.9281 209.254C23.6284 209.254 21.8812 212.75 16.004 219.265C12.6684 222.92 8.85616 228.005 7.58543 230.707C1.3906 242.783 2.97902 253.43 10.4446 251.523C15.6864 250.093 15.3687 251.682 7.58543 267.731C2.18481 278.696 0.755237 283.781 0.278711 291.885C-0.356655 301.896 -0.197814 302.373 3.93207 304.28C7.58543 306.028 8.06195 306.981 7.1089 310.636C5.04396 318.74 4.4086 332.883 6.15585 336.061C7.1089 337.809 10.9211 340.351 14.5745 341.622L21.4047 343.847L20.9281 351.157C20.2928 359.737 23.7873 366.57 32.8413 374.516C37.9242 379.124 39.3538 379.601 48.2489 379.283C53.4907 379.124 58.4148 378.965 59.0501 379.124C59.6855 379.124 58.7324 382.461 56.9852 386.275C51.9023 397.875 57.9382 406.614 73.187 409.475C82.5587 411.382 116.869 408.68 119.886 405.979C120.84 404.867 117.663 404.867 111.15 405.661C105.432 406.456 93.0423 407.091 83.6706 407.091C66.5157 407.091 66.3568 406.932 62.3858 402.483C59.209 398.669 58.5736 396.762 59.5267 392.154C60.0032 388.976 60.6385 384.209 60.7974 381.666L61.1151 376.899L52.0611 377.376C42.3718 378.012 36.4946 375.787 30.6175 369.431C26.0111 364.664 22.04 354.653 23.1519 351.633C25.058 346.548 22.3577 341.463 16.6394 339.557C6.63238 336.22 3.61439 326.844 8.69732 314.608C12.033 306.822 11.7153 305.074 6.79122 302.691C-1.62739 298.718 0.755236 284.258 12.986 262.011C18.3867 252.318 17.9101 248.981 11.0799 248.981C6.79122 248.981 6.3147 248.504 6.3147 244.213C6.3147 237.381 9.80921 229.753 16.3217 222.602C23.7873 214.021 25.6934 210.208 23.4696 207.983C22.3577 206.871 20.6104 206.076 19.4986 206.076C18.3867 206.076 17.4336 205.6 17.4336 204.964C17.4336 204.328 26.1699 195.271 36.9711 184.942C54.2849 168.098 58.0971 165.238 72.5517 158.087C90.6596 149.188 92.248 149.188 95.1072 159.517C97.0133 166.191 96.5368 167.621 88.1182 180.651C84.306 186.372 76.5227 200.356 70.6456 211.956C60.3209 232.137 59.8443 233.567 58.5736 248.504C57.7794 257.085 56.8263 266.619 56.191 269.638C55.3968 275.041 55.8733 275.836 73.3459 293.633C83.1941 303.803 95.9014 315.562 101.62 319.852C107.338 323.984 116.392 331.293 121.951 335.902C130.529 343.052 136.565 346.231 136.565 343.688C136.565 342.894 113.533 324.302 98.1252 312.702C84.6236 302.532 58.2559 273.293 59.5267 269.956C60.162 268.367 61.2739 259.786 61.9093 250.887C63.18 234.679 63.3389 234.044 73.8224 213.545C79.6996 201.945 87.8005 187.643 91.6127 181.764C98.6017 171.276 98.9194 171.117 101.779 173.66C104.638 176.361 104.955 176.202 107.179 173.342C109.879 169.687 110.038 170.64 107.815 177.314C106.861 180.016 105.273 182.24 104.161 182.24C102.732 182.24 102.255 185.419 102.414 192.569C102.573 201.945 103.049 203.375 107.338 207.665C109.879 210.367 116.392 214.18 121.475 216.405C129.735 219.742 131.482 219.901 134.182 218.153C143.077 212.274 144.983 199.72 141.489 171.117C139.901 159.199 140.536 156.021 145.301 152.048C147.366 150.301 148.478 150.459 152.449 153.32C154.991 155.227 158.644 156.816 160.55 156.816C163.568 156.816 163.409 157.451 158.008 163.331L151.973 170.005L152.926 182.082C154.355 201.468 162.615 219.901 171.51 223.556C183.423 228.482 190.253 221.808 196.13 199.72C196.289 199.243 196.925 193.046 197.56 185.895C198.672 173.977 198.513 172.229 195.019 165.397C193.113 161.265 189.459 156.657 186.918 155.227C182.788 152.684 182.788 152.525 185.647 149.824C188.188 147.44 188.665 147.44 190.571 149.665C192.954 152.525 197.401 152.843 196.607 149.983C196.131 149.029 194.383 147.917 192.477 147.599C190.253 147.281 188.983 145.851 188.983 143.944C188.983 139.972 186.282 139.972 185.012 143.944C184.535 145.692 182.947 147.917 181.517 149.188C179.293 150.936 178.976 150.936 180.246 149.029C180.882 147.917 179.293 148.553 176.593 150.459C173.893 152.366 170.716 153.638 169.286 153.161C167.539 152.525 167.221 153.002 167.857 154.75C168.651 156.816 168.333 156.975 165.474 155.385C163.568 154.273 161.98 154.114 161.98 154.75C161.98 155.385 161.026 154.909 160.073 153.955C158.485 152.366 158.485 151.572 160.391 150.459C162.138 149.347 162.138 148.87 160.709 148.87C159.597 148.87 159.12 148.076 159.597 147.281C160.391 146.01 161.344 146.01 162.774 147.281C164.362 148.553 164.839 148.394 164.521 146.646C164.362 145.216 163.727 143.785 163.25 143.15C162.615 142.673 162.456 141.402 162.615 140.448C162.933 139.336 162.774 139.018 162.456 139.654C161.344 141.72 156.897 141.084 157.532 139.018C158.644 135.999 163.568 136.158 166.904 139.495C169.445 142.037 169.763 143.15 168.174 145.057C166.586 146.964 166.745 147.122 169.127 146.328C171.192 145.533 171.669 145.692 170.875 146.964C169.286 149.665 171.51 149.188 177.864 145.533C180.882 143.785 181.994 142.832 180.246 143.468C172.94 145.851 171.987 145.851 170.875 143.15C170.398 141.72 170.239 140.131 170.716 139.654C171.192 139.177 171.51 139.654 171.51 140.607C171.51 141.72 172.622 142.514 174.052 142.514C176.275 142.514 176.275 142.037 174.687 140.131C173.575 138.7 171.669 137.906 170.398 138.383C169.286 138.859 168.333 138.542 168.333 137.588C168.333 135.999 176.275 136.476 179.293 138.383C180.087 138.859 181.041 138.7 181.358 137.747C181.835 136.158 191.524 140.29 195.972 143.944C197.084 144.898 199.307 150.142 200.896 155.544C202.643 161.106 204.39 165.873 204.867 166.35C205.343 166.827 208.044 171.753 210.744 177.473C216.462 189.232 222.975 197.813 224.404 195.43C224.881 194.635 223.61 190.662 221.386 186.849C215.033 175.408 206.932 158.087 204.867 151.254C203.755 147.758 201.213 142.991 199.148 140.766C195.177 136.635 195.336 134.092 199.466 135.681C200.737 136.158 202.325 134.887 203.437 132.344C205.502 127.736 207.885 127.1 211.062 130.12C212.332 131.232 212.809 131.391 212.332 130.596C211.856 129.643 212.015 127.895 212.968 126.624C214.08 124.558 214.397 124.558 214.397 126.624C214.397 128.689 214.556 128.689 216.145 126.624C217.415 124.876 218.051 124.717 218.686 126.147C219.48 128.531 223.928 129.007 223.928 126.783C223.928 125.988 222.975 124.558 221.704 123.604C218.686 121.062 205.661 125.67 198.831 131.55C195.972 134.092 192.477 136.158 190.889 136.158C183.741 135.999 209.632 120.267 217.098 120.267C222.339 120.267 225.516 121.857 225.516 124.558C225.516 128.213 219.163 137.747 216.78 137.747C215.668 137.747 213.921 138.859 212.809 140.131C210.109 143.468 212.332 142.991 221.545 138.542C230.281 134.251 242.989 133.139 245.848 136.635C247.119 138.065 246.96 139.813 245.53 142.832C244.26 145.216 243.783 147.599 244.26 148.076C244.895 148.711 244.26 149.029 242.989 148.87C241.718 148.711 239.494 148.553 238.224 148.711C236.159 148.87 236.159 149.029 238.224 150.459C240.13 151.572 239.971 152.525 236.635 156.18L232.664 160.47L237.906 157.769C244.26 154.591 249.66 146.169 248.389 141.72C247.436 138.7 247.595 138.7 250.137 141.084C252.36 143.309 252.519 144.421 250.931 147.44C248.231 152.684 241.242 159.994 239.018 159.994C237.906 159.994 235.841 161.424 234.253 163.172C231.076 166.668 227.263 167.621 230.123 164.125C231.393 162.695 231.393 160.788 230.44 158.246C229.328 155.703 228.852 155.227 228.852 157.133C228.693 158.564 228.217 159.994 227.581 160.47C226.787 160.788 227.263 160.788 228.375 160.629C229.328 160.312 230.281 160.788 230.281 161.583C230.281 163.966 224.881 164.284 222.022 162.06C220.116 160.312 219.163 160.153 218.21 161.742C217.574 162.854 217.733 163.331 218.686 162.695C219.639 162.06 221.227 162.695 222.181 163.807C223.451 165.397 223.61 166.35 222.339 167.144C221.545 167.621 220.751 167.303 220.751 166.509C220.751 165.555 219.798 164.761 218.527 164.761C217.256 164.761 215.827 163.807 215.509 162.695C214.874 161.265 214.556 161.265 214.556 162.854C214.397 163.966 213.603 164.443 212.65 163.966C211.697 163.331 211.856 164.284 212.968 166.032C214.556 168.575 215.509 168.892 217.098 167.621C218.686 166.35 219.163 166.827 219.163 170.164C219.163 175.09 222.339 175.725 223.451 171.117C223.928 169.369 225.04 167.939 225.834 167.939C226.628 167.939 226.787 166.986 226.152 165.873C225.357 164.443 225.516 164.443 227.105 165.873C228.852 167.621 228.693 168.575 225.834 171.594C219.163 178.586 223.134 190.345 235.523 201.468C245.848 210.526 247.278 215.928 249.342 252.159C251.566 294.427 251.566 293.792 250.296 312.543C249.025 329.704 252.678 383.891 255.855 395.332C256.649 398.51 259.032 402.324 261.256 403.754C267.609 407.886 269.515 406.614 263.797 401.847C257.761 396.921 256.014 389.771 254.902 366.411L254.267 352.905H259.349C262.209 352.905 270.31 352.428 277.616 351.633C286.988 350.68 290.641 350.839 290.641 352.11C290.641 353.063 288.1 358.943 285.082 365.14L279.364 376.264L282.858 381.984C284.764 385.003 288.418 388.817 290.959 390.247L295.407 393.108L289.529 395.809C286.194 397.239 280.317 399.464 276.346 400.576C269.992 402.642 269.674 402.801 273.963 402.96C276.663 402.96 284.446 400.417 291.436 397.239C303.984 391.518 304.461 391.518 331.146 390.565C360.214 389.453 359.737 389.612 377.051 378.488C391.029 369.431 392.777 365.935 390.712 350.203C389.917 344.8 388.488 332.565 387.535 323.03C386.582 313.496 384.993 304.28 384.199 302.691C381.181 297.129 372.127 294.586 355.766 294.745C328.604 294.904 296.995 300.784 280.158 308.729C271.739 312.702 268.403 313.178 258.396 311.43C252.36 310.477 252.202 310.318 253.314 304.915C254.584 297.923 251.249 230.389 249.025 218.948C247.595 211.479 246.007 208.778 236.476 198.767C230.599 192.569 225.199 185.419 224.563 183.194C223.134 177.473 228.852 168.892 237.588 163.807C250.772 156.021 256.49 146.01 251.725 138.859C248.389 133.615 241.242 131.232 232.505 132.503L225.357 133.457L227.105 129.166C229.17 123.604 226.787 118.678 221.863 118.52C215.509 118.202 210.426 118.996 208.997 120.426C208.044 121.221 206.138 121.857 204.549 121.857C202.166 121.857 202.008 121.38 203.596 117.725C205.343 114.07 205.184 113.117 201.849 110.574C197.878 107.237 196.766 107.237 189.777 109.303ZM198.99 111.369C203.278 114.706 202.325 117.725 194.224 126.624L186.759 134.887L175.799 134.092C169.763 133.615 164.521 132.821 164.044 132.503C163.25 131.709 167.857 128.689 170.398 128.372C171.987 128.213 171.987 125.988 170.239 125.352C169.604 125.194 166.904 126.783 164.521 129.007C162.138 131.232 159.438 132.98 158.326 132.98C155.785 132.821 166.904 123.446 169.445 123.446C170.557 123.446 171.51 122.81 171.51 122.015C171.51 121.221 175.64 118.678 180.723 116.295C185.647 113.752 190.889 111.21 192.159 110.574C195.336 108.826 195.654 108.985 198.99 111.369ZM107.338 139.336C108.609 139.336 109.403 139.972 108.926 140.607C108.609 141.243 109.562 141.879 111.15 142.037C112.897 142.196 114.645 141.72 115.121 140.766C115.757 139.972 114.804 139.813 113.215 140.448C110.197 141.561 110.356 141.243 114.962 137.747C117.027 136.158 117.663 136.158 116.869 137.27C116.233 138.383 116.392 139.336 117.345 139.336C118.139 139.336 119.092 138.542 119.41 137.747C120.045 135.522 130.211 134.251 130.211 136.158C130.211 137.111 129.417 137.747 128.305 137.747C127.352 137.747 127.034 138.224 127.511 138.859C128.146 139.336 127.352 140.766 125.764 142.037C124.334 143.309 124.016 143.944 125.128 143.309C127.193 142.355 127.829 144.421 125.922 146.169C125.446 146.805 124.016 145.851 122.746 144.103C121.475 142.355 119.569 140.925 118.616 141.084C117.186 141.084 117.186 141.402 118.775 142.037C120.998 142.832 121.475 145.851 119.251 145.216C118.457 145.057 116.71 146.328 115.439 148.076C113.056 151.254 113.056 151.254 109.403 148.076C107.338 146.328 106.544 146.01 107.497 147.281C109.085 149.347 108.45 149.665 103.843 149.506C100.825 149.347 97.9663 149.983 97.331 150.936C96.6956 151.89 97.1721 152.048 98.6017 151.254C99.8724 150.459 100.349 150.459 99.7136 151.254C99.0782 151.89 99.2371 153.479 100.19 154.591C101.143 155.862 101.461 158.087 100.984 159.517C100.19 161.901 100.349 161.901 102.414 159.358C104.797 156.339 104.797 156.339 104.797 159.676C104.797 161.583 104.002 163.172 103.049 163.172C102.096 163.172 102.573 164.284 103.843 165.714C107.02 168.892 107.02 169.846 103.685 169.21C102.255 168.892 100.984 167.621 100.667 166.35C98.7606 156.498 97.9663 154.114 95.7426 151.731C93.8365 149.506 93.6776 148.87 95.266 148.87C96.3779 148.87 96.8544 148.394 96.3779 147.917C95.9014 147.281 96.2191 145.374 97.1721 143.468C99.0782 140.131 99.3959 139.177 99.8724 135.999C99.8724 135.046 101.143 135.522 102.573 136.794C103.843 138.224 106.067 139.336 107.338 139.336ZM156.579 135.681C155.944 136.476 155.149 136.635 154.991 136.158C154.832 135.681 153.561 136.476 152.131 137.747C150.702 139.018 149.908 140.607 150.225 141.243C150.543 141.879 150.225 142.673 149.59 143.15C148.796 143.627 148.319 142.037 148.637 139.654C148.796 137.27 148.955 135.363 149.113 135.363C151.496 134.569 157.373 134.887 156.579 135.681ZM144.507 138.542C146.731 141.243 144.983 147.122 139.901 153.161C137.359 156.339 136.406 156.498 131.323 154.909L125.605 153.161L128.623 149.188C130.37 146.964 131.8 144.103 131.8 142.673C131.8 136.635 140.536 133.774 144.507 138.542ZM159.915 143.15C164.203 143.944 163.25 145.216 158.644 145.057C155.785 144.898 153.243 143.944 152.767 142.673C152.29 141.084 152.767 140.766 154.991 141.561C156.738 142.355 158.803 142.991 159.915 143.15ZM153.084 148.235C154.037 150.618 153.72 150.618 151.337 148.711C149.749 147.599 148.16 146.328 147.843 146.169C147.525 145.851 148.319 145.692 149.59 145.692C151.019 145.692 152.608 146.805 153.084 148.235ZM120.045 151.413C118.298 152.525 116.551 153.161 116.074 152.684C115.598 152.207 116.551 150.777 118.139 149.506C119.886 148.394 121.634 147.758 122.11 148.235C122.587 148.711 121.634 150.142 120.045 151.413ZM158.803 149.506C158.803 149.983 158.167 150.777 157.214 151.254C156.42 151.731 155.626 151.413 155.626 150.618C155.626 149.665 156.42 148.87 157.214 148.87C158.167 148.87 158.803 149.188 158.803 149.506ZM108.768 153.638C109.244 154.432 108.291 155.227 106.544 155.227C104.638 155.227 103.208 154.432 103.208 153.638C103.208 152.684 104.161 152.048 105.432 152.048C106.703 152.048 108.291 152.684 108.768 153.638ZM193.271 167.462C195.495 172.071 196.925 176.838 196.448 178.109C195.019 181.923 183.582 184.306 176.593 182.24C173.416 181.446 167.38 180.651 163.25 180.651C155.944 180.651 155.626 180.492 155.626 176.043C155.626 169.687 162.456 161.901 172.145 157.451C179.77 153.955 180.246 153.955 184.535 156.498C187.077 157.928 190.889 162.854 193.271 167.462ZM117.345 156.657C118.933 157.769 118.457 158.087 115.439 157.928C113.215 157.769 111.786 157.133 112.262 156.339C113.215 154.909 114.645 154.909 117.345 156.657ZM136.088 161.742C137.2 163.807 138.153 167.462 138.153 169.846C138.153 173.501 137.041 174.454 129.417 177.314C124.652 179.221 117.822 181.128 114.327 181.605L107.815 182.717L109.562 178.109C117.186 158.246 130.211 150.142 136.088 161.742ZM112.421 165.397C110.356 169.369 110.197 169.369 108.291 166.35C106.544 163.49 106.703 162.854 109.879 161.742C114.645 159.994 114.962 160.47 112.421 165.397ZM140.536 186.213C141.965 199.72 138.312 213.386 132.594 215.928C129.258 217.358 127.193 217.041 119.728 213.227C110.038 208.301 104.797 201.786 104.797 194.476C104.797 186.849 107.338 183.83 114.009 183.83C117.186 183.671 123.858 181.923 128.623 179.857C133.388 177.791 137.836 176.043 138.312 176.043C138.947 175.884 139.901 180.492 140.536 186.213ZM188.347 184.783C194.701 183.988 194.86 183.988 195.019 188.756C195.177 195.906 189.3 214.18 185.329 218.312C183.582 220.378 180.723 221.967 179.134 221.967C172.781 221.967 159.915 212.274 163.25 210.208C164.044 209.731 163.091 206.076 161.026 201.786C158.962 197.813 157.214 191.775 157.214 188.597V182.876L169.604 184.306C176.275 184.942 184.694 185.26 188.347 184.783ZM373.398 298.241C376.575 299.195 380.069 300.943 381.181 302.055C383.246 304.756 387.852 340.033 388.17 356.083L388.329 367.206L380.387 373.403C365.297 385.162 357.355 387.864 336.388 388.499C320.821 388.976 317.644 388.817 317.644 386.91C317.644 384.844 316.374 385.003 309.385 387.387C304.778 388.976 299.378 390.247 297.472 390.406C293.977 390.406 282.699 380.713 282.699 377.535C282.699 376.581 285.558 370.066 289.053 362.916C295.883 348.614 297.472 347.184 329.558 328.274C337.5 323.666 347.03 317.469 350.842 314.608C355.449 311.113 359.579 309.365 363.073 309.365C365.932 309.365 368.791 308.57 369.427 307.458C370.221 306.186 368.474 306.028 363.073 306.663C357.831 307.458 353.384 309.365 348.936 313.178C345.283 316.039 338.135 320.806 333.211 323.666L323.998 328.751V323.348C323.998 320.488 324.633 315.88 325.428 313.019C327.175 306.981 326.381 305.869 321.298 307.934C315.421 310.159 281.587 311.748 283.493 309.682C286.511 306.504 314.15 300.466 337.5 297.606C348.142 296.493 367.997 296.811 373.398 298.241ZM321.457 321.441L320.345 330.817L306.843 339.398C296.677 346.072 291.753 348.137 286.829 348.296C283.176 348.455 275.075 349.091 268.88 349.885C252.996 351.633 252.519 350.998 252.519 331.293V315.562L256.014 317.945C260.779 321.441 266.18 321.124 272.375 317.31C276.504 314.767 278.41 314.45 281.905 315.721C284.605 316.833 286.988 316.833 289.053 315.721C290.641 314.926 297.63 314.132 304.461 314.132C311.291 314.132 317.962 313.496 319.233 312.543C322.568 310.477 322.727 311.113 321.457 321.441ZM265.703 314.291L272.375 314.45L267.768 316.356C262.526 318.74 258.238 318.104 255.378 314.45C253.631 312.384 253.79 312.066 256.173 313.019C257.761 313.655 262.05 314.132 265.703 314.291ZM287.941 313.655C286.829 313.973 284.923 313.973 283.97 313.655C282.858 313.178 283.652 312.86 285.876 312.86C288.1 312.86 288.894 313.178 287.941 313.655Z" fill="white"/>
<path d="M180.723 118.043C173.257 121.857 171.669 123.922 174.687 125.829C175.64 126.465 175.799 125.67 175.163 124.081C174.528 122.333 174.846 121.698 175.799 122.333C178.023 123.763 186.123 119.632 184.535 117.884C183.9 117.089 184.694 117.089 186.282 117.566C188.03 118.202 188.983 117.725 188.983 116.295C188.983 113.435 189.777 113.276 180.723 118.043Z" fill="white"/>
<path d="M194.701 116.454C194.224 117.566 195.019 118.043 197.084 117.566C200.578 116.613 201.213 114.388 197.719 114.388C196.448 114.388 195.177 115.341 194.701 116.454Z" fill="white"/>
<path d="M102.255 141.084C101.779 142.037 102.096 143.627 103.049 144.58C104.479 146.01 104.638 145.692 103.843 143.468C102.89 141.084 103.208 140.766 104.797 141.72C106.226 142.514 106.544 142.355 105.75 141.243C104.32 138.859 103.685 138.859 102.255 141.084Z" fill="white"/>
<path d="M129.417 193.364C128.94 194.158 127.193 194.953 125.605 194.953C124.016 194.953 122.269 196.383 121.793 198.131C120.681 202.263 123.063 212.591 125.605 214.18C130.688 217.2 136.565 208.778 136.565 198.131C136.565 192.887 136.088 191.775 133.547 191.775C131.8 191.775 129.894 192.41 129.417 193.364ZM128.94 198.449C126.558 200.832 126.399 203.534 128.623 202.104C129.576 201.468 130.052 201.945 129.894 203.216C129.576 204.328 130.37 205.123 131.482 204.805C134.182 204.328 133.865 205.123 130.37 208.301C127.352 211.002 127.352 211.002 128.146 207.506C128.782 205.441 128.464 204.328 127.511 204.964C126.717 205.441 125.922 204.646 125.922 203.216C125.922 200.515 128.305 196.542 129.894 196.542C130.37 196.542 130.052 197.336 128.94 198.449ZM134.182 199.561C134.659 200.356 134.341 201.468 133.388 202.104C132.594 202.58 131.8 201.945 131.8 200.673C131.8 197.813 132.753 197.336 134.182 199.561Z" fill="white"/>
<path d="M169.763 194.635C169.763 197.813 169.445 201.786 169.127 203.375C168.492 206.712 177.228 215.452 181.199 215.611C184.217 215.611 185.806 211.161 185.806 201.945C185.806 193.523 182.947 189.868 175.799 189.232C170.08 188.756 169.922 188.914 169.763 194.635ZM181.835 196.701C181.517 198.29 181.994 199.72 182.947 199.72C183.9 199.72 184.217 200.197 183.582 200.832C182.947 201.627 181.358 200.673 180.087 199.084C178.34 196.701 177.546 196.383 175.64 197.972C173.893 199.402 173.098 199.402 172.145 197.972C170.557 195.43 175.64 191.934 179.452 192.887C181.358 193.364 182.152 194.794 181.835 196.701ZM178.976 205.441C178.181 209.89 179.134 210.208 182.152 206.394C184.217 204.01 184.217 204.01 182.629 207.189C180.723 211.161 179.293 211.638 176.752 209.095C174.846 207.189 175.958 199.402 178.181 200.673C178.976 201.309 179.452 203.375 178.976 205.441Z" fill="white"/>
<path d="M174.687 194.953C173.257 195.906 173.098 196.542 174.21 196.542C175.163 196.542 176.593 195.747 177.069 194.953C178.34 193.046 177.705 193.046 174.687 194.953Z" fill="white"/>
<path d="M205.661 132.98C205.184 133.933 205.82 135.046 207.091 135.522C208.52 135.999 209.632 137.111 209.632 137.906C209.632 140.131 205.184 139.654 204.39 137.27C203.755 135.84 203.437 135.84 203.437 137.27C203.278 138.224 203.914 139.495 204.867 140.131C205.661 140.607 205.979 142.037 205.343 143.309C204.867 144.58 205.184 145.851 205.82 145.851C212.015 146.805 214.397 146.646 214.397 145.216C214.397 144.421 212.968 144.103 211.22 144.58C207.408 145.533 207.091 142.991 210.585 139.177C212.809 136.635 212.809 136.317 209.791 135.363C207.885 134.887 206.773 133.615 207.249 132.821C207.885 132.026 207.885 131.391 207.408 131.391C206.932 131.391 206.138 132.185 205.661 132.98Z" fill="white"/>
<path d="M227.581 137.747C225.516 138.542 223.928 139.972 223.928 140.766C223.928 142.832 228.693 141.879 230.281 139.495C230.917 138.224 232.346 137.906 233.458 138.542C234.888 139.336 235.206 139.177 234.411 138.065C233.141 135.84 232.346 135.84 227.581 137.747Z" fill="white"/>
<path d="M237.112 138.859C237.112 140.29 237.747 140.448 239.177 139.177C241.559 137.27 243.783 139.972 242.036 142.832C241.242 144.421 241.4 144.421 242.83 143.15C243.783 142.196 244.26 140.29 243.783 138.859C242.512 135.999 237.112 135.84 237.112 138.859Z" fill="white"/>
<path d="M218.527 142.355C218.051 143.15 218.527 144.103 219.639 144.58C220.91 145.057 221.863 144.421 221.863 143.15C221.863 140.607 219.798 140.131 218.527 142.355Z" fill="white"/>
<path d="M231.235 149.983C230.281 152.207 230.44 152.366 232.029 150.936C233.141 149.824 233.617 148.553 233.141 148.076C232.664 147.599 231.711 148.394 231.235 149.983Z" fill="white"/>
<path d="M232.823 154.591C232.029 156.816 232.188 156.975 234.253 155.227C236.953 153.002 237.271 152.048 235.206 152.048C234.411 152.048 233.299 153.161 232.823 154.591Z" fill="white"/>
<path d="M148.637 222.126C140.695 222.92 135.135 224.35 133.229 226.098C131.482 227.687 130.529 229.117 131.005 229.594C131.482 230.071 131.005 231.342 130.211 232.296C129.099 233.726 129.576 234.202 132.276 234.044C135.612 233.885 138.312 230.707 135.135 230.707C134.341 230.707 133.07 230.071 132.276 229.435C131.641 228.641 131.8 228.164 132.594 228.323C135.612 228.959 138.312 228.323 137.677 227.052C137.2 226.416 138.471 225.78 140.218 225.78C142.124 225.622 146.89 224.986 150.702 224.509C156.579 223.556 157.532 223.715 156.738 225.78C156.102 227.211 156.42 228.323 157.055 228.323C157.85 228.323 158.803 227.528 159.12 226.575C159.597 225.304 160.709 225.622 162.456 227.37C163.886 228.959 165.156 229.435 165.156 228.482C165.156 227.687 164.044 225.939 162.774 224.668C161.503 223.397 161.026 221.967 161.503 221.331C162.138 220.854 162.138 220.537 161.821 220.537C161.503 220.695 155.626 221.331 148.637 222.126Z" fill="white"/>
<path d="M200.102 224.191C200.102 225.463 198.195 227.846 195.813 229.594C191.683 232.613 191.524 232.931 193.748 239.287C195.177 243.737 196.289 245.167 197.084 243.896C197.878 242.783 197.401 240.4 196.131 238.493C194.224 235.474 194.383 234.838 198.672 231.024C203.12 227.052 204.867 221.967 201.69 221.967C200.896 221.967 200.102 222.92 200.102 224.191Z" fill="white"/>
<path d="M121.316 229.594C117.822 232.772 108.926 240.718 101.937 247.074C94.1541 254.066 88.9124 259.945 88.9124 261.852C88.9124 265.825 89.0712 265.666 104.638 260.104C122.746 253.43 123.699 254.542 115.757 272.499C112.421 280.126 109.562 287.277 109.562 288.23C109.562 292.362 118.616 289.66 124.334 283.781C125.922 282.033 128.623 280.762 130.37 280.762C132.117 280.762 136.088 279.649 139.424 278.378C144.825 275.994 145.46 275.994 147.207 278.537C150.225 282.669 149.749 299.036 146.413 312.702C144.666 319.217 142.283 329.387 140.854 335.584C137.994 348.455 135.93 379.283 137.994 379.283C140.059 379.283 141.33 370.384 141.171 355.447C141.171 346.072 142.124 339.239 144.189 333.2C145.937 328.433 148.796 316.992 150.861 307.934C153.879 293.792 154.196 290.137 152.608 283.463C150.225 273.293 150.225 273.611 154.832 270.592C158.485 268.208 159.12 268.208 164.998 271.386C170.239 274.088 171.828 274.247 175.005 272.657C181.676 269.162 182.788 265.666 177.546 264.394C175.64 263.759 174.528 262.964 175.163 262.329C176.434 261.057 170.239 253.748 168.016 253.748C166.904 253.748 157.532 248.186 152.608 244.69C152.131 244.372 154.196 241.83 157.055 238.811C161.344 234.361 161.821 233.249 159.756 231.66C157.85 230.071 157.532 230.23 158.326 232.931C158.962 235.474 158.485 236.268 155.785 236.268C154.037 236.268 151.496 238.016 150.066 239.923C147.366 244.055 141.33 247.392 136.724 247.392C135.135 247.392 132.912 248.345 131.958 249.616C131.005 250.729 125.922 252.159 120.84 252.635C115.757 252.953 108.291 254.86 104.32 256.608C100.349 258.356 96.8545 259.468 96.3779 259.151C95.4249 258.197 106.861 246.597 117.027 238.493C126.558 230.865 130.211 227.052 130.211 224.827C130.211 222.443 127.829 223.715 121.316 229.594ZM159.279 251.523C164.044 254.701 164.998 255.972 163.568 257.72C161.98 259.627 161.026 259.468 156.897 256.926C153.084 254.701 151.178 254.383 147.684 255.655C144.507 256.608 142.124 256.608 139.901 255.337C135.453 252.953 135.771 251.205 141.012 249.298C148.16 246.597 152.926 247.233 159.279 251.523ZM144.983 259.945C150.861 262.805 155.626 265.666 155.626 266.301C155.626 267.89 150.861 270.274 139.742 274.405C134.976 276.312 127.511 279.49 123.222 281.715C119.092 283.94 115.28 285.37 114.804 285.052C114.486 284.575 116.233 279.49 118.933 273.77C121.634 268.049 123.858 263.123 123.858 262.646C123.858 262.17 124.493 260.104 125.446 257.879C127.352 252.794 131.005 253.112 144.983 259.945ZM156.42 258.992C158.485 260.74 158.803 261.534 157.373 262.488C156.102 263.123 154.037 262.329 151.973 260.263C149.272 257.72 149.113 256.926 151.019 256.926C152.29 256.926 154.673 257.879 156.42 258.992ZM173.098 263.123L176.434 267.89L173.098 269.638C170.398 271.068 168.81 270.91 165.792 268.844C161.344 265.983 160.868 262.488 164.839 260.263C168.81 257.879 169.445 258.038 173.098 263.123Z" fill="white"/>
<path d="M127.034 261.693C127.034 262.488 127.829 263.282 128.623 263.282C129.576 263.282 130.211 262.488 130.211 261.693C130.211 260.74 129.576 260.104 128.623 260.104C127.829 260.104 127.034 260.74 127.034 261.693Z" fill="white"/>
<path d="M134.341 272.34C133.706 274.088 134.182 274.088 136.565 272.816C140.377 270.751 140.536 270.115 137.359 270.115C136.088 270.115 134.818 271.068 134.341 272.34Z" fill="white"/>
<path d="M122.746 273.929C123.381 274.405 122.904 275.994 121.793 277.425C120.045 279.649 120.204 279.649 122.587 277.742C125.128 275.836 125.128 272.816 122.746 272.816C122.11 272.816 122.269 273.293 122.746 273.929Z" fill="white"/>
<path d="M167.38 230.548C167.38 232.613 168.016 234.044 168.81 233.567C170.875 232.296 173.416 241.671 172.622 247.709C171.669 254.701 174.052 255.814 175.64 249.457C176.434 246.597 175.64 241.989 173.734 236.427C170.398 227.211 166.904 224.033 167.38 230.548Z" fill="white"/>
<path d="M150.543 233.567C147.525 236.586 145.937 237.063 143.872 235.95C142.283 235.156 140.695 234.838 140.218 235.315C139.583 235.791 140.059 236.268 141.171 236.268C142.283 236.268 142.601 236.904 142.124 237.857C141.489 238.811 142.283 238.97 144.03 238.493C146.095 237.857 145.778 238.493 142.919 241.035C140.695 242.942 140.059 243.896 141.489 243.101C145.619 241.035 156.102 231.342 155.149 230.548C154.673 230.071 152.608 231.501 150.543 233.567Z" fill="white"/>
<path d="M183.741 234.997C180.882 240.559 180.246 255.972 182.947 254.383C183.9 253.748 184.217 250.57 183.741 247.392C183.264 243.101 183.9 240.082 185.965 236.904C189.141 231.978 189.777 229.912 187.712 229.912C187.077 229.912 185.329 232.296 183.741 234.997Z" fill="white"/>
<path d="M167.698 238.334C168.174 239.923 169.127 240.718 169.604 240.241C170.08 239.764 169.604 238.493 168.492 237.381C166.904 235.95 166.745 236.109 167.698 238.334Z" fill="white"/>
<path d="M115.598 241.989C113.851 244.69 118.298 248.504 123.54 248.663C126.399 248.663 128.305 248.186 127.829 247.392C127.352 246.756 125.128 246.279 122.904 246.597C120.045 246.915 118.457 246.12 117.663 243.737C117.027 241.989 116.074 241.194 115.598 241.989Z" fill="white"/>
<path d="M119.092 241.671C119.092 241.989 120.204 242.624 121.475 243.26C122.746 243.737 123.858 243.419 123.858 242.624C123.858 241.671 122.746 241.035 121.475 241.035C120.204 241.035 119.092 241.353 119.092 241.671Z" fill="white"/>
<path d="M159.756 244.055C159.12 244.849 159.438 245.961 160.232 246.438C161.026 247.074 162.138 246.756 162.615 245.961C163.25 245.167 162.933 244.055 162.138 243.578C161.344 242.942 160.232 243.26 159.756 244.055Z" fill="white"/>
<path d="M164.998 246.915C162.933 249.457 163.091 249.616 165.633 247.55C167.062 246.279 168.969 245.803 169.445 246.438C170.08 247.074 169.604 248.345 168.333 249.14C166.268 250.57 166.268 250.729 168.333 250.093C171.51 249.298 172.463 244.213 169.445 244.213C168.174 244.213 166.109 245.485 164.998 246.915Z" fill="white"/>
<path d="M107.179 249.14C106.544 250.093 106.385 251.046 106.861 251.523C107.179 252 107.973 251.205 108.45 249.775C109.562 247.074 108.609 246.597 107.179 249.14Z" fill="white"/>
<path d="M110.515 250.411C109.879 251.205 110.991 251.523 112.739 251.046C116.392 250.093 116.868 248.981 113.692 248.981C112.421 248.981 110.991 249.616 110.515 250.411Z" fill="white"/>
<path d="M245.689 298.082C245.213 300.466 245.054 303.962 245.53 305.71C246.166 308.093 245.53 309.206 242.989 309.841C241.083 310.318 239.177 312.225 238.7 313.973C238.065 316.674 236.635 317.31 231.552 317.31C226.628 317.31 225.04 317.945 224.404 320.329C223.769 322.554 221.545 323.507 214.397 324.302C208.838 324.937 203.437 326.685 201.055 328.592C197.878 331.135 196.289 331.452 193.907 330.181C189.459 327.798 183.264 328.115 177.705 330.976C174.052 332.724 171.669 333.041 168.492 331.929C165.474 330.817 163.091 330.976 160.391 332.406C157.055 334.154 155.944 333.995 152.131 331.293C147.684 328.115 145.778 329.704 149.908 333.041C151.178 333.995 152.449 337.014 152.767 339.557C153.561 344.324 151.814 345.913 145.937 345.913C144.348 345.913 142.919 346.548 142.919 347.502C142.919 349.409 150.225 349.568 153.72 347.661C155.467 346.707 159.438 346.866 164.362 347.979L172.304 349.885L171.987 357.831C171.828 362.121 171.669 367.047 171.669 368.477C171.51 370.066 170.875 371.338 169.922 371.338C169.127 371.338 168.81 370.225 169.286 368.954C170.08 367.206 169.604 366.888 167.698 367.524C164.68 368.636 164.521 370.225 166.745 377.535C168.174 382.779 168.174 382.779 165.156 380.077C163.409 378.488 161.98 376.264 161.98 375.31C161.98 374.198 160.868 372.45 159.597 371.338C157.532 369.59 157.214 370.066 157.214 374.675C157.214 383.255 154.991 385.003 151.178 379.76C147.366 374.516 145.142 375.469 148.001 381.031C154.196 392.79 158.803 394.697 158.803 385.48C158.803 382.938 159.597 380.872 160.391 380.872C161.344 380.872 161.98 381.666 161.98 382.62C161.98 383.414 162.615 383.891 163.25 383.414C164.044 382.938 164.521 384.209 164.521 386.116C164.362 391.519 168.969 390.406 169.922 384.844L170.716 380.236L174.052 384.368C178.658 390.247 193.748 393.584 193.748 388.658C193.748 387.864 192.001 387.228 189.936 387.228C181.041 387.228 170.398 380.236 178.34 379.76C182.152 379.442 187.235 373.562 187.394 369.272C187.394 367.683 185.647 365.776 183.582 364.981C181.517 364.187 179.293 362.757 178.658 361.803C178.181 361.009 177.07 360.532 176.593 360.85C175.958 361.168 175.64 358.784 175.958 355.447C176.593 348.932 177.705 348.137 186.441 347.661C188.983 347.661 192.795 346.389 195.019 344.959C198.037 343.052 199.784 342.894 203.596 344.165C210.744 346.707 215.509 346.389 222.181 342.894C225.357 341.304 230.281 338.921 233.141 337.809C236.159 336.855 239.653 333.995 241.083 331.77C242.512 329.546 244.895 326.844 246.166 325.732C248.231 323.984 248.072 323.825 244.895 323.666C239.971 323.666 238.7 319.376 242.512 315.244C247.436 310 249.342 305.551 247.754 303.008C246.96 301.737 246.96 299.671 247.913 298.082C249.66 294.586 249.66 293.474 247.913 293.474C247.119 293.474 246.166 295.54 245.689 298.082ZM237.271 325.732C239.177 330.976 236.794 333.836 229.487 335.266C226.946 335.902 225.516 335.902 226.628 335.425C227.899 334.948 228.217 332.883 227.581 330.022C226.31 323.507 228.058 320.17 232.188 320.806C234.411 321.124 236.317 323.03 237.271 325.732ZM221.386 329.387C225.357 333.359 224.404 337.173 218.845 339.715C213.444 342.258 205.343 342.258 203.12 340.033C202.484 339.398 201.69 337.332 201.372 335.743C201.055 333.2 202.484 331.929 208.044 329.863C217.098 326.367 218.368 326.208 221.386 329.387ZM195.177 336.22C197.719 340.669 193.271 343.37 183.423 343.688C175.799 343.847 175.163 343.688 175.799 340.51C177.387 333.518 177.705 333.2 185.647 333.2C191.842 333.2 194.066 333.836 195.177 336.22ZM169.604 337.332C176.116 341.781 174.052 344.483 164.521 344.165C157.055 343.847 156.102 343.37 156.897 340.828C157.373 339.08 159.12 337.014 161.026 336.378C165.633 334.472 165.633 334.472 169.604 337.332ZM182.629 369.748C182.629 373.88 175.005 379.124 173.257 376.264C172.463 375.151 172.781 372.45 173.734 370.384C175.958 365.617 182.629 364.981 182.629 369.748ZM171.51 376.74C171.51 377.217 170.875 378.012 169.922 378.488C169.127 378.965 168.333 378.647 168.333 377.853C168.333 376.899 169.127 376.105 169.922 376.105C170.875 376.105 171.51 376.423 171.51 376.74Z" fill="white"/>
<path d="M258.555 296.652C263.162 300.943 262.685 304.756 257.443 306.504C255.378 307.14 255.378 307.299 257.443 308.093C260.938 309.523 263.956 307.14 264.274 302.849C264.591 298.4 261.097 293.474 257.602 293.474C255.696 293.474 256.014 294.269 258.555 296.652Z" fill="white"/>
<path d="M135.135 331.135C132.753 333.2 132.276 334.63 133.388 336.378C134.659 338.444 134.976 338.285 134.976 335.902C134.976 334.472 135.612 333.2 136.406 333.2C137.2 333.2 138.153 332.088 138.789 330.817C139.901 327.798 139.265 327.798 135.135 331.135Z" fill="white"/>
<path d="M266.815 358.625C266.815 359.42 267.609 360.214 268.562 360.214C269.357 360.214 269.674 361.009 269.198 361.803C268.562 362.757 268.88 363.233 269.833 363.074C270.627 362.757 272.533 364.028 273.804 365.776C276.346 368.795 276.346 368.795 275.393 364.505C274.757 361.803 275.075 360.214 276.187 360.214C277.14 360.214 278.093 360.85 278.093 361.803C278.252 362.598 278.569 364.028 278.728 364.981C278.887 365.776 279.205 367.047 279.364 367.683C279.522 368.477 280.475 367.524 281.428 365.935C282.858 363.551 282.54 362.439 280.158 360.691C278.569 359.579 276.346 358.943 275.234 359.261C274.122 359.737 272.851 359.42 272.375 358.625C271.104 356.559 266.815 356.559 266.815 358.625Z" fill="white"/>
<path d="M260.779 361.327C257.602 361.962 257.126 362.916 257.443 369.113C257.761 372.927 258.238 376.105 258.714 376.105C259.191 376.105 259.826 377.694 259.826 379.601C260.144 383.573 263.003 395.173 263.956 395.809C264.115 396.127 266.338 396.762 268.88 397.398C272.216 398.192 273.169 397.875 273.169 395.968C273.169 394.22 274.122 393.584 276.028 394.22C278.093 395.014 279.522 394.061 280.793 391.201C283.176 385.957 283.176 385.162 280.793 386.116C279.681 386.434 278.728 387.705 278.728 388.976C278.728 390.247 277.14 391.201 275.234 391.042C273.328 391.042 271.898 391.677 272.057 392.472C272.533 394.538 266.974 395.173 265.703 393.266C265.227 392.313 265.544 391.995 266.497 392.631C267.45 393.108 268.562 392.949 269.198 392.154C269.674 391.201 268.721 390.883 266.974 391.201C264.591 391.677 263.797 390.565 263.003 386.751C262.526 383.891 261.732 380.236 261.256 378.488C260.938 376.74 260.144 373.244 259.508 370.702C258.714 367.524 258.873 366.411 260.144 367.206C261.414 368.001 261.732 367.524 261.097 365.935C260.461 364.187 261.097 363.392 263.479 363.392C265.385 363.392 266.815 362.598 266.815 361.803C266.815 360.85 266.339 360.373 265.703 360.373C264.909 360.532 262.844 361.009 260.779 361.327Z" fill="white"/>
<path d="M266.815 373.086C266.815 373.88 267.609 374.198 268.403 373.721C269.357 373.244 269.992 372.45 269.992 371.973C269.992 371.655 269.357 371.338 268.403 371.338C267.609 371.338 266.815 372.132 266.815 373.086Z" fill="white"/>
<path d="M272.533 374.039C271.58 376.264 271.739 376.422 273.328 374.992C274.439 373.88 274.916 372.609 274.439 372.132C273.963 371.655 273.01 372.45 272.533 374.039Z" fill="white"/>
<path d="M264.432 382.461C264.909 383.255 265.703 384.05 266.18 384.05C266.497 384.05 266.815 383.255 266.815 382.461C266.815 381.507 266.021 380.872 265.068 380.872C264.274 380.872 263.956 381.507 264.432 382.461Z" fill="white"/>
<path d="M269.198 387.228C269.674 388.023 270.468 388.817 270.945 388.817C271.263 388.817 271.58 388.023 271.58 387.228C271.58 386.275 270.786 385.639 269.833 385.639C269.039 385.639 268.721 386.275 269.198 387.228Z" fill="white"/>
<path d="M798.345 591.303C793.421 592.733 779.284 600.996 767.53 609.259C760.859 613.868 758.635 614.185 738.462 613.55C732.744 613.232 727.82 614.026 724.484 615.774C721.784 617.205 717.972 618.158 716.065 617.84C712.889 617.363 713.524 616.41 721.148 609.259C727.184 603.539 729.408 600.361 728.773 598.454C728.137 597.024 727.026 595.911 725.914 595.911C722.26 595.911 707.488 613.232 703.676 621.813C701.134 627.851 698.911 630.87 697.004 630.87C695.416 630.87 687.474 634.048 679.214 638.021C665.713 644.536 662.218 647.238 643.157 665.988C623.143 685.534 622.19 686.805 625.049 688.871C626.796 690.142 628.703 691.254 629.497 691.254C632.197 691.254 630.45 694.75 624.573 701.265C621.237 704.92 617.425 710.005 616.154 712.707C609.959 724.783 611.548 735.43 619.013 733.523C624.255 732.093 623.937 733.682 616.154 749.731C610.753 760.696 609.324 765.781 608.847 773.885C608.212 783.896 608.371 784.373 612.501 786.28C616.154 788.028 616.631 788.981 615.678 792.636C613.613 800.74 612.977 814.883 614.724 818.061C615.678 819.809 619.49 822.351 623.143 823.622L629.973 825.847L629.497 833.157C628.861 841.737 632.356 848.57 641.41 856.516C646.493 861.124 647.922 861.601 656.818 861.283C662.059 861.124 666.983 860.965 667.619 861.124C668.254 861.124 667.301 864.461 665.554 868.275C660.471 879.875 666.507 888.614 681.756 891.475C691.127 893.382 725.437 890.68 728.455 887.979C729.408 886.867 726.231 886.867 719.719 887.661C714.001 888.456 701.611 889.091 692.239 889.091C675.084 889.091 674.925 888.932 670.954 884.483C667.778 880.669 667.142 878.762 668.095 874.154C668.572 870.976 669.207 866.209 669.366 863.666L669.684 858.899L660.63 859.376C650.94 860.012 645.063 857.787 639.186 851.431C634.58 846.664 630.609 836.653 631.721 833.633C633.627 828.548 630.926 823.463 625.208 821.557C615.201 818.22 612.183 808.844 617.266 796.608C620.602 788.822 620.284 787.074 615.36 784.691C606.941 780.718 609.324 766.258 621.555 744.011C626.955 734.318 626.479 730.981 619.649 730.981C615.36 730.981 614.883 730.504 614.883 726.213C614.883 719.381 618.378 711.753 624.89 704.602C632.356 696.021 634.262 692.208 632.038 689.983C630.926 688.871 629.179 688.076 628.067 688.076C626.955 688.076 626.002 687.6 626.002 686.964C626.002 686.328 634.739 677.271 645.54 666.942C662.853 650.098 666.666 647.238 681.12 640.087C699.228 631.188 700.817 631.188 703.676 641.517C705.582 648.191 705.105 649.621 696.687 662.651C692.875 668.372 685.091 682.356 679.214 693.956C668.889 714.137 668.413 715.567 667.142 730.504C666.348 739.085 665.395 748.619 664.76 751.638C663.965 757.041 664.442 757.836 681.914 775.633C691.763 785.803 704.47 797.562 710.188 801.852C715.907 805.984 724.961 813.293 730.52 817.902C739.097 825.052 745.133 828.231 745.133 825.688C745.133 824.894 722.101 806.302 706.694 794.702C693.192 784.532 666.825 755.293 668.095 751.956C668.731 750.367 669.843 741.786 670.478 732.887C671.749 716.679 671.907 716.044 682.391 695.545C688.268 683.945 696.369 669.643 700.181 663.764C707.17 653.276 707.488 653.117 710.347 655.66C713.206 658.361 713.524 658.202 715.748 655.342C718.448 651.687 718.607 652.64 716.383 659.314C715.43 662.016 713.842 664.24 712.73 664.24C711.3 664.24 710.824 667.419 710.983 674.569C711.141 683.945 711.618 685.375 715.907 689.665C718.448 692.367 724.961 696.18 730.044 698.405C738.303 701.742 740.051 701.901 742.751 700.153C751.646 694.274 753.552 681.72 750.058 653.117C748.469 641.199 749.105 638.021 753.87 634.048C755.935 632.301 757.047 632.459 761.018 635.32C763.559 637.227 767.212 638.816 769.119 638.816C772.137 638.816 771.978 639.451 766.577 645.331L760.541 652.005L761.494 664.082C762.924 683.468 771.184 701.901 780.079 705.556C791.992 710.482 798.822 703.808 804.699 681.72C804.858 681.243 805.493 675.046 806.129 667.895C807.241 655.977 807.082 654.229 803.587 647.397C801.681 643.265 798.028 638.657 795.486 637.227C791.356 634.684 791.356 634.525 794.216 631.824C796.757 629.44 797.234 629.44 799.14 631.665C801.522 634.525 805.97 634.843 805.176 631.983C804.699 631.029 802.952 629.917 801.046 629.599C798.822 629.281 797.551 627.851 797.551 625.944C797.551 621.972 794.851 621.972 793.58 625.944C793.104 627.692 791.515 629.917 790.086 631.188C787.862 632.936 787.544 632.936 788.815 631.029C789.45 629.917 787.862 630.553 785.162 632.459C782.461 634.366 779.284 635.638 777.855 635.161C776.108 634.525 775.79 635.002 776.425 636.75C777.219 638.816 776.902 638.975 774.043 637.385C772.137 636.273 770.548 636.114 770.548 636.75C770.548 637.385 769.595 636.909 768.642 635.955C767.054 634.366 767.054 633.572 768.96 632.459C770.707 631.347 770.707 630.87 769.277 630.87C768.166 630.87 767.689 630.076 768.166 629.281C768.96 628.01 769.913 628.01 771.342 629.281C772.931 630.553 773.407 630.394 773.09 628.646C772.931 627.216 772.295 625.785 771.819 625.15C771.184 624.673 771.025 623.402 771.184 622.448C771.501 621.336 771.342 621.018 771.025 621.654C769.913 623.72 765.465 623.084 766.101 621.018C767.212 617.999 772.137 618.158 775.472 621.495C778.014 624.037 778.331 625.15 776.743 627.057C775.155 628.964 775.313 629.122 777.696 628.328C779.761 627.533 780.237 627.692 779.443 628.964C777.855 631.665 780.079 631.188 786.432 627.533C789.45 625.785 790.562 624.832 788.815 625.468C781.508 627.851 780.555 627.851 779.443 625.15C778.967 623.72 778.808 622.131 779.284 621.654C779.761 621.177 780.079 621.654 780.079 622.607C780.079 623.72 781.191 624.514 782.62 624.514C784.844 624.514 784.844 624.037 783.255 622.131C782.144 620.7 780.237 619.906 778.967 620.383C777.855 620.859 776.902 620.542 776.902 619.588C776.902 617.999 784.844 618.476 787.862 620.383C788.656 620.859 789.609 620.7 789.927 619.747C790.403 618.158 800.093 622.29 804.54 625.944C805.652 626.898 807.876 632.142 809.464 637.544C811.212 643.106 812.959 647.873 813.435 648.35C813.912 648.827 816.612 653.753 819.313 659.473C825.031 671.232 831.543 679.813 832.973 677.43C833.449 676.635 832.179 672.662 829.955 668.849C823.601 657.408 815.5 640.087 813.435 633.254C812.324 629.758 809.782 624.991 807.717 622.766C803.746 618.635 803.905 616.092 808.035 617.681C809.306 618.158 810.894 616.887 812.006 614.344C814.071 609.736 816.453 609.1 819.63 612.12C820.901 613.232 821.377 613.391 820.901 612.596C820.424 611.643 820.583 609.895 821.536 608.624C822.648 606.558 822.966 606.558 822.966 608.624C822.966 610.689 823.125 610.689 824.713 608.624C825.984 606.876 826.619 606.717 827.255 608.147C828.049 610.531 832.496 611.007 832.496 608.783C832.496 607.988 831.543 606.558 830.273 605.604C827.255 603.062 814.23 607.67 807.399 613.55C804.54 616.092 801.046 618.158 799.457 618.158C792.309 617.999 818.201 602.267 825.666 602.267C830.908 602.267 834.085 603.857 834.085 606.558C834.085 610.213 827.731 619.747 825.349 619.747C824.237 619.747 822.489 620.859 821.377 622.131C818.677 625.468 820.901 624.991 830.114 620.542C838.85 616.251 851.557 615.139 854.417 618.635C855.687 620.065 855.528 621.813 854.099 624.832C852.828 627.216 852.352 629.599 852.828 630.076C853.464 630.711 852.828 631.029 851.557 630.87C850.287 630.711 848.063 630.553 846.792 630.711C844.727 630.87 844.727 631.029 846.792 632.459C848.698 633.572 848.539 634.525 845.204 638.18L841.233 642.47L846.474 639.769C852.828 636.591 858.229 628.169 856.958 623.72C856.005 620.7 856.164 620.7 858.705 623.084C860.929 625.309 861.088 626.421 859.499 629.44C856.799 634.684 849.81 641.994 847.586 641.994C846.474 641.994 844.41 643.424 842.821 645.172C839.644 648.668 835.832 649.621 838.691 646.125C839.962 644.695 839.962 642.788 839.009 640.246C837.897 637.703 837.42 637.227 837.42 639.133C837.262 640.564 836.785 641.994 836.15 642.47C835.356 642.788 835.832 642.788 836.944 642.629C837.897 642.312 838.85 642.788 838.85 643.583C838.85 645.966 833.449 646.284 830.59 644.06C828.684 642.312 827.731 642.153 826.778 643.742C826.143 644.854 826.302 645.331 827.255 644.695C828.208 644.06 829.796 644.695 830.749 645.807C832.02 647.397 832.179 648.35 830.908 649.144C830.114 649.621 829.32 649.303 829.32 648.509C829.32 647.555 828.367 646.761 827.096 646.761C825.825 646.761 824.395 645.807 824.078 644.695C823.442 643.265 823.125 643.265 823.125 644.854C822.966 645.966 822.172 646.443 821.219 645.966C820.266 645.331 820.424 646.284 821.536 648.032C823.125 650.575 824.078 650.892 825.666 649.621C827.255 648.35 827.731 648.827 827.731 652.164C827.731 657.09 830.908 657.725 832.02 653.117C832.496 651.369 833.608 649.939 834.402 649.939C835.197 649.939 835.356 648.986 834.72 647.873C833.926 646.443 834.085 646.443 835.673 647.873C837.42 649.621 837.262 650.575 834.402 653.594C827.731 660.586 831.702 672.345 844.092 683.468C854.417 692.526 855.846 697.928 857.911 734.159C860.135 776.427 860.135 775.792 858.864 794.543C857.593 811.704 861.247 865.891 864.424 877.332C865.218 880.51 867.6 884.324 869.824 885.754C876.178 889.886 878.084 888.614 872.366 883.847C866.33 878.921 864.582 871.771 863.471 848.411L862.835 834.905H867.918C870.777 834.905 878.878 834.428 886.185 833.633C895.557 832.68 899.21 832.839 899.21 834.11C899.21 835.063 896.668 840.943 893.65 847.14L887.932 858.264L891.427 863.984C893.333 867.003 896.986 870.817 899.528 872.247L903.975 875.108L898.098 877.809C894.762 879.239 888.885 881.464 884.914 882.576C878.56 884.642 878.243 884.801 882.532 884.96C885.232 884.96 893.015 882.417 900.004 879.239C912.553 873.518 913.029 873.518 939.715 872.565C968.783 871.453 968.306 871.612 985.62 860.488C999.598 851.431 1001.35 847.935 999.28 832.203C998.486 826.8 997.056 814.565 996.103 805.03C995.15 795.496 993.562 786.28 992.768 784.691C989.75 779.129 980.696 776.586 964.335 776.745C937.173 776.904 905.564 782.784 888.726 790.729C880.308 794.702 876.972 795.178 866.965 793.43C860.929 792.477 860.77 792.318 861.882 786.915C863.153 779.923 859.817 712.389 857.593 700.948C856.164 693.479 854.575 690.778 845.045 680.767C839.168 674.569 833.767 667.419 833.132 665.194C831.702 659.473 837.42 650.892 846.157 645.807C859.341 638.021 865.059 628.01 860.294 620.859C856.958 615.615 849.81 613.232 841.074 614.503L833.926 615.457L835.673 611.166C837.738 605.604 835.356 600.678 830.431 600.52C824.078 600.202 818.995 600.996 817.565 602.426C816.612 603.221 814.706 603.857 813.118 603.857C810.735 603.857 810.576 603.38 812.165 599.725C813.912 596.07 813.753 595.117 810.417 592.574C806.446 589.237 805.334 589.237 798.345 591.303ZM807.558 593.369C811.847 596.706 810.894 599.725 802.793 608.624L795.327 616.887L784.367 616.092C778.331 615.615 773.09 614.821 772.613 614.503C771.819 613.709 776.425 610.689 778.967 610.372C780.555 610.213 780.555 607.988 778.808 607.352C778.173 607.194 775.472 608.783 773.09 611.007C770.707 613.232 768.007 614.98 766.895 614.98C764.353 614.821 775.472 605.446 778.014 605.446C779.126 605.446 780.079 604.81 780.079 604.015C780.079 603.221 784.209 600.678 789.291 598.295C794.216 595.752 799.457 593.21 800.728 592.574C803.905 590.826 804.223 590.985 807.558 593.369ZM715.907 621.336C717.177 621.336 717.972 621.972 717.495 622.607C717.177 623.243 718.13 623.879 719.719 624.037C721.466 624.196 723.213 623.72 723.69 622.766C724.325 621.972 723.372 621.813 721.784 622.448C718.766 623.561 718.925 623.243 723.531 619.747C725.596 618.158 726.231 618.158 725.437 619.27C724.802 620.383 724.961 621.336 725.914 621.336C726.708 621.336 727.661 620.542 727.979 619.747C728.614 617.522 738.78 616.251 738.78 618.158C738.78 619.111 737.986 619.747 736.874 619.747C735.921 619.747 735.603 620.224 736.08 620.859C736.715 621.336 735.921 622.766 734.332 624.037C732.903 625.309 732.585 625.944 733.697 625.309C735.762 624.355 736.397 626.421 734.491 628.169C734.015 628.805 732.585 627.851 731.314 626.103C730.044 624.355 728.137 622.925 727.184 623.084C725.755 623.084 725.755 623.402 727.343 624.037C729.567 624.832 730.044 627.851 727.82 627.216C727.026 627.057 725.278 628.328 724.008 630.076C721.625 633.254 721.625 633.254 717.972 630.076C715.907 628.328 715.112 628.01 716.065 629.281C717.654 631.347 717.018 631.665 712.412 631.506C709.394 631.347 706.535 631.983 705.9 632.936C705.264 633.89 705.741 634.048 707.17 633.254C708.441 632.459 708.918 632.459 708.282 633.254C707.647 633.89 707.806 635.479 708.759 636.591C709.712 637.862 710.029 640.087 709.553 641.517C708.759 643.901 708.918 643.901 710.983 641.358C713.365 638.339 713.365 638.339 713.365 641.676C713.365 643.583 712.571 645.172 711.618 645.172C710.665 645.172 711.141 646.284 712.412 647.714C715.589 650.892 715.589 651.846 712.253 651.21C710.824 650.892 709.553 649.621 709.235 648.35C707.329 638.498 706.535 636.114 704.311 633.731C702.405 631.506 702.246 630.87 703.835 630.87C704.947 630.87 705.423 630.394 704.947 629.917C704.47 629.281 704.788 627.374 705.741 625.468C707.647 622.131 707.965 621.177 708.441 617.999C708.441 617.046 709.712 617.522 711.141 618.794C712.412 620.224 714.636 621.336 715.907 621.336ZM765.148 617.681C764.512 618.476 763.718 618.635 763.559 618.158C763.4 617.681 762.13 618.476 760.7 619.747C759.27 621.018 758.476 622.607 758.794 623.243C759.112 623.879 758.794 624.673 758.158 625.15C757.364 625.627 756.888 624.037 757.205 621.654C757.364 619.27 757.523 617.363 757.682 617.363C760.065 616.569 765.942 616.887 765.148 617.681ZM753.076 620.542C755.299 623.243 753.552 629.122 748.469 635.161C745.928 638.339 744.975 638.498 739.892 636.909L734.173 635.161L737.191 631.188C738.939 628.964 740.368 626.103 740.368 624.673C740.368 618.635 749.105 615.774 753.076 620.542ZM768.483 625.15C772.772 625.944 771.819 627.216 767.212 627.057C764.353 626.898 761.812 625.944 761.335 624.673C760.859 623.084 761.335 622.766 763.559 623.561C765.306 624.355 767.371 624.991 768.483 625.15ZM761.653 630.235C762.606 632.618 762.288 632.618 759.906 630.711C758.317 629.599 756.729 628.328 756.411 628.169C756.094 627.851 756.888 627.692 758.158 627.692C759.588 627.692 761.176 628.805 761.653 630.235ZM728.614 633.413C726.867 634.525 725.119 635.161 724.643 634.684C724.166 634.207 725.119 632.777 726.708 631.506C728.455 630.394 730.202 629.758 730.679 630.235C731.155 630.711 730.202 632.142 728.614 633.413ZM767.371 631.506C767.371 631.983 766.736 632.777 765.783 633.254C764.989 633.731 764.194 633.413 764.194 632.618C764.194 631.665 764.989 630.87 765.783 630.87C766.736 630.87 767.371 631.188 767.371 631.506ZM717.336 635.638C717.813 636.432 716.86 637.227 715.112 637.227C713.206 637.227 711.777 636.432 711.777 635.638C711.777 634.684 712.73 634.048 714.001 634.048C715.271 634.048 716.86 634.684 717.336 635.638ZM801.84 649.462C804.064 654.071 805.493 658.838 805.017 660.109C803.587 663.923 792.151 666.306 785.162 664.24C781.985 663.446 775.949 662.651 771.819 662.651C764.512 662.651 764.194 662.492 764.194 658.043C764.194 651.687 771.025 643.901 780.714 639.451C788.338 635.955 788.815 635.955 793.104 638.498C795.645 639.928 799.457 644.854 801.84 649.462ZM725.914 638.657C727.502 639.769 727.026 640.087 724.008 639.928C721.784 639.769 720.354 639.133 720.831 638.339C721.784 636.909 723.213 636.909 725.914 638.657ZM744.657 643.742C745.769 645.807 746.722 649.462 746.722 651.846C746.722 655.501 745.61 656.454 737.986 659.314C733.22 661.221 726.39 663.128 722.896 663.605L716.383 664.717L718.13 660.109C725.755 640.246 738.78 632.142 744.657 643.742ZM720.99 647.397C718.925 651.369 718.766 651.369 716.86 648.35C715.112 645.49 715.271 644.854 718.448 643.742C723.213 641.994 723.531 642.47 720.99 647.397ZM749.105 668.213C750.534 681.72 746.881 695.386 741.162 697.928C737.827 699.358 735.762 699.041 728.296 695.227C718.607 690.301 713.365 683.786 713.365 676.476C713.365 668.849 715.907 665.83 722.578 665.83C725.755 665.671 732.426 663.923 737.191 661.857C741.957 659.791 746.404 658.043 746.881 658.043C747.516 657.884 748.469 662.492 749.105 668.213ZM796.916 666.783C803.27 665.988 803.428 665.988 803.587 670.756C803.746 677.906 797.869 696.18 793.898 700.312C792.151 702.378 789.291 703.967 787.703 703.967C781.349 703.967 768.483 694.274 771.819 692.208C772.613 691.731 771.66 688.076 769.595 683.786C767.53 679.813 765.783 673.775 765.783 670.597V664.876L778.173 666.306C784.844 666.942 793.263 667.26 796.916 666.783ZM981.966 780.241C985.143 781.195 988.638 782.943 989.75 784.055C991.815 786.756 996.421 822.033 996.739 838.083L996.898 849.206L988.955 855.403C973.865 867.162 965.923 869.864 944.956 870.499C929.39 870.976 926.213 870.817 926.213 868.91C926.213 866.844 924.942 867.003 917.953 869.387C913.347 870.976 907.946 872.247 906.04 872.406C902.546 872.406 891.268 862.713 891.268 859.535C891.268 858.581 894.127 852.066 897.621 844.916C904.452 830.614 906.04 829.184 938.126 810.274C946.068 805.666 955.599 799.469 959.411 796.608C964.017 793.113 968.147 791.365 971.642 791.365C974.501 791.365 977.36 790.57 977.995 789.458C978.79 788.186 977.042 788.028 971.642 788.663C966.4 789.458 961.952 791.365 957.505 795.178C953.851 798.039 946.704 802.806 941.779 805.666L932.567 810.751V805.348C932.567 802.488 933.202 797.88 933.996 795.019C935.743 788.981 934.949 787.869 929.866 789.934C923.989 792.159 890.156 793.748 892.062 791.682C895.08 788.504 922.718 782.466 946.068 779.606C956.711 778.493 976.566 778.811 981.966 780.241ZM930.025 803.441L928.913 812.817L915.412 821.398C905.246 828.072 900.322 830.137 895.398 830.296C891.744 830.455 883.643 831.091 877.449 831.885C861.564 833.633 861.088 832.998 861.088 813.293V797.562L864.582 799.945C869.348 803.441 874.748 803.124 880.943 799.31C885.073 796.767 886.979 796.45 890.474 797.721C893.174 798.833 895.557 798.833 897.621 797.721C899.21 796.926 906.199 796.132 913.029 796.132C919.859 796.132 926.531 795.496 927.801 794.543C931.137 792.477 931.296 793.113 930.025 803.441ZM874.272 796.291L880.943 796.45L876.337 798.356C871.095 800.74 866.806 800.104 863.947 796.45C862.2 794.384 862.359 794.066 864.741 795.019C866.33 795.655 870.618 796.132 874.272 796.291ZM896.51 795.655C895.398 795.973 893.492 795.973 892.539 795.655C891.427 795.178 892.221 794.86 894.445 794.86C896.668 794.86 897.463 795.178 896.51 795.655Z" fill="white"/>
<path d="M789.291 600.043C781.826 603.857 780.237 605.922 783.255 607.829C784.209 608.465 784.367 607.67 783.732 606.081C783.097 604.333 783.414 603.698 784.367 604.333C786.591 605.763 794.692 601.632 793.104 599.884C792.468 599.089 793.263 599.089 794.851 599.566C796.598 600.202 797.551 599.725 797.551 598.295C797.551 595.435 798.345 595.276 789.291 600.043Z" fill="white"/>
<path d="M803.27 598.454C802.793 599.566 803.587 600.043 805.652 599.566C809.147 598.613 809.782 596.388 806.288 596.388C805.017 596.388 803.746 597.341 803.27 598.454Z" fill="white"/>
<path d="M710.824 623.084C710.347 624.037 710.665 625.627 711.618 626.58C713.047 628.01 713.206 627.692 712.412 625.468C711.459 623.084 711.777 622.766 713.365 623.72C714.795 624.514 715.112 624.355 714.318 623.243C712.889 620.859 712.253 620.859 710.824 623.084Z" fill="white"/>
<path d="M737.986 675.364C737.509 676.158 735.762 676.953 734.173 676.953C732.585 676.953 730.838 678.383 730.361 680.131C729.249 684.263 731.632 694.591 734.173 696.18C739.256 699.2 745.133 690.778 745.133 680.131C745.133 674.887 744.657 673.775 742.115 673.775C740.368 673.775 738.462 674.41 737.986 675.364ZM737.509 680.449C735.126 682.832 734.968 685.534 737.191 684.104C738.144 683.468 738.621 683.945 738.462 685.216C738.144 686.328 738.939 687.123 740.051 686.805C742.751 686.328 742.433 687.123 738.939 690.301C735.921 693.002 735.921 693.002 736.715 689.506C737.35 687.441 737.033 686.328 736.08 686.964C735.285 687.441 734.491 686.646 734.491 685.216C734.491 682.515 736.874 678.542 738.462 678.542C738.939 678.542 738.621 679.336 737.509 680.449ZM742.751 681.561C743.227 682.356 742.91 683.468 741.957 684.104C741.162 684.58 740.368 683.945 740.368 682.673C740.368 679.813 741.321 679.336 742.751 681.561Z" fill="white"/>
<path d="M778.331 676.635C778.331 679.813 778.014 683.786 777.696 685.375C777.061 688.712 785.797 697.452 789.768 697.611C792.786 697.611 794.374 693.161 794.374 683.945C794.374 675.523 791.515 671.868 784.367 671.232C778.649 670.756 778.49 670.914 778.331 676.635ZM790.403 678.701C790.086 680.29 790.562 681.72 791.515 681.72C792.468 681.72 792.786 682.197 792.151 682.832C791.515 683.627 789.927 682.673 788.656 681.084C786.909 678.701 786.115 678.383 784.209 679.972C782.461 681.402 781.667 681.402 780.714 679.972C779.126 677.43 784.209 673.934 788.021 674.887C789.927 675.364 790.721 676.794 790.403 678.701ZM787.544 687.441C786.75 691.89 787.703 692.208 790.721 688.394C792.786 686.01 792.786 686.01 791.198 689.189C789.291 693.161 787.862 693.638 785.32 691.095C783.414 689.189 784.526 681.402 786.75 682.673C787.544 683.309 788.021 685.375 787.544 687.441Z" fill="white"/>
<path d="M783.255 676.953C781.826 677.906 781.667 678.542 782.779 678.542C783.732 678.542 785.162 677.747 785.638 676.953C786.909 675.046 786.273 675.046 783.255 676.953Z" fill="white"/>
<path d="M814.23 614.98C813.753 615.933 814.388 617.046 815.659 617.522C817.089 617.999 818.201 619.111 818.201 619.906C818.201 622.131 813.753 621.654 812.959 619.27C812.324 617.84 812.006 617.84 812.006 619.27C811.847 620.224 812.482 621.495 813.435 622.131C814.23 622.607 814.547 624.037 813.912 625.309C813.435 626.58 813.753 627.851 814.388 627.851C820.583 628.805 822.966 628.646 822.966 627.216C822.966 626.421 821.536 626.103 819.789 626.58C815.977 627.533 815.659 624.991 819.154 621.177C821.377 618.635 821.377 618.317 818.359 617.363C816.453 616.887 815.341 615.615 815.818 614.821C816.453 614.026 816.453 613.391 815.977 613.391C815.5 613.391 814.706 614.185 814.23 614.98Z" fill="white"/>
<path d="M836.15 619.747C834.085 620.542 832.496 621.972 832.496 622.766C832.496 624.832 837.262 623.879 838.85 621.495C839.485 620.224 840.915 619.906 842.027 620.542C843.456 621.336 843.774 621.177 842.98 620.065C841.709 617.84 840.915 617.84 836.15 619.747Z" fill="white"/>
<path d="M845.68 620.859C845.68 622.29 846.316 622.448 847.745 621.177C850.128 619.27 852.352 621.972 850.604 624.832C849.81 626.421 849.969 626.421 851.399 625.15C852.352 624.196 852.828 622.29 852.352 620.859C851.081 617.999 845.68 617.84 845.68 620.859Z" fill="white"/>
<path d="M827.096 624.355C826.619 625.15 827.096 626.103 828.208 626.58C829.478 627.057 830.431 626.421 830.431 625.15C830.431 622.607 828.367 622.131 827.096 624.355Z" fill="white"/>
<path d="M839.803 631.983C838.85 634.207 839.009 634.366 840.597 632.936C841.709 631.824 842.186 630.553 841.709 630.076C841.233 629.599 840.28 630.394 839.803 631.983Z" fill="white"/>
<path d="M841.392 636.591C840.597 638.816 840.756 638.975 842.821 637.227C845.521 635.002 845.839 634.048 843.774 634.048C842.98 634.048 841.868 635.161 841.392 636.591Z" fill="white"/>
<path d="M757.205 704.126C749.263 704.92 743.704 706.35 741.798 708.098C740.051 709.687 739.097 711.117 739.574 711.594C740.051 712.071 739.574 713.342 738.78 714.296C737.668 715.726 738.144 716.202 740.845 716.044C744.18 715.885 746.881 712.707 743.704 712.707C742.91 712.707 741.639 712.071 740.845 711.435C740.209 710.641 740.368 710.164 741.162 710.323C744.18 710.959 746.881 710.323 746.245 709.052C745.769 708.416 747.04 707.78 748.787 707.78C750.693 707.622 755.458 706.986 759.27 706.509C765.148 705.556 766.101 705.715 765.306 707.78C764.671 709.211 764.989 710.323 765.624 710.323C766.418 710.323 767.371 709.528 767.689 708.575C768.166 707.304 769.277 707.622 771.025 709.37C772.454 710.959 773.725 711.435 773.725 710.482C773.725 709.687 772.613 707.939 771.342 706.668C770.072 705.397 769.595 703.967 770.072 703.331C770.707 702.854 770.707 702.537 770.389 702.537C770.072 702.695 764.194 703.331 757.205 704.126Z" fill="white"/>
<path d="M808.67 706.191C808.67 707.463 806.764 709.846 804.381 711.594C800.252 714.613 800.093 714.931 802.316 721.287C803.746 725.737 804.858 727.167 805.652 725.896C806.446 724.783 805.97 722.4 804.699 720.493C802.793 717.474 802.952 716.838 807.241 713.024C811.688 709.052 813.435 703.967 810.259 703.967C809.464 703.967 808.67 704.92 808.67 706.191Z" fill="white"/>
<path d="M729.885 711.594C726.39 714.772 717.495 722.718 710.506 729.074C702.723 736.066 697.481 741.945 697.481 743.852C697.481 747.825 697.64 747.666 713.206 742.104C731.314 735.43 732.267 736.542 724.325 754.499C720.99 762.126 718.13 769.277 718.13 770.23C718.13 774.362 727.184 771.66 732.903 765.781C734.491 764.033 737.191 762.762 738.939 762.762C740.686 762.762 744.657 761.649 747.993 760.378C753.393 757.994 754.029 757.994 755.776 760.537C758.794 764.669 758.317 781.036 754.982 794.702C753.234 801.217 750.852 811.387 749.422 817.584C746.563 830.455 744.498 861.283 746.563 861.283C748.628 861.283 749.899 852.384 749.74 837.447C749.74 828.072 750.693 821.239 752.758 815.2C754.505 810.433 757.364 798.992 759.429 789.934C762.447 775.792 762.765 772.137 761.176 765.463C758.794 755.293 758.794 755.611 763.4 752.592C767.054 750.208 767.689 750.208 773.566 753.386C778.808 756.088 780.396 756.247 783.573 754.657C790.245 751.162 791.356 747.666 786.115 746.394C784.209 745.759 783.097 744.964 783.732 744.329C785.003 743.057 778.808 735.748 776.584 735.748C775.472 735.748 766.101 730.186 761.176 726.69C760.7 726.372 762.765 723.83 765.624 720.811C769.913 716.361 770.389 715.249 768.324 713.66C766.418 712.071 766.101 712.23 766.895 714.931C767.53 717.474 767.054 718.268 764.353 718.268C762.606 718.268 760.065 720.016 758.635 721.923C755.935 726.055 749.899 729.392 745.292 729.392C743.704 729.392 741.48 730.345 740.527 731.616C739.574 732.729 734.491 734.159 729.408 734.635C724.325 734.953 716.86 736.86 712.889 738.608C708.918 740.356 705.423 741.468 704.947 741.151C703.993 740.197 715.43 728.597 725.596 720.493C735.126 712.865 738.78 709.052 738.78 706.827C738.78 704.443 736.397 705.715 729.885 711.594ZM767.848 733.523C772.613 736.701 773.566 737.972 772.137 739.72C770.548 741.627 769.595 741.468 765.465 738.926C761.653 736.701 759.747 736.383 756.252 737.655C753.076 738.608 750.693 738.608 748.469 737.337C744.022 734.953 744.339 733.205 749.581 731.298C756.729 728.597 761.494 729.233 767.848 733.523ZM753.552 741.945C759.429 744.805 764.194 747.666 764.194 748.301C764.194 749.89 759.429 752.274 748.31 756.405C743.545 758.312 736.08 761.49 731.791 763.715C727.661 765.94 723.849 767.37 723.372 767.052C723.054 766.575 724.802 761.49 727.502 755.77C730.202 750.049 732.426 745.123 732.426 744.646C732.426 744.17 733.062 742.104 734.015 739.879C735.921 734.794 739.574 735.112 753.552 741.945ZM764.989 740.992C767.054 742.74 767.371 743.534 765.942 744.488C764.671 745.123 762.606 744.329 760.541 742.263C757.841 739.72 757.682 738.926 759.588 738.926C760.859 738.926 763.241 739.879 764.989 740.992ZM781.667 745.123L785.003 749.89L781.667 751.638C778.967 753.068 777.378 752.91 774.36 750.844C769.913 747.983 769.436 744.488 773.407 742.263C777.378 739.879 778.014 740.038 781.667 745.123Z" fill="white"/>
<path d="M735.603 743.693C735.603 744.488 736.397 745.282 737.191 745.282C738.144 745.282 738.78 744.488 738.78 743.693C738.78 742.74 738.144 742.104 737.191 742.104C736.397 742.104 735.603 742.74 735.603 743.693Z" fill="white"/>
<path d="M742.91 754.34C742.274 756.088 742.751 756.088 745.133 754.816C748.946 752.751 749.105 752.115 745.928 752.115C744.657 752.115 743.386 753.068 742.91 754.34Z" fill="white"/>
<path d="M731.314 755.929C731.95 756.405 731.473 757.994 730.361 759.425C728.614 761.649 728.773 761.649 731.155 759.742C733.697 757.836 733.697 754.816 731.314 754.816C730.679 754.816 730.838 755.293 731.314 755.929Z" fill="white"/>
<path d="M775.949 712.548C775.949 714.613 776.584 716.044 777.378 715.567C779.443 714.296 781.985 723.671 781.191 729.709C780.237 736.701 782.62 737.814 784.209 731.457C785.003 728.597 784.209 723.989 782.302 718.427C778.967 709.211 775.472 706.033 775.949 712.548Z" fill="white"/>
<path d="M759.112 715.567C756.094 718.586 754.505 719.063 752.44 717.95C750.852 717.156 749.263 716.838 748.787 717.315C748.151 717.791 748.628 718.268 749.74 718.268C750.852 718.268 751.169 718.904 750.693 719.857C750.058 720.811 750.852 720.97 752.599 720.493C754.664 719.857 754.346 720.493 751.487 723.035C749.263 724.942 748.628 725.896 750.058 725.101C754.187 723.035 764.671 713.342 763.718 712.548C763.241 712.071 761.176 713.501 759.112 715.567Z" fill="white"/>
<path d="M792.309 716.997C789.45 722.559 788.815 737.972 791.515 736.383C792.468 735.748 792.786 732.57 792.309 729.392C791.833 725.101 792.468 722.082 794.533 718.904C797.71 713.978 798.345 711.912 796.281 711.912C795.645 711.912 793.898 714.296 792.309 716.997Z" fill="white"/>
<path d="M776.266 720.334C776.743 721.923 777.696 722.718 778.173 722.241C778.649 721.764 778.173 720.493 777.061 719.381C775.472 717.95 775.313 718.109 776.266 720.334Z" fill="white"/>
<path d="M724.166 723.989C722.419 726.69 726.867 730.504 732.108 730.663C734.968 730.663 736.874 730.186 736.397 729.392C735.921 728.756 733.697 728.279 731.473 728.597C728.614 728.915 727.026 728.12 726.231 725.737C725.596 723.989 724.643 723.194 724.166 723.989Z" fill="white"/>
<path d="M727.661 723.671C727.661 723.989 728.773 724.624 730.044 725.26C731.314 725.737 732.426 725.419 732.426 724.624C732.426 723.671 731.314 723.035 730.044 723.035C728.773 723.035 727.661 723.353 727.661 723.671Z" fill="white"/>
<path d="M768.324 726.055C767.689 726.849 768.007 727.961 768.801 728.438C769.595 729.074 770.707 728.756 771.184 727.961C771.819 727.167 771.501 726.055 770.707 725.578C769.913 724.942 768.801 725.26 768.324 726.055Z" fill="white"/>
<path d="M773.566 728.915C771.501 731.457 771.66 731.616 774.201 729.55C775.631 728.279 777.537 727.803 778.014 728.438C778.649 729.074 778.173 730.345 776.902 731.14C774.837 732.57 774.837 732.729 776.902 732.093C780.079 731.298 781.032 726.213 778.014 726.213C776.743 726.213 774.678 727.485 773.566 728.915Z" fill="white"/>
<path d="M715.748 731.14C715.112 732.093 714.954 733.046 715.43 733.523C715.748 734 716.542 733.205 717.019 731.775C718.13 729.074 717.177 728.597 715.748 731.14Z" fill="white"/>
<path d="M719.083 732.411C718.448 733.205 719.56 733.523 721.307 733.046C724.961 732.093 725.437 730.981 722.26 730.981C720.99 730.981 719.56 731.616 719.083 732.411Z" fill="white"/>
<path d="M854.258 780.082C853.781 782.466 853.622 785.962 854.099 787.71C854.734 790.093 854.099 791.206 851.557 791.841C849.651 792.318 847.745 794.225 847.269 795.973C846.633 798.674 845.204 799.31 840.121 799.31C835.197 799.31 833.608 799.945 832.973 802.329C832.338 804.554 830.114 805.507 822.966 806.302C817.406 806.937 812.006 808.685 809.623 810.592C806.446 813.135 804.858 813.452 802.475 812.181C798.028 809.798 791.833 810.115 786.273 812.976C782.62 814.724 780.237 815.041 777.061 813.929C774.043 812.817 771.66 812.976 768.96 814.406C765.624 816.154 764.512 815.995 760.7 813.293C756.252 810.115 754.346 811.704 758.476 815.041C759.747 815.995 761.018 819.014 761.335 821.557C762.13 826.324 760.382 827.913 754.505 827.913C752.917 827.913 751.487 828.548 751.487 829.502C751.487 831.409 758.794 831.568 762.288 829.661C764.036 828.707 768.007 828.866 772.931 829.979L780.873 831.885L780.555 839.831C780.396 844.121 780.237 849.047 780.237 850.477C780.079 852.066 779.443 853.338 778.49 853.338C777.696 853.338 777.378 852.225 777.855 850.954C778.649 849.206 778.173 848.888 776.266 849.524C773.248 850.636 773.09 852.225 775.313 859.535C776.743 864.779 776.743 864.779 773.725 862.077C771.978 860.488 770.548 858.264 770.548 857.31C770.548 856.198 769.436 854.45 768.166 853.338C766.101 851.59 765.783 852.066 765.783 856.675C765.783 865.255 763.559 867.003 759.747 861.76C755.935 856.516 753.711 857.469 756.57 863.031C762.765 874.79 767.371 876.697 767.371 867.48C767.371 864.938 768.166 862.872 768.96 862.872C769.913 862.872 770.548 863.666 770.548 864.62C770.548 865.414 771.184 865.891 771.819 865.414C772.613 864.938 773.09 866.209 773.09 868.116C772.931 873.519 777.537 872.406 778.49 866.844L779.284 862.236L782.62 866.368C787.227 872.247 802.316 875.584 802.316 870.658C802.316 869.864 800.569 869.228 798.504 869.228C789.609 869.228 778.967 862.236 786.909 861.76C790.721 861.442 795.804 855.562 795.963 851.272C795.963 849.683 794.216 847.776 792.151 846.981C790.086 846.187 787.862 844.757 787.227 843.803C786.75 843.009 785.638 842.532 785.162 842.85C784.526 843.168 784.209 840.784 784.526 837.447C785.162 830.932 786.273 830.137 795.01 829.661C797.551 829.661 801.363 828.389 803.587 826.959C806.605 825.052 808.352 824.894 812.165 826.165C819.313 828.707 824.078 828.389 830.749 824.894C833.926 823.304 838.85 820.921 841.709 819.809C844.727 818.855 848.222 815.995 849.651 813.77C851.081 811.546 853.463 808.844 854.734 807.732C856.799 805.984 856.64 805.825 853.463 805.666C848.539 805.666 847.269 801.376 851.081 797.244C856.005 792 857.911 787.551 856.323 785.008C855.528 783.737 855.528 781.671 856.481 780.082C858.229 776.586 858.229 775.474 856.481 775.474C855.687 775.474 854.734 777.54 854.258 780.082ZM845.839 807.732C847.745 812.976 845.363 815.836 838.056 817.266C835.514 817.902 834.085 817.902 835.197 817.425C836.467 816.948 836.785 814.883 836.15 812.022C834.879 805.507 836.626 802.17 840.756 802.806C842.98 803.124 844.886 805.03 845.839 807.732ZM829.955 811.387C833.926 815.359 832.973 819.173 827.413 821.715C822.013 824.258 813.912 824.258 811.688 822.033C811.053 821.398 810.259 819.332 809.941 817.743C809.623 815.2 811.053 813.929 816.612 811.863C825.666 808.367 826.937 808.208 829.955 811.387ZM803.746 818.22C806.288 822.669 801.84 825.37 791.992 825.688C784.367 825.847 783.732 825.688 784.367 822.51C785.956 815.518 786.273 815.2 794.216 815.2C800.41 815.2 802.634 815.836 803.746 818.22ZM778.173 819.332C784.685 823.781 782.62 826.483 773.09 826.165C765.624 825.847 764.671 825.37 765.465 822.828C765.942 821.08 767.689 819.014 769.595 818.378C774.202 816.472 774.202 816.472 778.173 819.332ZM791.198 851.748C791.198 855.88 783.573 861.124 781.826 858.264C781.032 857.151 781.349 854.45 782.302 852.384C784.526 847.617 791.198 846.981 791.198 851.748ZM780.079 858.74C780.079 859.217 779.443 860.012 778.49 860.488C777.696 860.965 776.902 860.647 776.902 859.853C776.902 858.899 777.696 858.105 778.49 858.105C779.443 858.105 780.079 858.423 780.079 858.74Z" fill="white"/>
<path d="M867.124 778.652C871.73 782.943 871.254 786.756 866.012 788.504C863.947 789.14 863.947 789.299 866.012 790.093C869.507 791.523 872.525 789.14 872.842 784.849C873.16 780.4 869.665 775.474 866.171 775.474C864.265 775.474 864.582 776.269 867.124 778.652Z" fill="white"/>
<path d="M743.704 813.135C741.321 815.2 740.845 816.63 741.957 818.378C743.227 820.444 743.545 820.285 743.545 817.902C743.545 816.472 744.18 815.2 744.975 815.2C745.769 815.2 746.722 814.088 747.357 812.817C748.469 809.798 747.834 809.798 743.704 813.135Z" fill="white"/>
<path d="M875.384 840.625C875.384 841.42 876.178 842.214 877.131 842.214C877.925 842.214 878.243 843.009 877.766 843.803C877.131 844.757 877.449 845.233 878.402 845.074C879.196 844.757 881.102 846.028 882.373 847.776C884.914 850.795 884.914 850.795 883.961 846.505C883.326 843.803 883.643 842.214 884.755 842.214C885.708 842.214 886.661 842.85 886.661 843.803C886.82 844.598 887.138 846.028 887.297 846.981C887.456 847.776 887.773 849.047 887.932 849.683C888.091 850.477 889.044 849.524 889.997 847.935C891.427 845.551 891.109 844.439 888.726 842.691C887.138 841.579 884.914 840.943 883.802 841.261C882.69 841.737 881.42 841.42 880.943 840.625C879.672 838.559 875.384 838.559 875.384 840.625Z" fill="white"/>
<path d="M869.348 843.327C866.171 843.962 865.694 844.916 866.012 851.113C866.33 854.927 866.806 858.105 867.283 858.105C867.759 858.105 868.395 859.694 868.395 861.601C868.712 865.573 871.571 877.173 872.524 877.809C872.683 878.127 874.907 878.762 877.449 879.398C880.784 880.192 881.737 879.875 881.737 877.968C881.737 876.22 882.69 875.584 884.596 876.22C886.661 877.014 888.091 876.061 889.362 873.201C891.744 867.957 891.744 867.162 889.362 868.116C888.25 868.434 887.297 869.705 887.297 870.976C887.297 872.247 885.708 873.201 883.802 873.042C881.896 873.042 880.467 873.677 880.625 874.472C881.102 876.538 875.542 877.173 874.272 875.266C873.795 874.313 874.113 873.995 875.066 874.631C876.019 875.108 877.131 874.949 877.766 874.154C878.243 873.201 877.29 872.883 875.542 873.201C873.16 873.677 872.366 872.565 871.571 868.751C871.095 865.891 870.301 862.236 869.824 860.488C869.506 858.74 868.712 855.244 868.077 852.702C867.283 849.524 867.442 848.411 868.712 849.206C869.983 850.001 870.301 849.524 869.665 847.935C869.03 846.187 869.665 845.392 872.048 845.392C873.954 845.392 875.384 844.598 875.384 843.803C875.384 842.85 874.907 842.373 874.272 842.373C873.478 842.532 871.413 843.009 869.348 843.327Z" fill="white"/>
<path d="M875.384 855.086C875.384 855.88 876.178 856.198 876.972 855.721C877.925 855.244 878.56 854.45 878.56 853.973C878.56 853.655 877.925 853.338 876.972 853.338C876.178 853.338 875.384 854.132 875.384 855.086Z" fill="white"/>
<path d="M881.102 856.039C880.149 858.264 880.308 858.422 881.896 856.992C883.008 855.88 883.485 854.609 883.008 854.132C882.532 853.655 881.578 854.45 881.102 856.039Z" fill="white"/>
<path d="M873.001 864.461C873.478 865.255 874.272 866.05 874.748 866.05C875.066 866.05 875.384 865.255 875.384 864.461C875.384 863.507 874.589 862.872 873.636 862.872C872.842 862.872 872.524 863.507 873.001 864.461Z" fill="white"/>
<path d="M877.766 869.228C878.243 870.023 879.037 870.817 879.514 870.817C879.831 870.817 880.149 870.023 880.149 869.228C880.149 868.275 879.355 867.639 878.402 867.639C877.607 867.639 877.29 868.275 877.766 869.228Z" fill="white"/>
</svg>
