<svg width="181" height="144" viewBox="0 0 181 144" fill="none" xmlns="http://www.w3.org/2000/svg">
<path d="M128.8 26.6L128.2 27.4L128.4 27.6L129 26.7999L128.8 26.6ZM3 137.4C2.46667 137.267 1.46667 136.733 0 135.8C0.4 135.133 0.8 134.267 1.2 133.2C1.46667 132.133 1.93333 131.333 2.6 130.8C2.6 130.667 2.6 130.467 2.6 130.2C2.46667 129.933 2.46667 129.733 2.6 129.6C2.86667 129.467 3.06667 129.2 3.2 128.8C3.2 128.4 3.2 128.133 3.2 128L4.4 124.4L6.8 117.8C7.06667 117.133 7.4 116.267 7.8 115.2C8.06667 114.133 8.4 113.267 8.8 112.6C8.66667 112.067 8.8 111.467 9.2 110.8C9.73333 110.133 10 109.6 10 109.2V109C9.86667 108.733 9.86667 108.4 10 108C10.1333 107.6 10.3333 107.267 10.6 107C11.1333 106.467 11.5333 105.6 11.8 104.4C12.2 103.2 12.6 102.333 13 101.8C13.2667 101.4 13.4667 100.8 13.6 100C13.8667 99.2 14.1333 98.5333 14.4 98C14.4 97.8666 14.4667 97.5333 14.6 97C14.7333 96.3333 15.2 95.9333 16 95.8C16 95.6666 15.9333 95.4 15.8 95C15.8 94.6 15.9333 94.2 16.2 93.7999C16.6 93.5333 16.8667 93.0666 17 92.4C17.1333 91.7333 17.2667 91.2666 17.4 91C17.5333 90.7333 17.7333 90.4666 18 90.2C18.4 89.8 18.6 89.4666 18.6 89.2C18.6 88.6666 18.7333 87.9999 19 87.2L20 84C20 83.8666 20.0667 83.6666 20.2 83.3999C20.3333 82.9999 20.6 82.9333 21 83.2C20.7333 82.3999 20.8 81.5999 21.2 80.7999C21.7333 79.9999 22.0667 79.5333 22.2 79.4C22.2 79.5333 22.2667 79.8 22.4 80.2C22.6667 80.6 23.0667 80.7999 23.6 80.7999H24L23.6 79.8C23.6 79.4 23.4667 79.2 23.2 79.2C22.9333 79.2 22.7333 79.2 22.6 79.2C22.6 78.8 22.6 78.5333 22.6 78.4C22.7333 78.1333 22.9333 78 23.2 78C23.3333 77.4666 23.5333 76.9333 23.8 76.3999C24.0667 75.7333 24.2667 75.1999 24.4 74.7999C24.6667 74.7999 24.8 74.9333 24.8 75.2C24.9333 75.3333 24.9333 75.5333 24.8 75.7999L26.8 75.6C26.5333 75.3333 26.2667 75.0666 26 74.7999C25.7333 74.4 25.4667 74.1333 25.2 74C24.6667 73.8666 24.6 73.4666 25 72.8C25.2667 72.6666 25.7333 72.6 26.4 72.6C26.2667 72.8666 26.2 73.2666 26.2 73.8C26.6 73.4 27 73.2666 27.4 73.4C27.8 73.5333 28.1333 73.6 28.4 73.6C28.6667 73.6 28.8667 73.4 29 73L27 71.7999L26.4 72.4C26.1333 72.2666 25.9333 72.0666 25.8 71.7999C25.8 71.5333 25.8667 71.2666 26 71C26.1333 70.6 26.3333 69.9999 26.6 69.2C26.8667 68.3999 27.2667 67.7333 27.8 67.2C27.9333 67.0666 28 66.8 28 66.4C28.1333 65.8666 28.2667 65.4666 28.4 65.2C28.5333 64.8 28.6667 64.4666 28.8 64.2C28.9333 63.8 29.0667 63.4666 29.2 63.2C29.4667 62.4 29.7333 61.8 30 61.4C30.5333 60.0666 31 59.0666 31.4 58.4L35.8 49.6C36.2 48.8 36.6 47.9333 37 47C37.5333 45.9333 38.0667 44.8666 38.6 43.8L44.4 33C44.4 32.8666 44.5333 32.6666 44.8 32.3999L46.2 30.8C46.2 30.2666 46.3333 29.6666 46.6 29C47 28.3333 47.2667 27.7333 47.4 27.2C47.4 26.9333 47.5333 26.6666 47.8 26.4C48.0667 26 48.2667 25.7333 48.4 25.6L51.2 19.8C51.3333 19.5333 51.6667 19.1333 52.2 18.6L52.6 17.5999L53.2 16.5999C54 15.8 54.4 14.7333 54.4 13.4C54.4 12.6 54.2 12.1333 53.8 11.9999C53.2667 11.6 52.9333 11 52.8 10.1999C52.6667 9.39995 52.6 8.93329 52.6 8.79995H53.8L58.6 8.19995C58.8667 8.19995 59.2667 8.19995 59.8 8.19995C60.3333 8.19995 60.8667 8.13328 61.4 7.99995C62.0667 7.73329 62.4 7.53329 62.4 7.39995L63.4 6.79996L64 7.79995H64.2L64.6 6.19995C65 6.33328 65.3333 6.39995 65.6 6.39995C66 6.26662 66.2667 5.99995 66.4 5.59995C66.8 5.19995 67.0667 5.13329 67.2 5.39995C68.2667 5.39995 68.8 4.86662 68.8 3.79995C69.2 3.66662 69.9333 3.59995 71 3.59995C72.2 3.59995 73.0667 3.19995 73.6 2.39995C74.1333 2.53328 74.4667 2.86662 74.6 3.39995C74.7333 3.79995 74.8667 4.06662 75 4.19995C75.1333 3.93328 75.3333 3.66662 75.6 3.39995C75.8667 3.13329 76.1333 2.73329 76.4 2.19996L78.2 3.19995C78.3333 3.19995 78.8 3.06662 79.6 2.79995H80.2C80.4667 3.19995 81.0667 3.66662 82 4.19995C82.9333 4.59996 83.6 5.06662 84 5.59995C84.1333 5.86662 84.2 6.39995 84.2 7.19995C83.9333 8.26662 84.2 9.06662 85 9.59996C85.2667 9.73329 85.5333 10.3333 85.8 11.4C85.8 11.6666 85.6667 11.8666 85.4 11.9999C85.2667 12.1333 85.2667 12.2666 85.4 12.4C85.4 13.6 85.6 14.2666 86 14.4C86.5333 14.6666 86.6667 14.9999 86.4 15.4C86.1333 15.6666 86 15.8666 86 16L86.6 16.2C86.3333 17.1333 86.2667 17.8 86.4 18.2C86.6667 20.0666 86.9333 21.4666 87.2 22.4C87.6 24.4 87.8 25.4666 87.8 25.6C87.8 26.5333 87.8667 27.4 88 28.2C88.1333 28.8666 88.2 29.5333 88.2 30.2C88.2 31 88.3333 32.0666 88.6 33.4C88.6 33.8 88.8667 34.3999 89.4 35.1999C89.1333 35.7333 89.0667 36.1999 89.2 36.6C89.2 36.6 89.5333 36.9333 90.2 37.6C90.0667 37.6 89.9333 37.6666 89.8 37.7999C89.8 37.7999 89.7333 37.7999 89.6 37.7999C89.6 37.7999 89.5333 37.8666 89.4 38C89.6667 38.4 89.9333 39.0666 90.2 40C90.4667 40.8 90.6 41.5333 90.6 42.2V43.2C91 43.4666 91.0667 43.8 90.8 44.2C90.6667 44.6 90.6 44.8666 90.6 45C90.4667 45.1333 90.4 45.2666 90.4 45.4C90.5333 45.5333 90.6 45.6666 90.6 45.8C90.8667 45.2666 91.0667 44.9333 91.2 44.8L91.4 45.4C91.1333 46.6 91.1333 47.4666 91.4 48C91.4 48.2666 91.4 48.6 91.4 49C91.5333 49.4 91.7333 49.8666 92 50.4C92.1333 50.9333 92.2 51.7333 92.2 52.8C92.2 53.3333 92.3333 54 92.6 54.8C92.8667 55.6 93 56.2 93 56.6C93.1333 56.7333 93.2667 56.8666 93.4 57C93.5333 57 93.6667 57.0666 93.8 57.2C93.4 57.3333 93.3333 57.5333 93.6 57.8C93.7333 57.9333 93.7333 58.1333 93.6 58.4C93.6 58.5333 93.6667 58.6666 93.8 58.8C93.9333 59.0666 94 59.6 94 60.4C94.1333 61.0666 94.3333 61.5333 94.6 61.8L95 61.6L98.4 57.2L98.6 56.8C99.2667 56.1333 100.067 55.0666 101 53.6C102.067 52 102.867 50.8666 103.4 50.2C103.667 49.8 104.067 49.2 104.6 48.4C105.267 47.6 105.933 47 106.6 46.6L106.8 46.2C106.4 46.0666 106.267 45.8666 106.4 45.6C106.533 45.3333 106.733 45.2 107 45.2C107.667 44.9333 108.2 44.4666 108.6 43.8C109.133 43 109.6 42.4 110 42L111 41.2C111.667 40.8 112.133 40.3333 112.4 39.7999C112.8 39.1333 113.067 38.7333 113.2 38.6C113.333 38.4666 113.467 38.2 113.6 37.7999C113.733 37.4 114.133 37.2 114.8 37.2C115.067 36.9333 115.133 36.6666 115 36.4C114.867 35.7333 115 35.1333 115.4 34.6C115.933 34.0666 116.267 33.7333 116.4 33.6L119.4 30.8L120.2 29.5999C120.2 29.4666 120.267 29.2 120.4 28.8C120.667 28.4 121.067 28.2 121.6 28.2H121.8C121.8 28.2 122 28 122.4 27.6L128.4 21.4L129.2 20.3999C129.2 20.3999 129.533 20.7333 130.2 21.4L130.4 19.2L131.6 21C131.867 20.4666 132.467 19.8 133.4 19C134.467 18.0666 135.133 17.1333 135.4 16.2C135.4 15.9333 135.6 15.7999 136 15.7999L136.6 15.6C136.6 14.8 136.933 14.2666 137.6 14C138.4 13.6 138.867 13.3333 139 13.2C139.133 13.0666 139.8 12.5999 141 11.8L141.4 11.4C141.8 10.4666 142.467 9.59995 143.4 8.79995C144.333 7.86662 145 7.13328 145.4 6.59995L146.4 5.79996L145.4 4.99996C145.533 4.33329 145.867 3.66662 146.4 2.99996C147.067 2.19995 147.533 1.53328 147.8 0.999947C147.933 0.866616 148.267 0.79995 148.8 0.79995C149.067 0.666618 149.267 0.666618 149.4 0.79995C149.667 0.79995 149.933 0.79995 150.2 0.79995C150.2 0.933281 150.133 1.06662 150 1.19996C150 1.33329 150.067 1.46662 150.2 1.59995C150.2 1.86662 150.4 1.99996 150.8 1.99996C150.933 2.13329 151.133 2.19996 151.4 2.19996C151.8 2.19996 152.067 2.33329 152.2 2.59995C152.333 2.86662 152.533 3.06662 152.8 3.19995C153.067 3.19995 153.267 3.26662 153.4 3.39995L154.8 2.39995L154.6 3.59995C154.867 3.86662 155.067 3.99996 155.2 3.99996C155.333 3.99996 155.6 3.93329 156 3.79995C156.4 3.53328 156.667 3.73329 156.8 4.39995H157C157.667 4.13329 158.2 4.33329 158.6 4.99996C159.133 5.53329 159.467 5.86662 159.6 5.99995L161.2 4.79996L161.4 5.99995C161.533 5.99995 162 5.99995 162.8 5.99995C163.6 5.99995 164.267 6.33329 164.8 6.99995L165.2 7.19995C165.733 6.79995 166.2 6.86661 166.6 7.39995C167 7.93328 167.333 8.26662 167.6 8.39995C167.867 7.99995 168.133 7.39995 168.4 6.59995L168.8 6.99995C169.6 7.93328 170.133 8.53328 170.4 8.79995C170.667 8.79995 171.2 8.66662 172 8.39995L171.8 10.4L172.8 10.1999L173 11.9999C173.267 11.8666 173.467 11.8 173.6 11.8C173.733 11.6666 173.867 11.5333 174 11.4C174.4 10.8666 174.667 10.6666 174.8 10.8C175.067 10.8 175.267 11.1333 175.4 11.8H176.8L177.4 10.6C178.2 10.7333 178.733 11.2 179 11.9999C179.267 12.6666 179.4 13.0666 179.4 13.2C179.533 13.4666 179.733 13.8 180 14.2C180.267 14.6 180.4 14.9333 180.4 15.2L180 16.2C179.6 16.3333 179.267 16.7333 179 17.4C178.733 17.9333 178.533 18.3333 178.4 18.6C178.133 19.2666 177.867 19.6666 177.6 19.8C177.333 19.8 177.133 19.9333 177 20.2C177 20.4666 177 20.8 177 21.1999C177 21.7333 176.6 22.2666 175.8 22.8C175.533 22.9333 175.4 23.0666 175.4 23.1999C175.4 23.3333 175.467 23.5333 175.6 23.8C175.467 23.9333 175.133 24.2666 174.6 24.8C174.2 25.2 174 25.6 174 26V27.2H173.2L173.8 28C173.8 28 173.733 28.0666 173.6 28.2C173.333 28.0666 173.133 28.1333 173 28.4C172.867 28.6666 172.8 28.8666 172.8 29C172.8 29.4 172.667 29.7333 172.4 30C172.267 30.2666 172.133 30.4666 172 30.6L168.8 36.4L165.2 44.2L162.2 51L159.2 58.2C157.6 61.6666 156.667 63.8 156.4 64.6C156 65.4 155.333 67.2666 154.4 70.2C154.133 70.8666 153.867 71.6 153.6 72.4L148.8 84C147.733 86.4 147 88.2 146.6 89.3999C146.333 90.0666 146.133 90.6666 146 91.2C146 91.7333 146 92.1333 146 92.4C145.333 94 145 94.8666 145 95C144.333 96.8666 143.933 98 143.8 98.4C143.667 99.0666 143.333 99.8 142.8 100.6C142.4 101.4 142.067 102.133 141.8 102.8C141.667 102.933 141.4 103.4 141 104.2C140.6 105 140.4 105.867 140.4 106.8C140.267 108.4 139.533 110.067 138.2 111.8C138.733 112.333 138.667 113 138 113.8C137.2 115 136.6 116.333 136.2 117.8L133 127.2C132.867 127.467 132.6 128 132.2 128.8C131.933 129.467 131.8 130.067 131.8 130.6V131C131.8 131.267 131.733 131.4 131.6 131.4C131.067 131.667 130.733 132.2 130.6 133C130.467 133.8 130.267 134.4 130 134.8L128.6 137.6C128.333 138.267 128 138.8 127.6 139.2C127.333 139.6 127.067 140 126.8 140.4C126.267 140.933 125.933 141.133 125.8 141C125.133 140.733 124.333 140.933 123.4 141.6L120.6 141C120.333 140.867 120 140.667 119.6 140.4C119.2 140.133 118.8 140 118.4 140C117.467 140 116.8 139.467 116.4 138.4C117.2 138.667 117.6 138.8 117.6 138.8V137.6C117.333 138 117.133 138 117 137.6L115.4 139.2C115.133 139.467 114.933 139.6 114.8 139.6C114 139.733 113.267 139.533 112.6 139C112.067 138.467 111.8 137.867 111.8 137.2L112 136.4C111.333 136 110.933 135.733 110.8 135.6C110.8 135.467 110.867 135.333 111 135.2C111.133 135.067 111.2 134.867 111.2 134.6L111.6 133.8C111.467 133.267 111.4 132.467 111.4 131.4C111.4 130.2 111.533 129.333 111.8 128.8V128.2C111.533 128.067 111.067 128 110.4 128C110.4 127.733 110.533 127.2 110.8 126.4L111.8 127L112.4 125.8C111.867 125.8 111.467 125.867 111.2 126C111.333 125.333 111.267 124.6 111 123.8C110.733 122.867 110.6 122.2 110.6 121.8V121.2C110.6 121.067 110.533 121 110.4 121C110.267 120.867 110.2 120.667 110.2 120.4C110.2 119.733 110.267 119.267 110.4 119L111 120.2C111.267 119.667 111.267 119.133 111 118.6C110.867 118.067 110.8 117.733 110.8 117.6L110.6 116.6C110.6 116.2 110.667 115.8 110.8 115.4C111.067 115 111.2 114.6 111.2 114.2V113.8C111.2 113.133 111.467 112.133 112 110.8L112.2 109.6L112.6 105L113.2 102.8C113.333 102.667 113.333 102.133 113.2 101.2C113.2 100.133 113.4 99.3333 113.8 98.8C113.933 98.6666 114.133 98.6 114.4 98.6C114.667 98.6 114.867 98.5333 115 98.4C114.467 97.8666 114.2 97.5333 114.2 97.4C114.2 97.1333 114.333 96.6666 114.6 96L115 95L115.8 94C115.267 93.7333 115.133 93.2666 115.4 92.6L118.4 83.3999L118.8 81.9999V81.2C119.6 80.2666 120.133 79.0666 120.4 77.6C120.8 76.1333 121.133 75.0666 121.4 74.4C121.533 74 121.6 73.5333 121.6 73C121.733 72.4666 121.933 72.1333 122.2 72C122.6 71.7333 122.733 71.4 122.6 71C122.6 70.6 122.6 70.3333 122.6 70.2C122.6 69.9333 122.667 69.7333 122.8 69.6C123.067 69.3333 123.267 68.9333 123.4 68.4C123.533 67.7333 123.667 67.2 123.8 66.8L125 64.2C125.133 63.8 125.267 63.4 125.4 63C125.533 62.4666 125.733 61.9333 126 61.4C126.133 61.1333 126.267 60.8666 126.4 60.6C126.533 60.3333 126.6 60 126.6 59.6L125.8 60.2L122.2 64.6C122.067 64.7333 122 64.7333 122 64.6C122 64.3333 122.067 64.0666 122.2 63.8C120.867 63.8 120 64.8 119.6 66.8C120 66.5333 120.333 66.4666 120.6 66.6C120.867 66.6 120.867 66.7333 120.6 67L115.2 72.6C115.333 72.4666 115.867 71.7333 116.8 70.3999C116.667 70.5333 117.4 69.6 119 67.6C117.8 68.5333 117.067 69.1999 116.8 69.6C116.667 69.8666 116.333 70.1999 115.8 70.6C115.4 70.8666 115.067 71.0666 114.8 71.2C114.667 71.3333 114.4 71.5333 114 71.7999C113.6 71.9333 113.333 72.1333 113.2 72.4L109 78.2L105.4 81.7999L102 85.4C101.867 85.4 101.8 85.5333 101.8 85.8C101.533 86.4666 101.267 87.7333 101 89.6C100.733 89.7333 100.333 89.7999 99.8 89.7999L99.4 91.6C99.1333 91.7333 98.7333 92 98.2 92.4C97.6667 92.8 97.2 93 96.8 93C96.4 93 96.0667 92.9333 95.8 92.8C95.1333 93.3333 94.0667 94.6 92.6 96.6C92.3333 97.1333 91.8667 97.7333 91.2 98.4C91.2 98.4 91.1333 98.4666 91 98.6C90.6 99.4 90 100.133 89.2 100.8C88.5333 101.333 88 101.8 87.6 102.2C87.3333 102.467 86.8 102.933 86 103.6C85.3333 104.267 84.8667 104.933 84.6 105.6C84.2 106 83.6 106.2 82.8 106.2C82 106.467 81.5333 106.267 81.4 105.6C81.2667 105.333 80.8 104.933 80 104.4C79.3333 103.867 78.6667 103.533 78 103.4L78.4 101.6C78.1333 101.733 77.7333 102.067 77.2 102.6L76.8 100.6C76.5333 101.133 76.2667 101.467 76 101.6H75.8C75.8 100.933 75.4667 100.467 74.8 100.2C74.2667 100.067 74 99.6666 74 99C74.2667 96.6 74.8667 94.8666 75.8 93.7999C76.0667 93.4 76.2667 92.9333 76.4 92.4C76.6667 91.7333 76.8667 91.2 77 90.8L76.8 90.4C76.4 90.1333 76.1333 89.7333 76 89.2C76 88.5333 76 88.0666 76 87.7999C74.6667 87.6666 73.7333 86.8 73.2 85.2C72.8 83.7333 72.0667 81.5333 71 78.6L70.8 78.2V76.7999C70.6667 76.9333 70.4667 77 70.2 77L70.8 78.2L72 84H71.8L70.6 81.2C69.9333 79.4666 69.4667 78.4 69.2 78C69.0667 77.7333 68.8667 77.5333 68.6 77.3999C68.3333 77.1333 68.1333 76.8666 68 76.6L68.8 75.3999L67.6 75C66.2667 71.9333 65.4667 69.3333 65.2 67.2L64 63C63.6 62.6 63.4 62.4 63.4 62.4C63 62.4 62.6667 62.5333 62.4 62.8L60.6 66.6L57.6 72.4C57.3333 73.0666 56.8667 74.0666 56.2 75.3999C55.5333 76.7333 55 78 54.6 79.2C54.4667 79.7333 54.1333 80.4666 53.6 81.3999C53.2 82.1999 52.8667 82.8666 52.6 83.3999C52.3333 83.9333 52 84.6666 51.6 85.6C51.2 86.5333 51 86.8666 51 86.6V87.2C50.6 87.7333 50.7333 87.9999 51.4 87.9999L50.6 89.6C50.3333 89.3333 50.0667 89.2 49.8 89.2L49.2 91L50 90.4C50 90.4 50 90.4666 50 90.6C50.1333 90.6 50.2 90.6 50.2 90.6C50.0667 90.7333 49.9333 90.9333 49.8 91.2C49.6667 91.4666 49.4667 91.6666 49.2 91.8C48.8 92.0666 48.5333 92.3333 48.4 92.6C48.4 92.7333 48.4667 93.0666 48.6 93.6C48.6 93.7333 48.4667 93.8666 48.2 94C48.0667 94 47.8667 94 47.6 94C47.4667 94.2666 47.2667 94.6666 47 95.2C46.7333 95.6 46.4667 96.0666 46.2 96.6C45.8 97.5333 45.4 98.5999 45 99.7999C44.6 100.867 44.1333 102.067 43.6 103.4C43.4667 103.4 43.2667 103.533 43 103.8C42.8667 103.933 42.8 104.067 42.8 104.2C42.6667 104.467 42.7333 104.933 43 105.6C42.4667 105.733 42.1333 105.933 42 106.2C42 106.467 42.0667 106.8 42.2 107.2C41.5333 107.333 41.0667 107.733 40.8 108.4C40.6667 109.067 40.5333 109.6 40.4 110C40.2667 110.133 40.0667 110.4 39.8 110.8C39.6667 111.067 39.6 111.333 39.6 111.6L40 112.4C40 112.4 39.9333 112.467 39.8 112.6C39.4 113 39.1333 113.533 39 114.2C39 114.867 38.9333 115.4 38.8 115.8C38.6667 116.333 38.4667 116.8 38.2 117.2C37.9333 117.6 37.7333 117.933 37.6 118.2C37.8667 118.333 38 118.6 38 119C38 119.267 37.8667 119.533 37.6 119.8C37.2 120.6 36.9333 121.333 36.8 122C36.6667 122.533 36.5333 123 36.4 123.4L35.8 124.8C35.8 125.067 35.8 125.4 35.8 125.8C35.8 126.067 35.6667 126.267 35.4 126.4L35.2 126.6C35.6 127.133 35.6 127.533 35.2 127.8C34.8 128.067 34.5333 128.267 34.4 128.4L34.8 129C34.2667 129.267 34 129.533 34 129.8C33.4667 130.467 33.1333 131.2 33 132L33.4 132.8C33 133.067 32.7333 133.333 32.6 133.6C32.4667 133.867 32.4667 134.133 32.6 134.4L31.6 135.2C31.0667 136.267 30.7333 137.067 30.6 137.6C30.4667 138.4 30.0667 139.133 29.4 139.8C28.3333 140.867 27.4667 141.6 26.8 142L26.4 141.2L22 143.6L21.8 143.4L22.4 142.2C22 142.2 21.6667 142.267 21.4 142.4L20.6 141L19.4 142.4L17.4 141.6C16.6 141.333 16 141.2 15.6 141.2C14.6667 141.067 14.2 140.533 14.2 139.6V139L13.4 138.8C12.8667 139.333 12.2 139.533 11.4 139.4C10.7333 139.133 10.3333 139 10.2 139C9.53333 139 9 139.067 8.6 139.2C8.6 138.8 8.26667 138.467 7.6 138.2C7.46667 138.067 7.2 138 6.8 138C5.46667 138.133 4.2 137.933 3 137.4ZM9.8 113V114L10.4 112.6L10.2 112.4C9.93333 112.667 9.8 112.867 9.8 113ZM10.4 116L10 118.2C10.6667 117.267 11 116.8 11 116.8C11 116.667 10.8 116.4 10.4 116ZM10.6 109.6V111.4L11.8 110.6L10.6 109.6ZM12.2 112.2C12.0667 112.467 11.7333 112.933 11.2 113.6C10.9333 114.133 11.0667 114.6 11.6 115C11.8667 114.067 12.2667 113.2 12.8 112.4C13.3333 111.467 13.8 110.467 14.2 109.4C13.6667 109.667 13.2 109.933 12.8 110.2C12.5333 110.333 12.2667 110.467 12 110.6C12.2667 111.267 12.3333 111.8 12.2 112.2ZM15 103L14 102.4C14 102.8 14.0667 103.067 14.2 103.2C14.4667 103.2 14.7333 103.133 15 103ZM14.6 106.2C14.2 106.6 14.2 107.333 14.6 108.4L16.2 104.6L16 104.2C15.4667 104.733 15.2 105 15.2 105C15.3333 105.533 15.1333 105.933 14.6 106.2ZM19.6 93.6L19.2 95C19.4667 95 19.6 94.8 19.6 94.4C19.8667 94.1333 20 93.9333 20 93.7999L19.6 93.6ZM21 90.2L20 93L20.2 93.2L21.4 90.4L21 90.2ZM21.8 82.7999C21.5333 82.7999 21.2667 82.9333 21 83.2C21 83.4666 21.0667 83.6666 21.2 83.7999C21.4667 83.7999 21.8 83.7333 22.2 83.6C22.2 83.7333 22.2667 83.9333 22.4 84.2C22.6667 84.3333 22.6667 84.5333 22.4 84.8L23.6 84.4C23.6 84 23.4667 83.6666 23.2 83.3999C22.9333 83.5333 22.5333 83.6 22 83.6C22.2667 83.3333 22.4667 83.2 22.6 83.2C22.3333 82.9333 22.0667 82.7999 21.8 82.7999ZM23.8 77.7999C23.5333 77.9333 23.3333 78 23.2 78C23.6 78.1333 23.8667 78.2 24 78.2C24.2667 78.0666 24.4667 77.8666 24.6 77.6C24.3333 77.4666 24.0667 77.5333 23.8 77.7999ZM24 80.7999V81.6L24.4 81.7999L25.2 79.8H25C24.3333 80.4666 24 80.7999 24 80.7999ZM24.8 76.2C24.1333 76.5999 24.0667 77.0666 24.6 77.6C24.6 77.3333 24.6667 77.1333 24.8 77C25.0667 76.7333 25.0667 76.4666 24.8 76.2ZM25.6 78.4C25.6 78.6666 25.6667 78.8666 25.8 79L26.6 77.2L25.8 77C25.6667 77.6666 25.6 78.1333 25.6 78.4ZM27.8 75.6C27.6667 75.3333 27.4 75.1333 27 75C26.8667 75.2666 26.8667 75.5333 27 75.7999C27.1333 75.9333 27.4 76.1333 27.8 76.3999C27.9333 75.9999 27.9333 75.7333 27.8 75.6ZM38 74.4C37.8667 74.8 37.6667 75.1999 37.4 75.6L37.6 75.7999L38.8 73.8L38.4 73.4C38.2667 73.6666 38.1333 74 38 74.4ZM48 95.6L47.6 95.4C47.6 95.1333 47.6667 95.0666 47.8 95.2C47.9333 95.3333 48 95.4666 48 95.6ZM52.4 85.8C52.4 86.2 52.2 86.4666 51.8 86.6C51.8 85.8 52 85.2 52.4 84.8C52.4 84.9333 52.4 85.2666 52.4 85.8ZM69.8 74.6V75.2L70.6 74.2L70.4 74L69.8 74.6ZM95.8 99H95.6C95.6 98.8666 95.7333 98.6666 96 98.4H96.2C95.9333 98.6666 95.8 98.8666 95.8 99ZM100.6 92C100.6 91.8666 100.6 91.8 100.6 91.8L101.2 90.8C101.333 90.8 101.4 90.8666 101.4 91L100.8 92C100.8 92 100.733 92 100.6 92ZM110.4 125.6C110.267 125.333 109.867 124.867 109.2 124.2L110.6 124C110.867 124.267 110.867 124.6 110.6 125C110.467 125.267 110.4 125.467 110.4 125.6ZM114.8 73.6L113.2 75.6C113.333 75.0666 113.533 74.6 113.8 74.2C114.2 73.8 114.467 73.4666 114.6 73.2L114.8 73.6ZM122 37.7999C120.933 37.5333 120.2 37.7333 119.8 38.4C120.2 38.8 120.6 38.8666 121 38.6C121.4 38.2 121.733 37.9333 122 37.7999ZM121.6 36.6C121.333 36.6 121.133 36.8 121 37.2L122 37.7999L122.4 36.8C122.133 36.6666 121.867 36.6 121.6 36.6ZM123.6 35.1999C123.467 35.3333 123.4 35.5333 123.4 35.8L124.2 35C123.933 35 123.733 35.0666 123.6 35.1999ZM128.6 23.1999C128.6 23.3333 128.733 23.7333 129 24.4C129.133 24.1333 129.267 23.8666 129.4 23.6C129.533 23.3333 129.733 23.0666 130 22.8C129.2 22.9333 128.733 23.0666 128.6 23.1999ZM132.4 17.8C132.267 17.8 131.933 17.8 131.4 17.8L132.2 16.8C132.467 17.3333 132.533 17.6666 132.4 17.8Z" fill="white"/>
</svg>
