<svg width="241" height="240" viewBox="0 0 241 240" fill="none" xmlns="http://www.w3.org/2000/svg">
<path d="M159.1 74.45L158.5 75.25L158.7 75.45L159.3 74.65L159.1 74.45ZM33.3 185.25C32.7667 185.117 31.7667 184.583 30.3 183.65C30.7 182.983 31.1 182.117 31.5 181.05C31.7667 179.983 32.2334 179.183 32.9 178.65C32.9 178.517 32.9 178.317 32.9 178.05C32.7667 177.783 32.7667 177.583 32.9 177.45C33.1667 177.317 33.3667 177.05 33.5 176.65C33.5 176.25 33.5 175.983 33.5 175.85L34.7 172.25L37.1 165.65C37.3667 164.983 37.7 164.117 38.1 163.05C38.3667 161.983 38.7 161.117 39.1 160.45C38.9667 159.917 39.1 159.317 39.5 158.65C40.0334 157.983 40.3 157.45 40.3 157.05V156.85C40.1667 156.583 40.1667 156.25 40.3 155.85C40.4334 155.45 40.6334 155.117 40.9 154.85C41.4334 154.317 41.8334 153.45 42.1 152.25C42.5 151.05 42.9001 150.183 43.3 149.65C43.5667 149.25 43.7667 148.65 43.9 147.85C44.1667 147.05 44.4334 146.383 44.7 145.85C44.7 145.717 44.7667 145.383 44.9 144.85C45.0334 144.183 45.5001 143.783 46.3001 143.65C46.3001 143.517 46.2334 143.25 46.1 142.85C46.1 142.45 46.2334 142.05 46.5 141.65C46.9 141.383 47.1667 140.917 47.3 140.25C47.4334 139.583 47.5667 139.117 47.7001 138.85C47.8334 138.583 48.0334 138.317 48.3 138.05C48.7 137.65 48.9 137.317 48.9 137.05C48.9 136.517 49.0334 135.85 49.3001 135.05L50.3001 131.85C50.3001 131.717 50.3667 131.517 50.5 131.25C50.6334 130.85 50.9001 130.783 51.3001 131.05C51.0334 130.25 51.1 129.45 51.5 128.65C52.0334 127.85 52.3667 127.383 52.5 127.25C52.5 127.383 52.5667 127.65 52.7001 128.05C52.9667 128.45 53.3667 128.65 53.9 128.65H54.3001L53.9 127.65C53.9 127.25 53.7667 127.05 53.5 127.05C53.2334 127.05 53.0334 127.05 52.9001 127.05C52.9001 126.65 52.9001 126.383 52.9001 126.25C53.0334 125.983 53.2334 125.85 53.5 125.85C53.6334 125.317 53.8334 124.783 54.1 124.25C54.3667 123.583 54.5667 123.05 54.7001 122.65C54.9667 122.65 55.1 122.783 55.1 123.05C55.2334 123.183 55.2334 123.383 55.1 123.65L57.1 123.45C56.8334 123.183 56.5667 122.917 56.3001 122.65C56.0334 122.25 55.7667 121.983 55.5 121.85C54.9667 121.717 54.9 121.317 55.3 120.65C55.5667 120.517 56.0334 120.45 56.7001 120.45C56.5667 120.717 56.5 121.117 56.5 121.65C56.9 121.25 57.3001 121.117 57.7001 121.25C58.1 121.383 58.4334 121.45 58.7001 121.45C58.9667 121.45 59.1667 121.25 59.3001 120.85L57.3001 119.65L56.7001 120.25C56.4334 120.117 56.2334 119.917 56.1 119.65C56.1 119.383 56.1667 119.117 56.3001 118.85C56.4334 118.45 56.6334 117.85 56.9 117.05C57.1667 116.25 57.5667 115.583 58.1 115.05C58.2334 114.917 58.3 114.65 58.3 114.25C58.4334 113.717 58.5667 113.317 58.7001 113.05C58.8334 112.65 58.9667 112.317 59.1 112.05C59.2334 111.65 59.3667 111.317 59.5001 111.05C59.7667 110.25 60.0334 109.65 60.3001 109.25C60.8334 107.917 61.3001 106.917 61.7001 106.25L66.1001 97.45C66.5 96.65 66.9001 95.7833 67.3001 94.85C67.8334 93.7833 68.3667 92.7167 68.9001 91.65L74.7001 80.85C74.7001 80.7167 74.8334 80.5167 75.1001 80.25L76.5001 78.65C76.5001 78.1167 76.6334 77.5167 76.9001 76.85C77.3001 76.1833 77.5667 75.5833 77.7001 75.05C77.7001 74.7833 77.8334 74.5167 78.1001 74.25C78.3667 73.85 78.5667 73.5833 78.7001 73.45L81.5 67.65C81.6334 67.3833 81.9667 66.9833 82.5001 66.45L82.9001 65.45L83.5001 64.45C84.3001 63.65 84.7001 62.5833 84.7001 61.25C84.7001 60.45 84.5 59.9833 84.1001 59.85C83.5667 59.45 83.2334 58.85 83.1001 58.05C82.9667 57.25 82.9001 56.7833 82.9001 56.65H84.1001L88.9001 56.05C89.1667 56.05 89.5667 56.05 90.1001 56.05C90.6334 56.05 91.1667 55.9833 91.7001 55.85C92.3667 55.5833 92.7001 55.3833 92.7001 55.25L93.7001 54.65L94.3 55.65H94.5001L94.9001 54.05C95.3001 54.1833 95.6334 54.25 95.9001 54.25C96.3001 54.1167 96.5667 53.85 96.7001 53.45C97.1001 53.05 97.3667 52.9833 97.5001 53.25C98.5667 53.25 99.1001 52.7167 99.1001 51.65C99.5001 51.5167 100.233 51.45 101.3 51.45C102.5 51.45 103.367 51.05 103.9 50.25C104.433 50.3833 104.767 50.7167 104.9 51.25C105.033 51.65 105.167 51.9167 105.3 52.05C105.433 51.7833 105.633 51.5167 105.9 51.25C106.167 50.9833 106.433 50.5833 106.7 50.05L108.5 51.05C108.633 51.05 109.1 50.9167 109.9 50.65H110.5C110.767 51.05 111.367 51.5167 112.3 52.05C113.233 52.45 113.9 52.9167 114.3 53.45C114.433 53.7167 114.5 54.25 114.5 55.05C114.233 56.1167 114.5 56.9167 115.3 57.45C115.567 57.5833 115.833 58.1833 116.1 59.25C116.1 59.5167 115.967 59.7167 115.7 59.85C115.567 59.9833 115.567 60.1167 115.7 60.25C115.7 61.45 115.9 62.1167 116.3 62.25C116.833 62.5167 116.967 62.85 116.7 63.25C116.433 63.5167 116.3 63.7167 116.3 63.85L116.9 64.05C116.633 64.9833 116.567 65.65 116.7 66.05C116.967 67.9167 117.233 69.3167 117.5 70.25C117.9 72.25 118.1 73.3167 118.1 73.45C118.1 74.3833 118.167 75.25 118.3 76.05C118.433 76.7167 118.5 77.3833 118.5 78.05C118.5 78.85 118.633 79.9167 118.9 81.25C118.9 81.65 119.167 82.25 119.7 83.05C119.433 83.5833 119.367 84.05 119.5 84.45C119.5 84.45 119.833 84.7833 120.5 85.45C120.367 85.45 120.233 85.5167 120.1 85.65C120.1 85.65 120.033 85.65 119.9 85.65C119.9 85.65 119.833 85.7167 119.7 85.85C119.967 86.25 120.233 86.9167 120.5 87.85C120.767 88.65 120.9 89.3833 120.9 90.05V91.05C121.3 91.3167 121.367 91.65 121.1 92.05C120.967 92.45 120.9 92.7167 120.9 92.85C120.767 92.9833 120.7 93.1167 120.7 93.25C120.833 93.3833 120.9 93.5167 120.9 93.65C121.167 93.1167 121.367 92.7833 121.5 92.65L121.7 93.25C121.433 94.45 121.433 95.3167 121.7 95.85C121.7 96.1167 121.7 96.45 121.7 96.85C121.833 97.25 122.033 97.7167 122.3 98.25C122.433 98.7833 122.5 99.5833 122.5 100.65C122.5 101.183 122.633 101.85 122.9 102.65C123.167 103.45 123.3 104.05 123.3 104.45C123.433 104.583 123.567 104.717 123.7 104.85C123.833 104.85 123.967 104.917 124.1 105.05C123.7 105.183 123.633 105.383 123.9 105.65C124.033 105.783 124.033 105.983 123.9 106.25C123.9 106.383 123.967 106.517 124.1 106.65C124.233 106.917 124.3 107.45 124.3 108.25C124.433 108.917 124.633 109.383 124.9 109.65L125.3 109.45L128.7 105.05L128.9 104.65C129.567 103.983 130.367 102.917 131.3 101.45C132.367 99.85 133.167 98.7167 133.7 98.05C133.967 97.65 134.367 97.05 134.9 96.25C135.567 95.45 136.233 94.85 136.9 94.45L137.1 94.05C136.7 93.9167 136.567 93.7167 136.7 93.45C136.833 93.1833 137.033 93.05 137.3 93.05C137.967 92.7833 138.5 92.3167 138.9 91.65C139.433 90.85 139.9 90.25 140.3 89.85L141.3 89.05C141.967 88.65 142.433 88.1833 142.7 87.65C143.1 86.9833 143.367 86.5833 143.5 86.45C143.633 86.3167 143.767 86.05 143.9 85.65C144.033 85.25 144.433 85.05 145.1 85.05C145.367 84.7833 145.433 84.5167 145.3 84.25C145.167 83.5833 145.3 82.9833 145.7 82.45C146.233 81.9167 146.567 81.5833 146.7 81.45L149.7 78.65L150.5 77.45C150.5 77.3167 150.567 77.05 150.7 76.65C150.967 76.25 151.367 76.05 151.9 76.05H152.1C152.1 76.05 152.3 75.85 152.7 75.45L158.7 69.25L159.5 68.25C159.5 68.25 159.833 68.5833 160.5 69.25L160.7 67.05L161.9 68.85C162.167 68.3167 162.767 67.65 163.7 66.85C164.767 65.9167 165.433 64.9833 165.7 64.05C165.7 63.7833 165.9 63.65 166.3 63.65L166.9 63.45C166.9 62.65 167.233 62.1167 167.9 61.85C168.7 61.45 169.167 61.1833 169.3 61.05C169.433 60.9167 170.1 60.45 171.3 59.65L171.7 59.25C172.1 58.3167 172.767 57.45 173.7 56.65C174.633 55.7167 175.3 54.9833 175.7 54.45L176.7 53.65L175.7 52.85C175.833 52.1833 176.167 51.5167 176.7 50.85C177.367 50.05 177.833 49.3833 178.1 48.85C178.233 48.7167 178.567 48.65 179.1 48.65C179.367 48.5167 179.567 48.5167 179.7 48.65C179.967 48.65 180.233 48.65 180.5 48.65C180.5 48.7833 180.433 48.9167 180.3 49.05C180.3 49.1833 180.367 49.3167 180.5 49.45C180.5 49.7167 180.7 49.85 181.1 49.85C181.233 49.9833 181.433 50.05 181.7 50.05C182.1 50.05 182.367 50.1833 182.5 50.45C182.633 50.7167 182.833 50.9167 183.1 51.05C183.367 51.05 183.567 51.1167 183.7 51.25L185.1 50.25L184.9 51.45C185.167 51.7167 185.367 51.85 185.5 51.85C185.633 51.85 185.9 51.7833 186.3 51.65C186.7 51.3833 186.967 51.5833 187.1 52.25H187.3C187.967 51.9833 188.5 52.1833 188.9 52.85C189.433 53.3833 189.767 53.7167 189.9 53.85L191.5 52.65L191.7 53.85C191.833 53.85 192.3 53.85 193.1 53.85C193.9 53.85 194.567 54.1833 195.1 54.85L195.5 55.05C196.033 54.65 196.5 54.7167 196.9 55.25C197.3 55.7833 197.633 56.1167 197.9 56.25C198.167 55.85 198.433 55.25 198.7 54.45L199.1 54.85C199.9 55.7833 200.433 56.3833 200.7 56.65C200.967 56.65 201.5 56.5167 202.3 56.25L202.1 58.25L203.1 58.05L203.3 59.85C203.567 59.7167 203.767 59.65 203.9 59.65C204.033 59.5167 204.167 59.3833 204.3 59.25C204.7 58.7167 204.967 58.5167 205.1 58.65C205.367 58.65 205.567 58.9833 205.7 59.65H207.1L207.7 58.45C208.5 58.5833 209.033 59.05 209.3 59.85C209.567 60.5167 209.7 60.9167 209.7 61.05C209.833 61.3167 210.033 61.65 210.3 62.05C210.567 62.45 210.7 62.7833 210.7 63.05L210.3 64.05C209.9 64.1833 209.567 64.5833 209.3 65.25C209.033 65.7833 208.833 66.1833 208.7 66.45C208.433 67.1167 208.167 67.5167 207.9 67.65C207.633 67.65 207.433 67.7833 207.3 68.05C207.3 68.3167 207.3 68.65 207.3 69.05C207.3 69.5833 206.9 70.1167 206.1 70.65C205.833 70.7833 205.7 70.9167 205.7 71.05C205.7 71.1833 205.767 71.3833 205.9 71.65C205.767 71.7833 205.433 72.1167 204.9 72.65C204.5 73.05 204.3 73.45 204.3 73.85V75.05H203.5L204.1 75.85C204.1 75.85 204.033 75.9167 203.9 76.05C203.633 75.9167 203.433 75.9833 203.3 76.25C203.167 76.5167 203.1 76.7167 203.1 76.85C203.1 77.25 202.967 77.5833 202.7 77.85C202.567 78.1167 202.433 78.3167 202.3 78.45L199.1 84.25L195.5 92.05L192.5 98.85L189.5 106.05C187.9 109.517 186.967 111.65 186.7 112.45C186.3 113.25 185.633 115.117 184.7 118.05C184.433 118.717 184.167 119.45 183.9 120.25L179.1 131.85C178.033 134.25 177.3 136.05 176.9 137.25C176.633 137.917 176.433 138.517 176.3 139.05C176.3 139.583 176.3 139.983 176.3 140.25C175.633 141.85 175.3 142.717 175.3 142.85C174.633 144.717 174.233 145.85 174.1 146.25C173.967 146.917 173.633 147.65 173.1 148.45C172.7 149.25 172.367 149.983 172.1 150.65C171.967 150.783 171.7 151.25 171.3 152.05C170.9 152.85 170.7 153.717 170.7 154.65C170.567 156.25 169.833 157.917 168.5 159.65C169.033 160.183 168.967 160.85 168.3 161.65C167.5 162.85 166.9 164.183 166.5 165.65L163.3 175.05C163.167 175.317 162.9 175.85 162.5 176.65C162.233 177.317 162.1 177.917 162.1 178.45V178.85C162.1 179.117 162.033 179.25 161.9 179.25C161.367 179.517 161.033 180.05 160.9 180.85C160.767 181.65 160.567 182.25 160.3 182.65L158.9 185.45C158.633 186.117 158.3 186.65 157.9 187.05C157.633 187.45 157.367 187.85 157.1 188.25C156.567 188.783 156.233 188.983 156.1 188.85C155.433 188.583 154.633 188.783 153.7 189.45L150.9 188.85C150.633 188.717 150.3 188.517 149.9 188.25C149.5 187.983 149.1 187.85 148.7 187.85C147.767 187.85 147.1 187.317 146.7 186.25C147.5 186.517 147.9 186.65 147.9 186.65V185.45C147.633 185.85 147.433 185.85 147.3 185.45L145.7 187.05C145.433 187.317 145.233 187.45 145.1 187.45C144.3 187.583 143.567 187.383 142.9 186.85C142.367 186.317 142.1 185.717 142.1 185.05L142.3 184.25C141.633 183.85 141.233 183.583 141.1 183.45C141.1 183.317 141.167 183.183 141.3 183.05C141.433 182.917 141.5 182.717 141.5 182.45L141.9 181.65C141.767 181.117 141.7 180.317 141.7 179.25C141.7 178.05 141.833 177.183 142.1 176.65V176.05C141.833 175.917 141.367 175.85 140.7 175.85C140.7 175.583 140.833 175.05 141.1 174.25L142.1 174.85L142.7 173.65C142.167 173.65 141.767 173.717 141.5 173.85C141.633 173.183 141.567 172.45 141.3 171.65C141.033 170.717 140.9 170.05 140.9 169.65V169.05C140.9 168.917 140.833 168.85 140.7 168.85C140.567 168.717 140.5 168.517 140.5 168.25C140.5 167.583 140.567 167.117 140.7 166.85L141.3 168.05C141.567 167.517 141.567 166.983 141.3 166.45C141.167 165.917 141.1 165.583 141.1 165.45L140.9 164.45C140.9 164.05 140.967 163.65 141.1 163.25C141.367 162.85 141.5 162.45 141.5 162.05V161.65C141.5 160.983 141.767 159.983 142.3 158.65L142.5 157.45L142.9 152.85L143.5 150.65C143.633 150.517 143.633 149.983 143.5 149.05C143.5 147.983 143.7 147.183 144.1 146.65C144.233 146.517 144.433 146.45 144.7 146.45C144.967 146.45 145.167 146.383 145.3 146.25C144.767 145.717 144.5 145.383 144.5 145.25C144.5 144.983 144.633 144.517 144.9 143.85L145.3 142.85L146.1 141.85C145.567 141.583 145.433 141.117 145.7 140.45L148.7 131.25L149.1 129.85V129.05C149.9 128.117 150.433 126.917 150.7 125.45C151.1 123.983 151.433 122.917 151.7 122.25C151.833 121.85 151.9 121.383 151.9 120.85C152.033 120.317 152.233 119.983 152.5 119.85C152.9 119.583 153.033 119.25 152.9 118.85C152.9 118.45 152.9 118.183 152.9 118.05C152.9 117.783 152.967 117.583 153.1 117.45C153.367 117.183 153.567 116.783 153.7 116.25C153.833 115.583 153.967 115.05 154.1 114.65L155.3 112.05C155.433 111.65 155.567 111.25 155.7 110.85C155.833 110.317 156.033 109.783 156.3 109.25C156.433 108.983 156.567 108.717 156.7 108.45C156.833 108.183 156.9 107.85 156.9 107.45L156.1 108.05L152.5 112.45C152.367 112.583 152.3 112.583 152.3 112.45C152.3 112.183 152.367 111.917 152.5 111.65C151.167 111.65 150.3 112.65 149.9 114.65C150.3 114.383 150.633 114.317 150.9 114.45C151.167 114.45 151.167 114.583 150.9 114.85L145.5 120.45C145.633 120.317 146.167 119.583 147.1 118.25C146.967 118.383 147.7 117.45 149.3 115.45C148.1 116.383 147.367 117.05 147.1 117.45C146.967 117.717 146.633 118.05 146.1 118.45C145.7 118.717 145.367 118.917 145.1 119.05C144.967 119.183 144.7 119.383 144.3 119.65C143.9 119.783 143.633 119.983 143.5 120.25L139.3 126.05L135.7 129.65L132.3 133.25C132.167 133.25 132.1 133.383 132.1 133.65C131.833 134.317 131.567 135.583 131.3 137.45C131.033 137.583 130.633 137.65 130.1 137.65L129.7 139.45C129.433 139.583 129.033 139.85 128.5 140.25C127.967 140.65 127.5 140.85 127.1 140.85C126.7 140.85 126.367 140.783 126.1 140.65C125.433 141.183 124.367 142.45 122.9 144.45C122.633 144.983 122.167 145.583 121.5 146.25C121.5 146.25 121.433 146.317 121.3 146.45C120.9 147.25 120.3 147.983 119.5 148.65C118.833 149.183 118.3 149.65 117.9 150.05C117.633 150.317 117.1 150.783 116.3 151.45C115.633 152.117 115.167 152.783 114.9 153.45C114.5 153.85 113.9 154.05 113.1 154.05C112.3 154.317 111.833 154.117 111.7 153.45C111.567 153.183 111.1 152.783 110.3 152.25C109.633 151.717 108.967 151.383 108.3 151.25L108.7 149.45C108.433 149.583 108.033 149.917 107.5 150.45L107.1 148.45C106.833 148.983 106.567 149.317 106.3 149.45H106.1C106.1 148.783 105.767 148.317 105.1 148.05C104.567 147.917 104.3 147.517 104.3 146.85C104.567 144.45 105.167 142.717 106.1 141.65C106.367 141.25 106.567 140.783 106.7 140.25C106.967 139.583 107.167 139.05 107.3 138.65L107.1 138.25C106.7 137.983 106.433 137.583 106.3 137.05C106.3 136.383 106.3 135.917 106.3 135.65C104.967 135.517 104.033 134.65 103.5 133.05C103.1 131.583 102.367 129.383 101.3 126.45L101.1 126.05V124.65C100.967 124.783 100.767 124.85 100.5 124.85L101.1 126.05L102.3 131.85H102.1L100.9 129.05C100.233 127.317 99.7667 126.25 99.5001 125.85C99.3667 125.583 99.1667 125.383 98.9 125.25C98.6334 124.983 98.4334 124.717 98.3 124.45L99.1001 123.25L97.9 122.85C96.5667 119.783 95.7667 117.183 95.5001 115.05L94.3 110.85C93.9001 110.45 93.7001 110.25 93.7001 110.25C93.3001 110.25 92.9667 110.383 92.7001 110.65L90.9001 114.45L87.9001 120.25C87.6334 120.917 87.1667 121.917 86.5001 123.25C85.8334 124.583 85.3001 125.85 84.9001 127.05C84.7667 127.583 84.4334 128.317 83.9001 129.25C83.5 130.05 83.1667 130.717 82.9001 131.25C82.6334 131.783 82.3001 132.517 81.9001 133.45C81.5 134.383 81.3 134.717 81.3 134.45V135.05C80.9001 135.583 81.0334 135.85 81.7001 135.85L80.9001 137.45C80.6334 137.183 80.3667 137.05 80.1001 137.05L79.5001 138.85L80.3001 138.25C80.3001 138.25 80.3001 138.317 80.3001 138.45C80.4334 138.45 80.5 138.45 80.5 138.45C80.3667 138.583 80.2334 138.783 80.1001 139.05C79.9667 139.317 79.7667 139.517 79.5001 139.65C79.1001 139.917 78.8334 140.183 78.7001 140.45C78.7001 140.583 78.7667 140.917 78.9001 141.45C78.9001 141.583 78.7667 141.717 78.5 141.85C78.3667 141.85 78.1667 141.85 77.9001 141.85C77.7667 142.117 77.5667 142.517 77.3001 143.05C77.0334 143.45 76.7667 143.917 76.5001 144.45C76.1001 145.383 75.7001 146.45 75.3 147.65C74.9001 148.717 74.4334 149.917 73.9001 151.25C73.7667 151.25 73.5667 151.383 73.3001 151.65C73.1667 151.783 73.1001 151.917 73.1001 152.05C72.9667 152.317 73.0334 152.783 73.3001 153.45C72.7667 153.583 72.4334 153.783 72.3 154.05C72.3 154.317 72.3667 154.65 72.5 155.05C71.8334 155.183 71.3667 155.583 71.1001 156.25C70.9667 156.917 70.8334 157.45 70.7001 157.85C70.5667 157.983 70.3667 158.25 70.1001 158.65C69.9667 158.917 69.9001 159.183 69.9001 159.45L70.3001 160.25C70.3001 160.25 70.2334 160.317 70.1001 160.45C69.7001 160.85 69.4334 161.383 69.3 162.05C69.3 162.717 69.2334 163.25 69.1001 163.65C68.9667 164.183 68.7667 164.65 68.5 165.05C68.2334 165.45 68.0334 165.783 67.9001 166.05C68.1667 166.183 68.3 166.45 68.3 166.85C68.3 167.117 68.1667 167.383 67.9001 167.65C67.5001 168.45 67.2334 169.183 67.1001 169.85C66.9667 170.383 66.8334 170.85 66.7001 171.25L66.1001 172.65C66.1001 172.917 66.1001 173.25 66.1001 173.65C66.1001 173.917 65.9667 174.117 65.7001 174.25L65.5 174.45C65.9001 174.983 65.9001 175.383 65.5 175.65C65.1 175.917 64.8334 176.117 64.7001 176.25L65.1001 176.85C64.5667 177.117 64.3001 177.383 64.3001 177.65C63.7667 178.317 63.4334 179.05 63.3 179.85L63.7001 180.65C63.3 180.917 63.0334 181.183 62.9001 181.45C62.7667 181.717 62.7667 181.983 62.9001 182.25L61.9001 183.05C61.3667 184.117 61.0334 184.917 60.9001 185.45C60.7667 186.25 60.3667 186.983 59.7001 187.65C58.6334 188.717 57.7667 189.45 57.1 189.85L56.7001 189.05L52.3 191.45L52.1 191.25L52.7001 190.05C52.3001 190.05 51.9667 190.117 51.7001 190.25L50.9 188.85L49.7001 190.25L47.7001 189.45C46.9001 189.183 46.3001 189.05 45.9001 189.05C44.9667 188.917 44.5 188.383 44.5 187.45V186.85L43.7 186.65C43.1667 187.183 42.5 187.383 41.7 187.25C41.0334 186.983 40.6334 186.85 40.5 186.85C39.8334 186.85 39.3 186.917 38.9 187.05C38.9 186.65 38.5667 186.317 37.9 186.05C37.7667 185.917 37.5 185.85 37.1 185.85C35.7667 185.983 34.5 185.783 33.3 185.25ZM40.1 160.85V161.85L40.7 160.45L40.5 160.25C40.2334 160.517 40.1 160.717 40.1 160.85ZM40.7 163.85L40.3 166.05C40.9667 165.117 41.3 164.65 41.3 164.65C41.3 164.517 41.1 164.25 40.7 163.85ZM40.9 157.45V159.25L42.1 158.45L40.9 157.45ZM42.5 160.05C42.3667 160.317 42.0334 160.783 41.5 161.45C41.2334 161.983 41.3667 162.45 41.9 162.85C42.1667 161.917 42.5667 161.05 43.1 160.25C43.6334 159.317 44.1 158.317 44.5 157.25C43.9667 157.517 43.5 157.783 43.1 158.05C42.8334 158.183 42.5667 158.317 42.3 158.45C42.5667 159.117 42.6334 159.65 42.5 160.05ZM45.3 150.85L44.3 150.25C44.3 150.65 44.3667 150.917 44.5 151.05C44.7667 151.05 45.0334 150.983 45.3 150.85ZM44.9 154.05C44.5 154.45 44.5 155.183 44.9 156.25L46.5 152.45L46.3001 152.05C45.7667 152.583 45.5 152.85 45.5 152.85C45.6334 153.383 45.4334 153.783 44.9 154.05ZM49.9 141.45L49.5 142.85C49.7667 142.85 49.9 142.65 49.9 142.25C50.1667 141.983 50.3001 141.783 50.3001 141.65L49.9 141.45ZM51.3001 138.05L50.3001 140.85L50.5 141.05L51.7001 138.25L51.3001 138.05ZM52.1 130.65C51.8334 130.65 51.5667 130.783 51.3001 131.05C51.3001 131.317 51.3667 131.517 51.5 131.65C51.7667 131.65 52.1 131.583 52.5 131.45C52.5 131.583 52.5667 131.783 52.7001 132.05C52.9667 132.183 52.9667 132.383 52.7001 132.65L53.9 132.25C53.9 131.85 53.7667 131.517 53.5 131.25C53.2334 131.383 52.8334 131.45 52.3 131.45C52.5667 131.183 52.7667 131.05 52.9001 131.05C52.6334 130.783 52.3667 130.65 52.1 130.65ZM54.1 125.65C53.8334 125.783 53.6334 125.85 53.5 125.85C53.9 125.983 54.1667 126.05 54.3001 126.05C54.5667 125.917 54.7667 125.717 54.9001 125.45C54.6334 125.317 54.3667 125.383 54.1 125.65ZM54.3001 128.65V129.45L54.7001 129.65L55.5 127.65H55.3C54.6334 128.317 54.3001 128.65 54.3001 128.65ZM55.1 124.05C54.4334 124.45 54.3667 124.917 54.9001 125.45C54.9001 125.183 54.9667 124.983 55.1 124.85C55.3667 124.583 55.3667 124.317 55.1 124.05ZM55.9001 126.25C55.9001 126.517 55.9667 126.717 56.1 126.85L56.9 125.05L56.1 124.85C55.9667 125.517 55.9001 125.983 55.9001 126.25ZM58.1 123.45C57.9667 123.183 57.7001 122.983 57.3001 122.85C57.1667 123.117 57.1667 123.383 57.3001 123.65C57.4334 123.783 57.7 123.983 58.1 124.25C58.2334 123.85 58.2334 123.583 58.1 123.45ZM68.3 122.25C68.1667 122.65 67.9667 123.05 67.7001 123.45L67.9001 123.65L69.1001 121.65L68.7001 121.25C68.5667 121.517 68.4334 121.85 68.3 122.25ZM78.3 143.45L77.9001 143.25C77.9001 142.983 77.9667 142.917 78.1001 143.05C78.2334 143.183 78.3 143.317 78.3 143.45ZM82.7001 133.65C82.7001 134.05 82.5001 134.317 82.1001 134.45C82.1001 133.65 82.3001 133.05 82.7001 132.65C82.7001 132.783 82.7001 133.117 82.7001 133.65ZM100.1 122.45V123.05L100.9 122.05L100.7 121.85L100.1 122.45ZM126.1 146.85H125.9C125.9 146.717 126.033 146.517 126.3 146.25H126.5C126.233 146.517 126.1 146.717 126.1 146.85ZM130.9 139.85C130.9 139.717 130.9 139.65 130.9 139.65L131.5 138.65C131.633 138.65 131.7 138.717 131.7 138.85L131.1 139.85C131.1 139.85 131.033 139.85 130.9 139.85ZM140.7 173.45C140.567 173.183 140.167 172.717 139.5 172.05L140.9 171.85C141.167 172.117 141.167 172.45 140.9 172.85C140.767 173.117 140.7 173.317 140.7 173.45ZM145.1 121.45L143.5 123.45C143.633 122.917 143.833 122.45 144.1 122.05C144.5 121.65 144.767 121.317 144.9 121.05L145.1 121.45ZM152.3 85.65C151.233 85.3833 150.5 85.5833 150.1 86.25C150.5 86.65 150.9 86.7167 151.3 86.45C151.7 86.05 152.033 85.7833 152.3 85.65ZM151.9 84.45C151.633 84.45 151.433 84.65 151.3 85.05L152.3 85.65L152.7 84.65C152.433 84.5167 152.167 84.45 151.9 84.45ZM153.9 83.05C153.767 83.1833 153.7 83.3833 153.7 83.65L154.5 82.85C154.233 82.85 154.033 82.9167 153.9 83.05ZM158.9 71.05C158.9 71.1833 159.033 71.5833 159.3 72.25C159.433 71.9833 159.567 71.7167 159.7 71.45C159.833 71.1833 160.033 70.9167 160.3 70.65C159.5 70.7833 159.033 70.9167 158.9 71.05ZM162.7 65.65C162.567 65.65 162.233 65.65 161.7 65.65L162.5 64.65C162.767 65.1833 162.833 65.5167 162.7 65.65Z" fill="white"/>
</svg>
